<svg width="45" height="40" version="1.1" xmlns="http://www.w3.org/2000/svg">
 <title>herbe</title>
 <g transform="translate(41.586 -539.77)">
  <g id="herbe">
   <path d="m-41.586 557.22c6.0714-1.7307 17.976 2.1647 20.535 12.443 1.0873-19.537 8.9355-25.363 16.001-29.773-9.514 8.4555-14.393 15.42-13.091 32.636 4.3676-9.6715 13.121-13.107 21.317-8.3569-12.153-3.6682-19.183 8.0998-20.646 15.603h-3.4729c-1.9372-6.7905-1.4909-19.675-20.642-22.552z" style="fill:#003a00;stroke-width:1.7444"/>
   <path d="m3.4137 557.1c-6.0714-1.7307-17.976 2.1647-20.535 12.443-1.0873-19.537-8.9355-25.363-16.001-29.773 9.514 8.4555 14.393 15.42 13.091 32.636-4.3676-9.6715-13.121-13.107-21.317-8.3569 12.153-3.6682 19.183 8.0998 20.646 15.603h3.4729c1.9372-6.7905 1.4909-19.675 20.642-22.552z" style="fill:#009d00;stroke-width:1.7444"/>
  </g>
 </g>
</svg>
