<?xml version="1.0" encoding="UTF-8" standalone="no"?>
<!-- Created with Inkscape (http://www.inkscape.org/) -->

<svg
   xmlns:dc="http://purl.org/dc/elements/1.1/"
   xmlns:cc="http://creativecommons.org/ns#"
   xmlns:rdf="http://www.w3.org/1999/02/22-rdf-syntax-ns#"
   xmlns:svg="http://www.w3.org/2000/svg"
   xmlns="http://www.w3.org/2000/svg"
   xmlns:sodipodi="http://sodipodi.sourceforge.net/DTD/sodipodi-0.dtd"
   xmlns:inkscape="http://www.inkscape.org/namespaces/inkscape"
   width="47.67527"
   height="42.463997"
   id="svg10994"
   version="1.1"
   inkscape:version="0.92.2 (5c3e80d, 2017-08-06)"
   sodipodi:docname="herbe.svg">
  <title
     id="title448">herbe</title>
  <defs
     id="defs10996" />
  <sodipodi:namedview
     id="base"
     pagecolor="#ffffff"
     bordercolor="#666666"
     borderopacity="1.0"
     inkscape:pageopacity="0.0"
     inkscape:pageshadow="2"
     inkscape:zoom="3.959798"
     inkscape:cx="50.28061"
     inkscape:cy="0.027489511"
     inkscape:document-units="px"
     inkscape:current-layer="layer1"
     showgrid="false"
     inkscape:window-width="1366"
     inkscape:window-height="739"
     inkscape:window-x="-9"
     inkscape:window-y="-9"
     inkscape:window-maximized="1"
     inkscape:snap-global="false"
     showguides="true"
     fit-margin-top="0"
     fit-margin-left="0"
     fit-margin-right="0"
     fit-margin-bottom="0"
     inkscape:guide-bbox="true" />
  <metadata
     id="metadata10999">
    <rdf:RDF>
      <cc:Work
         rdf:about="">
        <dc:format>image/svg+xml</dc:format>
        <dc:type
           rdf:resource="http://purl.org/dc/dcmitype/StillImage" />
        <dc:title>herbe</dc:title>
        <dc:date>2018-05-29</dc:date>
        <dc:creator>
          <cc:Agent>
            <dc:title>V.Bayon</dc:title>
          </cc:Agent>
        </dc:creator>
        <dc:rights>
          <cc:Agent>
            <dc:title>CC</dc:title>
          </cc:Agent>
        </dc:rights>
        <dc:language>France</dc:language>
        <dc:description></dc:description>
        <dc:source></dc:source>
      </cc:Work>
    </rdf:RDF>
  </metadata>
  <g
     inkscape:label="Calque 1"
     inkscape:groupmode="layer"
     id="layer1"
     transform="translate(41.712539,-537.17979)">
    <g
       id="herbe"
       transform="matrix(1.4860854,0,0,1.4860854,-191.48134,-948.99284)"
       inkscape:label="#g1685-0">
      <path
         id="path1679-7"
         sodipodi:nodetypes="cccccccc"
         style="fill:#003a00;fill-opacity:1;stroke-width:1.25"
         inkscape:connector-curvature="0"
         d="m 100.78075,1012.4755 c 4.3513,-1.24 12.883,1.551 14.717,8.9152 0.77924,-13.998 6.404,-18.172 11.468,-21.332 -6.8186,6.0582 -10.315,11.048 -9.3819,23.383 3.1302,-6.9295 9.4034,-9.3909 15.278,-5.9876 -8.7098,-2.6282 -13.748,5.8034 -14.797,11.179 h -2.489 c -1.3884,-4.8653 -1.0685,-14.097 -14.794,-16.158 z" />
      <path
         d="m 132.86186,1012.4755 c -4.35131,-1.24 -12.88301,1.551 -14.71701,8.9152 -0.77923,-13.998 -6.404,-18.172 -11.46799,-21.332 6.8186,6.0582 10.315,11.048 9.3819,23.383 -3.1302,-6.9295 -9.4034,-9.3909 -15.278,-5.9876 8.7098,-2.6282 13.748,5.8034 14.797,11.179 h 2.489 c 1.3884,-4.8653 1.0685,-14.097 14.794,-16.158 z"
         inkscape:connector-curvature="0"
         style="fill:#009d00;fill-opacity:1;stroke-width:1.25"
         sodipodi:nodetypes="cccccccc"
         id="path1681-3" />
      <path
         id="path1683-8"
         sodipodi:nodetypes="cccccccc"
         style="fill:#009d00;fill-opacity:1;stroke-width:1.25"
         inkscape:connector-curvature="0"
         d="m 132.86186,1012.4755 c -4.35131,-1.24 -12.88301,1.551 -14.71701,8.9152 -0.77923,-13.998 -6.404,-18.172 -11.46799,-21.332 6.8186,6.0582 10.315,11.048 9.3819,23.383 -3.1302,-6.9295 -9.4034,-9.3909 -15.278,-5.9876 8.7098,-2.6282 13.748,5.8034 14.797,11.179 h 2.489 c 1.3884,-4.8653 1.0685,-14.097 14.794,-16.158 z" />
    </g>
  </g>
</svg>
