<svg width="47.675" height="42.464" version="1.1" xmlns="http://www.w3.org/2000/svg">
	<title>herbe</title>
	<g transform="translate(41.713 -537.18)">
		<g id="herbe" transform="matrix(1.4861 0 0 1.4861 -191.48 -948.99)">
			<path d="m100.78 1012.5c4.3513-1.24 12.883 1.551 14.717 8.9152 0.77924-13.998 6.404-18.172 11.468-21.332-6.8186 6.0582-10.315 11.048-9.3819 23.383 3.1302-6.9295 9.4034-9.3909 15.278-5.9876-8.7098-2.6282-13.748 5.8034-14.797 11.179h-2.489c-1.3884-4.8653-1.0685-14.097-14.794-16.158z" style="fill:#003a00;stroke-width:1.25"/>
			<path d="m132.86 1012.5c-4.3513-1.24-12.883 1.551-14.717 8.9152-0.77923-13.998-6.404-18.172-11.468-21.332 6.8186 6.0582 10.315 11.048 9.3819 23.383-3.1302-6.9295-9.4034-9.3909-15.278-5.9876 8.7098-2.6282 13.748 5.8034 14.797 11.179h2.489c1.3884-4.8653 1.0685-14.097 14.794-16.158z" style="fill:#009d00;stroke-width:1.25"/>
			<path d="m132.86 1012.5c-4.3513-1.24-12.883 1.551-14.717 8.9152-0.77923-13.998-6.404-18.172-11.468-21.332 6.8186 6.0582 10.315 11.048 9.3819 23.383-3.1302-6.9295-9.4034-9.3909-15.278-5.9876 8.7098-2.6282 13.748 5.8034 14.797 11.179h2.489c1.3884-4.8653 1.0685-14.097 14.794-16.158z" style="fill:#009d00;stroke-width:1.25"/>
		</g>
	</g>
</svg>
