<?xml version="1.0" encoding="UTF-8" standalone="no"?>
<!-- Created with Inkscape (http://www.inkscape.org/) -->

<svg
   xmlns:dc="http://purl.org/dc/elements/1.1/"
   xmlns:cc="http://creativecommons.org/ns#"
   xmlns:rdf="http://www.w3.org/1999/02/22-rdf-syntax-ns#"
   xmlns:svg="http://www.w3.org/2000/svg"
   xmlns="http://www.w3.org/2000/svg"
   xmlns:xlink="http://www.w3.org/1999/xlink"
   xmlns:sodipodi="http://sodipodi.sourceforge.net/DTD/sodipodi-0.dtd"
   xmlns:inkscape="http://www.inkscape.org/namespaces/inkscape"
   width="1360"
   height="720.56482"
   id="svg10994"
   version="1.1"
   inkscape:version="0.92.2 (5c3e80d, 2017-08-06)"
   sodipodi:docname="maquetteMiniMonde.svg">
  <title
     id="title1245">vache</title>
  <defs
     id="defs10996">
    <linearGradient
       id="linearGradient1540"
       inkscape:collect="always">
      <stop
         id="stop1534"
         offset="0"
         style="stop-color:#55cfff;stop-opacity:1" />
      <stop
         style="stop-color:#248783;stop-opacity:1"
         offset="0.44804966"
         id="stop996" />
      <stop
         style="stop-color:#1d7d17;stop-opacity:1"
         offset="0.51261938"
         id="stop1536" />
      <stop
         id="stop1538"
         offset="1"
         style="stop-color:#359500;stop-opacity:1" />
    </linearGradient>
    <linearGradient
       inkscape:collect="always"
       id="linearGradient1261">
      <stop
         style="stop-color:#fecb00;stop-opacity:1"
         offset="0"
         id="stop1257" />
      <stop
         style="stop-color:#ffd943;stop-opacity:1"
         offset="1"
         id="stop1259" />
    </linearGradient>
    <linearGradient
       id="linearGradient6421">
      <stop
         style="stop-color:#afafaf;stop-opacity:1"
         offset="0"
         id="stop6423" />
      <stop
         style="stop-color:#ffffff;stop-opacity:1"
         offset="1"
         id="stop6425" />
    </linearGradient>
    <linearGradient
       id="linearGradient5771">
      <stop
         style="stop-color:#dbdfe3;stop-opacity:1;"
         offset="0"
         id="stop5773" />
      <stop
         style="stop-color:#fafbfb;stop-opacity:1;"
         offset="1"
         id="stop5775" />
    </linearGradient>
    <linearGradient
       id="linearGradient5666">
      <stop
         style="stop-color:#ffccaa;stop-opacity:1;"
         offset="0"
         id="stop5668" />
      <stop
         id="stop5674"
         offset="0.5"
         style="stop-color:#ffe2ce;stop-opacity:1;" />
      <stop
         style="stop-color:#ffccaa;stop-opacity:1;"
         offset="1"
         id="stop5670" />
    </linearGradient>
    <linearGradient
       id="linearGradient3861">
      <stop
         style="stop-color:#00ffff;stop-opacity:1;"
         offset="0"
         id="stop3863" />
      <stop
         style="stop-color:#00ffff;stop-opacity:0;"
         offset="1"
         id="stop3865" />
    </linearGradient>
    <linearGradient
       id="linearGradient15922">
      <stop
         style="stop-color:#ffffff;stop-opacity:1;"
         offset="0"
         id="stop15924" />
      <stop
         style="stop-color:#a2ffff;stop-opacity:1;"
         offset="1"
         id="stop15926" />
    </linearGradient>
    <linearGradient
       id="linearGradient15833-1">
      <stop
         style="stop-color:#ffffff;stop-opacity:0.55329949"
         offset="0"
         id="stop15835-7" />
      <stop
         style="stop-color:#ffffff;stop-opacity:0;"
         offset="1"
         id="stop15837-1" />
    </linearGradient>
    <linearGradient
       id="linearGradient3772">
      <stop
         style="stop-color:#ffe680;stop-opacity:1;"
         offset="0"
         id="stop3774" />
      <stop
         style="stop-color:#fff8de;stop-opacity:1;"
         offset="1"
         id="stop3776" />
    </linearGradient>
    <mask
       maskUnits="userSpaceOnUse"
       id="mask3014">
      <ellipse
         inkscape:export-ydpi="100"
         inkscape:export-xdpi="100"
         inkscape:export-filename="C:\Users\Vicky\Documents\pourClePrefaTico\jeuxEnLigne\webidev\path3113.png"
         id="ellipse3016"
         style="fill:#ffff00;fill-rule:evenodd;stroke:#000000;stroke-width:0.35670686px;stroke-linecap:butt;stroke-linejoin:miter;stroke-opacity:1"
         cx="-135.82529"
         cy="32.761463"
         rx="16.575104"
         ry="18.016415"
         transform="rotate(-47.670563)" />
    </mask>
    <radialGradient
       inkscape:collect="always"
       xlink:href="#linearGradient1261"
       id="radialGradient1263"
       cx="41.767212"
       cy="145.8774"
       fx="41.767212"
       fy="145.8774"
       r="7.5353217"
       gradientTransform="matrix(1,0,0,0.9857146,0,2.0254445)"
       gradientUnits="userSpaceOnUse" />
    <radialGradient
       inkscape:collect="always"
       xlink:href="#linearGradient1261"
       id="radialGradient1434"
       gradientUnits="userSpaceOnUse"
       gradientTransform="matrix(1,0,0,0.9857146,0,2.0254445)"
       cx="41.767212"
       cy="145.8774"
       fx="41.767212"
       fy="145.8774"
       r="7.5353217" />
    <radialGradient
       inkscape:collect="always"
       xlink:href="#linearGradient1261"
       id="radialGradient1448"
       gradientUnits="userSpaceOnUse"
       gradientTransform="matrix(1,0,0,0.9857146,0,2.0254445)"
       cx="41.767212"
       cy="145.8774"
       fx="41.767212"
       fy="145.8774"
       r="7.5353217" />
    <radialGradient
       inkscape:collect="always"
       xlink:href="#linearGradient1261"
       id="radialGradient1462"
       gradientUnits="userSpaceOnUse"
       gradientTransform="matrix(1,0,0,0.9857146,0,2.0254445)"
       cx="41.767212"
       cy="145.8774"
       fx="41.767212"
       fy="145.8774"
       r="7.5353217" />
    <radialGradient
       inkscape:collect="always"
       xlink:href="#linearGradient1261"
       id="radialGradient1476"
       gradientUnits="userSpaceOnUse"
       gradientTransform="matrix(1,0,0,0.9857146,0,2.0254445)"
       cx="41.767212"
       cy="145.8774"
       fx="41.767212"
       fy="145.8774"
       r="7.5353217" />
    <radialGradient
       inkscape:collect="always"
       xlink:href="#linearGradient1261"
       id="radialGradient1490"
       gradientUnits="userSpaceOnUse"
       gradientTransform="matrix(1,0,0,0.9857146,0,2.0254445)"
       cx="41.767212"
       cy="145.8774"
       fx="41.767212"
       fy="145.8774"
       r="7.5353217" />
    <radialGradient
       inkscape:collect="always"
       xlink:href="#linearGradient1261"
       id="radialGradient1504"
       gradientUnits="userSpaceOnUse"
       gradientTransform="matrix(1,0,0,0.9857146,0,2.0254445)"
       cx="41.767212"
       cy="145.8774"
       fx="41.767212"
       fy="145.8774"
       r="7.5353217" />
    <linearGradient
       inkscape:collect="always"
       xlink:href="#linearGradient1540"
       id="linearGradient1532"
       x1="-721.46484"
       y1="3.3427782"
       x2="-715.61554"
       y2="714.49017"
       gradientUnits="userSpaceOnUse" />
  </defs>
  <sodipodi:namedview
     id="base"
     pagecolor="#ffffff"
     bordercolor="#666666"
     borderopacity="1.0"
     inkscape:pageopacity="0.0"
     inkscape:pageshadow="2"
     inkscape:zoom="0.35000001"
     inkscape:cx="988.40926"
     inkscape:cy="159.53258"
     inkscape:document-units="px"
     inkscape:current-layer="layer2"
     showgrid="false"
     inkscape:window-width="1366"
     inkscape:window-height="739"
     inkscape:window-x="-9"
     inkscape:window-y="-9"
     inkscape:window-maximized="1"
     inkscape:snap-global="false"
     showguides="true"
     fit-margin-top="0"
     fit-margin-left="0"
     fit-margin-right="0"
     fit-margin-bottom="0"
     inkscape:guide-bbox="true" />
  <metadata
     id="metadata10999">
    <rdf:RDF>
      <cc:Work
         rdf:about="">
        <dc:format>image/svg+xml</dc:format>
        <dc:type
           rdf:resource="http://purl.org/dc/dcmitype/StillImage" />
        <dc:title>vache</dc:title>
        <dc:date>2018-05-29</dc:date>
        <dc:creator>
          <cc:Agent>
            <dc:title>V.Bayon</dc:title>
          </cc:Agent>
        </dc:creator>
        <dc:rights>
          <cc:Agent>
            <dc:title>CC-BY-NC</dc:title>
          </cc:Agent>
        </dc:rights>
        <dc:language>France</dc:language>
        <dc:description>poisitions de la vache</dc:description>
        <dc:source>https://openclipart.org/detail/216410/cow-black-and-white-vache-blanche-et-noire</dc:source>
      </cc:Work>
    </rdf:RDF>
  </metadata>
  <g
     inkscape:groupmode="layer"
     id="layer2"
     inkscape:label="fond">
    <rect
       style="opacity:0.95999995;fill:url(#linearGradient1532);fill-opacity:1;stroke:none;stroke-width:6.429986;stroke-linecap:round;stroke-miterlimit:4;stroke-dasharray:none;stroke-dashoffset:1.51419175;stroke-opacity:1"
       id="rect1527"
       width="1367.5349"
       height="731.74695"
       x="-1363.9219"
       y="-0.89606935"
       transform="scale(-1,1)" />
    <path
       style="opacity:0.95999995;fill:none;fill-opacity:1;stroke:#ffff00;stroke-width:1.90568304;stroke-linecap:round;stroke-miterlimit:4;stroke-dasharray:none;stroke-dashoffset:1.51419175;stroke-opacity:1"
       id="path998"
       sodipodi:type="arc"
       sodipodi:cx="682.85712"
       sodipodi:cy="-336.53165"
       sodipodi:rx="685.71429"
       sodipodi:ry="280"
       sodipodi:start="0"
       sodipodi:end="3.1559974"
       sodipodi:open="true"
       d="M 1368.5714,-336.53165 A 685.71429,280 0 0 1 1022.8589,-93.37511 685.71429,280 0 0 1 334.31307,-95.400137 685.71429,280 0 0 1 -2.7860372,-340.56484"
       transform="scale(1,-1)" />
    <path
       sodipodi:type="star"
       style="opacity:0.95999995;fill:#ffff00;fill-opacity:1;stroke:none;stroke-width:0.92884189;stroke-linecap:round;stroke-miterlimit:4;stroke-dasharray:none;stroke-dashoffset:1.51419175;stroke-opacity:1"
       id="path1253"
       sodipodi:sides="21"
       sodipodi:cx="233.68805"
       sodipodi:cy="129.04014"
       sodipodi:r1="55.389835"
       sodipodi:r2="27.69492"
       sodipodi:arg1="0.89340989"
       sodipodi:arg2="1.0430095"
       inkscape:flatsided="false"
       inkscape:rounded="0"
       inkscape:randomized="0"
       d="m 268.40411,172.20065 -20.76827,-19.2342 6.50415,27.54944 -14.17622,-24.50124 -1.90515,28.24263 -6.32453,-27.59123 -10.14517,26.42634 2.0891,-28.22962 -17.48375,22.26195 10.31711,-26.35969 -23.26882,16.11949 17.62841,-22.14757 -26.98635,8.54473 23.37334,-15.96755 -28.30603,0.21075 27.04144,-8.36875 -27.11059,-8.14196 28.3068,-0.0263 -23.50626,-15.77122 27.05698,8.3184 -17.8133,-21.999142 23.40302,15.924022 -10.53754,-26.272342 17.6696,22.114722 -2.32548,-28.211128 10.36616,26.340438 6.09322,-27.643239 2.14164,28.225679 13.97049,-24.619115 -6.27317,27.602955 20.60644,-19.407484 -14.13059,24.527584 25.41141,-12.47141 -20.73243,19.27282 27.95846,-4.42719 -25.49212,12.3056 28.02129,4.01039 -27.98671,4.24496 25.59429,12.09165 -27.99456,-4.19287 20.89313,19.0985 -25.51497,-12.25812 z"
       inkscape:transform-center-x="0.83952713"
       inkscape:transform-center-y="-4.4844493" />
    <text
       xml:space="preserve"
       style="font-style:normal;font-variant:normal;font-weight:normal;font-stretch:normal;font-size:18.66666603px;line-height:1.25;font-family:sans-serif;-inkscape-font-specification:'sans-serif, Normal';font-variant-ligatures:normal;font-variant-caps:normal;font-variant-numeric:normal;font-feature-settings:normal;text-align:start;letter-spacing:0px;word-spacing:0px;writing-mode:lr-tb;text-anchor:start;fill:#000000;fill-opacity:1;stroke:none"
       x="587.14282"
       y="50.564827"
       id="text1002"><tspan
         sodipodi:role="line"
         id="tspan1000"
         x="587.14282"
         y="50.564827">trajectoire du solei</tspan></text>
  </g>
  <g
     inkscape:label="herbe"
     inkscape:groupmode="layer"
     id="layer1"
     transform="translate(-5.4679691,-327.11599)"
     sodipodi:insensitive="true">
    <g
       id="g3937"
       transform="matrix(0.49792744,0,0,0.49792744,993.40609,543.67027)"
       inkscape:export-xdpi="100"
       inkscape:export-ydpi="100">
      <path
         sodipodi:nodetypes="cc"
         inkscape:connector-curvature="0"
         id="path3931"
         d="m 297.41855,604.40928 c 10.61001,21.62571 15.08924,43.54336 1.72236,66.31083"
         style="fill:none;stroke:#005522;stroke-width:5;stroke-linecap:round;stroke-linejoin:miter;stroke-miterlimit:4;stroke-dasharray:none;stroke-opacity:1" />
      <path
         sodipodi:nodetypes="sssss"
         inkscape:connector-curvature="0"
         id="path3926"
         d="m 299.9976,598.88337 c 0,57.55388 57.55388,0 0,0 -57.55387,0 0,57.55388 0,0 0,-57.55387 -57.55387,0 0,0 57.55388,0 0,-57.55387 0,0 z"
         style="fill:#00ccff;fill-rule:evenodd;stroke:none;stroke-width:1;stroke-linecap:round;stroke-linejoin:miter;stroke-miterlimit:4;stroke-dasharray:none;stroke-opacity:1" />
      <ellipse
         ry="7.4276743"
         rx="7.5353217"
         cy="141.78435"
         cx="41.767212"
         transform="translate(257.80429,457.1349)"
         id="path3929"
         style="fill:url(#radialGradient1263);fill-opacity:1;fill-rule:evenodd;stroke:none;stroke-width:1px;stroke-linecap:round;stroke-linejoin:miter;stroke-opacity:1" />
      <ellipse
         ry="16.577707"
         rx="4.521193"
         cy="185.38158"
         cx="181.92419"
         inkscape:transform-center-x="-13.811532"
         inkscape:transform-center-y="-10.044384"
         transform="rotate(53.973612,-199.47861,549.87189)"
         id="path3933"
         style="fill:#00aa44;fill-opacity:1;fill-rule:evenodd;stroke:#008033;stroke-width:1px;stroke-linecap:round;stroke-linejoin:miter;stroke-opacity:1" />
      <ellipse
         ry="16.577707"
         rx="4.521193"
         cy="185.38158"
         cx="181.92419"
         style="fill:#00aa44;fill-opacity:1;fill-rule:evenodd;stroke:#008033;stroke-width:1px;stroke-linecap:round;stroke-linejoin:miter;stroke-opacity:1"
         id="path3935"
         transform="matrix(-0.58815779,0.8087462,0.8087462,0.58815779,246.49346,395.10805)"
         inkscape:transform-center-y="-10.044384"
         inkscape:transform-center-x="13.811531" />
    </g>
    <g
       transform="translate(42.346884,286.39853)"
       id="g4539">
      <path
         style="fill:#004b00;fill-opacity:1;stroke-width:1.25"
         d="m 239.84865,632.34285 c 8.12565,8.71339 9.39292,11.40613 8.82031,21.33203 -1.83375,-7.3632 -10.36301,-10.15475 -14.71484,-8.91601 5.53253,0.83076 8.7596,2.83492 10.75976,5.24023 -3.1447,-2.20976 -7.03203,-2.42242 -10.76171,-0.26172 8.13802,-2.45566 13.06888,4.74322 14.53711,10.08399 0.0839,0.36931 0.16299,0.76345 0.25781,1.0957 h 0.002 2.48828 0.002 c 0.0948,-0.33225 0.17391,-0.72639 0.25781,-1.0957 1.46824,-5.34076 6.3991,-12.53965 14.53711,-10.08399 -3.73106,-2.16149 -7.62031,-1.94838 -10.76562,0.26368 1.99998,-2.4065 5.22911,-4.41113 10.76367,-5.24219 -4.35183,-1.23874 -12.88109,1.55281 -14.71485,8.91601 -1.54736,-8.6559 3.67796,-16.71347 8.82032,-21.33203 -3.85235,2.40391 -8.02324,5.4072 -10.14453,12.86328 -2.12127,-7.45636 -6.29212,-10.45933 -10.14454,-12.86328 z"
         id="path844"
         inkscape:connector-curvature="0"
         sodipodi:nodetypes="cccccccccccccccccc" />
      <path
         style="fill:#4ec300;fill-opacity:1;stroke-width:1.25"
         d="m 269.04015,634.36824 c -9.78358,1.20213 -15.13099,8.77176 -17.00781,18.30078 3.67304,-4.49723 7.4236,-5.49428 13.38672,-4.6914 -8.0004,0.42027 -11.93438,4.57792 -14.00977,9.20898 -0.10127,1.22886 -0.16723,2.47085 -0.16992,3.73047 -1.49674,0 -2.99349,0 -4.49023,0 -0.003,-1.26028 -0.0705,-2.50294 -0.17188,-3.73242 -2.07561,-4.63031 -6.01045,-8.78681 -14.00976,-9.20703 5.96217,-0.80275 9.71423,0.19405 13.38672,4.68945 -1.87719,-9.52806 -7.22298,-17.09679 -17.00586,-18.29883 7.69299,0.228 15.97292,3.71994 20.04492,22.79492 4.072,-19.07498 12.35388,-22.56692 20.04687,-22.79492 z"
         id="path842"
         inkscape:connector-curvature="0"
         sodipodi:nodetypes="cccccccccccc" />
    </g>
    <g
       id="g1285"
       transform="translate(-94.023707,303.06605)">
      <path
         sodipodi:nodetypes="cccccccccccccccccc"
         inkscape:connector-curvature="0"
         id="path1281"
         d="m 239.84865,632.34285 c 8.12565,8.71339 9.39292,11.40613 8.82031,21.33203 -1.83375,-7.3632 -10.36301,-10.15475 -14.71484,-8.91601 5.53253,0.83076 8.7596,2.83492 10.75976,5.24023 -3.1447,-2.20976 -7.03203,-2.42242 -10.76171,-0.26172 8.13802,-2.45566 13.06888,4.74322 14.53711,10.08399 0.0839,0.36931 0.16299,0.76345 0.25781,1.0957 h 0.002 2.48828 0.002 c 0.0948,-0.33225 0.17391,-0.72639 0.25781,-1.0957 1.46824,-5.34076 6.3991,-12.53965 14.53711,-10.08399 -3.73106,-2.16149 -7.62031,-1.94838 -10.76562,0.26368 1.99998,-2.4065 5.22911,-4.41113 10.76367,-5.24219 -4.35183,-1.23874 -12.88109,1.55281 -14.71485,8.91601 -1.54736,-8.6559 3.67796,-16.71347 8.82032,-21.33203 -3.85235,2.40391 -8.02324,5.4072 -10.14453,12.86328 -2.12127,-7.45636 -6.29212,-10.45933 -10.14454,-12.86328 z"
         style="fill:#004b00;fill-opacity:1;stroke-width:1.25" />
      <path
         sodipodi:nodetypes="cccccccccccc"
         inkscape:connector-curvature="0"
         id="path1283"
         d="m 269.04015,634.36824 c -9.78358,1.20213 -15.13099,8.77176 -17.00781,18.30078 3.67304,-4.49723 7.4236,-5.49428 13.38672,-4.6914 -8.0004,0.42027 -11.93438,4.57792 -14.00977,9.20898 -0.10127,1.22886 -0.16723,2.47085 -0.16992,3.73047 -1.49674,0 -2.99349,0 -4.49023,0 -0.003,-1.26028 -0.0705,-2.50294 -0.17188,-3.73242 -2.07561,-4.63031 -6.01045,-8.78681 -14.00976,-9.20703 5.96217,-0.80275 9.71423,0.19405 13.38672,4.68945 -1.87719,-9.52806 -7.22298,-17.09679 -17.00586,-18.29883 7.69299,0.228 15.97292,3.71994 20.04492,22.79492 4.072,-19.07498 12.35388,-22.56692 20.04687,-22.79492 z"
         style="fill:#4ec300;fill-opacity:1;stroke-width:1.25" />
    </g>
    <g
       transform="translate(-149.5821,194.97973)"
       id="g1306">
      <path
         style="fill:#004b00;fill-opacity:1;stroke-width:1.25"
         d="m 239.84865,632.34285 c 8.12565,8.71339 9.39292,11.40613 8.82031,21.33203 -1.83375,-7.3632 -10.36301,-10.15475 -14.71484,-8.91601 5.53253,0.83076 8.7596,2.83492 10.75976,5.24023 -3.1447,-2.20976 -7.03203,-2.42242 -10.76171,-0.26172 8.13802,-2.45566 13.06888,4.74322 14.53711,10.08399 0.0839,0.36931 0.16299,0.76345 0.25781,1.0957 h 0.002 2.48828 0.002 c 0.0948,-0.33225 0.17391,-0.72639 0.25781,-1.0957 1.46824,-5.34076 6.3991,-12.53965 14.53711,-10.08399 -3.73106,-2.16149 -7.62031,-1.94838 -10.76562,0.26368 1.99998,-2.4065 5.22911,-4.41113 10.76367,-5.24219 -4.35183,-1.23874 -12.88109,1.55281 -14.71485,8.91601 -1.54736,-8.6559 3.67796,-16.71347 8.82032,-21.33203 -3.85235,2.40391 -8.02324,5.4072 -10.14453,12.86328 -2.12127,-7.45636 -6.29212,-10.45933 -10.14454,-12.86328 z"
         id="path1302"
         inkscape:connector-curvature="0"
         sodipodi:nodetypes="cccccccccccccccccc" />
      <path
         style="fill:#4ec300;fill-opacity:1;stroke-width:1.25"
         d="m 269.04015,634.36824 c -9.78358,1.20213 -15.13099,8.77176 -17.00781,18.30078 3.67304,-4.49723 7.4236,-5.49428 13.38672,-4.6914 -8.0004,0.42027 -11.93438,4.57792 -14.00977,9.20898 -0.10127,1.22886 -0.16723,2.47085 -0.16992,3.73047 -1.49674,0 -2.99349,0 -4.49023,0 -0.003,-1.26028 -0.0705,-2.50294 -0.17188,-3.73242 -2.07561,-4.63031 -6.01045,-8.78681 -14.00976,-9.20703 5.96217,-0.80275 9.71423,0.19405 13.38672,4.68945 -1.87719,-9.52806 -7.22298,-17.09679 -17.00586,-18.29883 7.69299,0.228 15.97292,3.71994 20.04492,22.79492 4.072,-19.07498 12.35388,-22.56692 20.04687,-22.79492 z"
         id="path1304"
         inkscape:connector-curvature="0"
         sodipodi:nodetypes="cccccccccccc" />
    </g>
    <g
       id="g1312"
       transform="translate(-188.97805,278.82239)">
      <path
         sodipodi:nodetypes="cccccccccccccccccc"
         inkscape:connector-curvature="0"
         id="path1308"
         d="m 239.84865,632.34285 c 8.12565,8.71339 9.39292,11.40613 8.82031,21.33203 -1.83375,-7.3632 -10.36301,-10.15475 -14.71484,-8.91601 5.53253,0.83076 8.7596,2.83492 10.75976,5.24023 -3.1447,-2.20976 -7.03203,-2.42242 -10.76171,-0.26172 8.13802,-2.45566 13.06888,4.74322 14.53711,10.08399 0.0839,0.36931 0.16299,0.76345 0.25781,1.0957 h 0.002 2.48828 0.002 c 0.0948,-0.33225 0.17391,-0.72639 0.25781,-1.0957 1.46824,-5.34076 6.3991,-12.53965 14.53711,-10.08399 -3.73106,-2.16149 -7.62031,-1.94838 -10.76562,0.26368 1.99998,-2.4065 5.22911,-4.41113 10.76367,-5.24219 -4.35183,-1.23874 -12.88109,1.55281 -14.71485,8.91601 -1.54736,-8.6559 3.67796,-16.71347 8.82032,-21.33203 -3.85235,2.40391 -8.02324,5.4072 -10.14453,12.86328 -2.12127,-7.45636 -6.29212,-10.45933 -10.14454,-12.86328 z"
         style="fill:#004b00;fill-opacity:1;stroke-width:1.25" />
      <path
         sodipodi:nodetypes="cccccccccccc"
         inkscape:connector-curvature="0"
         id="path1310"
         d="m 269.04015,634.36824 c -9.78358,1.20213 -15.13099,8.77176 -17.00781,18.30078 3.67304,-4.49723 7.4236,-5.49428 13.38672,-4.6914 -8.0004,0.42027 -11.93438,4.57792 -14.00977,9.20898 -0.10127,1.22886 -0.16723,2.47085 -0.16992,3.73047 -1.49674,0 -2.99349,0 -4.49023,0 -0.003,-1.26028 -0.0705,-2.50294 -0.17188,-3.73242 -2.07561,-4.63031 -6.01045,-8.78681 -14.00976,-9.20703 5.96217,-0.80275 9.71423,0.19405 13.38672,4.68945 -1.87719,-9.52806 -7.22298,-17.09679 -17.00586,-18.29883 7.69299,0.228 15.97292,3.71994 20.04492,22.79492 4.072,-19.07498 12.35388,-22.56692 20.04687,-22.79492 z"
         style="fill:#4ec300;fill-opacity:1;stroke-width:1.25" />
    </g>
    <g
       transform="translate(442.36729,235.38583)"
       id="g1318">
      <path
         style="fill:#004b00;fill-opacity:1;stroke-width:1.25"
         d="m 239.84865,632.34285 c 8.12565,8.71339 9.39292,11.40613 8.82031,21.33203 -1.83375,-7.3632 -10.36301,-10.15475 -14.71484,-8.91601 5.53253,0.83076 8.7596,2.83492 10.75976,5.24023 -3.1447,-2.20976 -7.03203,-2.42242 -10.76171,-0.26172 8.13802,-2.45566 13.06888,4.74322 14.53711,10.08399 0.0839,0.36931 0.16299,0.76345 0.25781,1.0957 h 0.002 2.48828 0.002 c 0.0948,-0.33225 0.17391,-0.72639 0.25781,-1.0957 1.46824,-5.34076 6.3991,-12.53965 14.53711,-10.08399 -3.73106,-2.16149 -7.62031,-1.94838 -10.76562,0.26368 1.99998,-2.4065 5.22911,-4.41113 10.76367,-5.24219 -4.35183,-1.23874 -12.88109,1.55281 -14.71485,8.91601 -1.54736,-8.6559 3.67796,-16.71347 8.82032,-21.33203 -3.85235,2.40391 -8.02324,5.4072 -10.14453,12.86328 -2.12127,-7.45636 -6.29212,-10.45933 -10.14454,-12.86328 z"
         id="path1314"
         inkscape:connector-curvature="0"
         sodipodi:nodetypes="cccccccccccccccccc" />
      <path
         style="fill:#4ec300;fill-opacity:1;stroke-width:1.25"
         d="m 269.04015,634.36824 c -9.78358,1.20213 -15.13099,8.77176 -17.00781,18.30078 3.67304,-4.49723 7.4236,-5.49428 13.38672,-4.6914 -8.0004,0.42027 -11.93438,4.57792 -14.00977,9.20898 -0.10127,1.22886 -0.16723,2.47085 -0.16992,3.73047 -1.49674,0 -2.99349,0 -4.49023,0 -0.003,-1.26028 -0.0705,-2.50294 -0.17188,-3.73242 -2.07561,-4.63031 -6.01045,-8.78681 -14.00976,-9.20703 5.96217,-0.80275 9.71423,0.19405 13.38672,4.68945 -1.87719,-9.52806 -7.22298,-17.09679 -17.00586,-18.29883 7.69299,0.228 15.97292,3.71994 20.04492,22.79492 4.072,-19.07498 12.35388,-22.56692 20.04687,-22.79492 z"
         id="path1316"
         inkscape:connector-curvature="0"
         sodipodi:nodetypes="cccccccccccc" />
    </g>
    <g
       id="g1324"
       transform="translate(386.8089,127.29951)">
      <path
         sodipodi:nodetypes="cccccccccccccccccc"
         inkscape:connector-curvature="0"
         id="path1320"
         d="m 239.84865,632.34285 c 8.12565,8.71339 9.39292,11.40613 8.82031,21.33203 -1.83375,-7.3632 -10.36301,-10.15475 -14.71484,-8.91601 5.53253,0.83076 8.7596,2.83492 10.75976,5.24023 -3.1447,-2.20976 -7.03203,-2.42242 -10.76171,-0.26172 8.13802,-2.45566 13.06888,4.74322 14.53711,10.08399 0.0839,0.36931 0.16299,0.76345 0.25781,1.0957 h 0.002 2.48828 0.002 c 0.0948,-0.33225 0.17391,-0.72639 0.25781,-1.0957 1.46824,-5.34076 6.3991,-12.53965 14.53711,-10.08399 -3.73106,-2.16149 -7.62031,-1.94838 -10.76562,0.26368 1.99998,-2.4065 5.22911,-4.41113 10.76367,-5.24219 -4.35183,-1.23874 -12.88109,1.55281 -14.71485,8.91601 -1.54736,-8.6559 3.67796,-16.71347 8.82032,-21.33203 -3.85235,2.40391 -8.02324,5.4072 -10.14453,12.86328 -2.12127,-7.45636 -6.29212,-10.45933 -10.14454,-12.86328 z"
         style="fill:#004b00;fill-opacity:1;stroke-width:1.25" />
      <path
         sodipodi:nodetypes="cccccccccccc"
         inkscape:connector-curvature="0"
         id="path1322"
         d="m 269.04015,634.36824 c -9.78358,1.20213 -15.13099,8.77176 -17.00781,18.30078 3.67304,-4.49723 7.4236,-5.49428 13.38672,-4.6914 -8.0004,0.42027 -11.93438,4.57792 -14.00977,9.20898 -0.10127,1.22886 -0.16723,2.47085 -0.16992,3.73047 -1.49674,0 -2.99349,0 -4.49023,0 -0.003,-1.26028 -0.0705,-2.50294 -0.17188,-3.73242 -2.07561,-4.63031 -6.01045,-8.78681 -14.00976,-9.20703 5.96217,-0.80275 9.71423,0.19405 13.38672,4.68945 -1.87719,-9.52806 -7.22298,-17.09679 -17.00586,-18.29883 7.69299,0.228 15.97292,3.71994 20.04492,22.79492 4.072,-19.07498 12.35388,-22.56692 20.04687,-22.79492 z"
         style="fill:#4ec300;fill-opacity:1;stroke-width:1.25" />
    </g>
    <g
       transform="translate(347.41295,211.14217)"
       id="g1330">
      <path
         style="fill:#004b00;fill-opacity:1;stroke-width:1.25"
         d="m 239.84865,632.34285 c 8.12565,8.71339 9.39292,11.40613 8.82031,21.33203 -1.83375,-7.3632 -10.36301,-10.15475 -14.71484,-8.91601 5.53253,0.83076 8.7596,2.83492 10.75976,5.24023 -3.1447,-2.20976 -7.03203,-2.42242 -10.76171,-0.26172 8.13802,-2.45566 13.06888,4.74322 14.53711,10.08399 0.0839,0.36931 0.16299,0.76345 0.25781,1.0957 h 0.002 2.48828 0.002 c 0.0948,-0.33225 0.17391,-0.72639 0.25781,-1.0957 1.46824,-5.34076 6.3991,-12.53965 14.53711,-10.08399 -3.73106,-2.16149 -7.62031,-1.94838 -10.76562,0.26368 1.99998,-2.4065 5.22911,-4.41113 10.76367,-5.24219 -4.35183,-1.23874 -12.88109,1.55281 -14.71485,8.91601 -1.54736,-8.6559 3.67796,-16.71347 8.82032,-21.33203 -3.85235,2.40391 -8.02324,5.4072 -10.14453,12.86328 -2.12127,-7.45636 -6.29212,-10.45933 -10.14454,-12.86328 z"
         id="path1326"
         inkscape:connector-curvature="0"
         sodipodi:nodetypes="cccccccccccccccccc" />
      <path
         style="fill:#4ec300;fill-opacity:1;stroke-width:1.25"
         d="m 269.04015,634.36824 c -9.78358,1.20213 -15.13099,8.77176 -17.00781,18.30078 3.67304,-4.49723 7.4236,-5.49428 13.38672,-4.6914 -8.0004,0.42027 -11.93438,4.57792 -14.00977,9.20898 -0.10127,1.22886 -0.16723,2.47085 -0.16992,3.73047 -1.49674,0 -2.99349,0 -4.49023,0 -0.003,-1.26028 -0.0705,-2.50294 -0.17188,-3.73242 -2.07561,-4.63031 -6.01045,-8.78681 -14.00976,-9.20703 5.96217,-0.80275 9.71423,0.19405 13.38672,4.68945 -1.87719,-9.52806 -7.22298,-17.09679 -17.00586,-18.29883 7.69299,0.228 15.97292,3.71994 20.04492,22.79492 4.072,-19.07498 12.35388,-22.56692 20.04687,-22.79492 z"
         id="path1328"
         inkscape:connector-curvature="0"
         sodipodi:nodetypes="cccccccccccc" />
    </g>
    <g
       id="g1336"
       transform="translate(-95.03386,153.56347)">
      <path
         sodipodi:nodetypes="cccccccccccccccccc"
         inkscape:connector-curvature="0"
         id="path1332"
         d="m 239.84865,632.34285 c 8.12565,8.71339 9.39292,11.40613 8.82031,21.33203 -1.83375,-7.3632 -10.36301,-10.15475 -14.71484,-8.91601 5.53253,0.83076 8.7596,2.83492 10.75976,5.24023 -3.1447,-2.20976 -7.03203,-2.42242 -10.76171,-0.26172 8.13802,-2.45566 13.06888,4.74322 14.53711,10.08399 0.0839,0.36931 0.16299,0.76345 0.25781,1.0957 h 0.002 2.48828 0.002 c 0.0948,-0.33225 0.17391,-0.72639 0.25781,-1.0957 1.46824,-5.34076 6.3991,-12.53965 14.53711,-10.08399 -3.73106,-2.16149 -7.62031,-1.94838 -10.76562,0.26368 1.99998,-2.4065 5.22911,-4.41113 10.76367,-5.24219 -4.35183,-1.23874 -12.88109,1.55281 -14.71485,8.91601 -1.54736,-8.6559 3.67796,-16.71347 8.82032,-21.33203 -3.85235,2.40391 -8.02324,5.4072 -10.14453,12.86328 -2.12127,-7.45636 -6.29212,-10.45933 -10.14454,-12.86328 z"
         style="fill:#004b00;fill-opacity:1;stroke-width:1.25" />
      <path
         sodipodi:nodetypes="cccccccccccc"
         inkscape:connector-curvature="0"
         id="path1334"
         d="m 269.04015,634.36824 c -9.78358,1.20213 -15.13099,8.77176 -17.00781,18.30078 3.67304,-4.49723 7.4236,-5.49428 13.38672,-4.6914 -8.0004,0.42027 -11.93438,4.57792 -14.00977,9.20898 -0.10127,1.22886 -0.16723,2.47085 -0.16992,3.73047 -1.49674,0 -2.99349,0 -4.49023,0 -0.003,-1.26028 -0.0705,-2.50294 -0.17188,-3.73242 -2.07561,-4.63031 -6.01045,-8.78681 -14.00976,-9.20703 5.96217,-0.80275 9.71423,0.19405 13.38672,4.68945 -1.87719,-9.52806 -7.22298,-17.09679 -17.00586,-18.29883 7.69299,0.228 15.97292,3.71994 20.04492,22.79492 4.072,-19.07498 12.35388,-22.56692 20.04687,-22.79492 z"
         style="fill:#4ec300;fill-opacity:1;stroke-width:1.25" />
    </g>
    <g
       transform="translate(-150.59225,45.477154)"
       id="g1342">
      <path
         style="fill:#004b00;fill-opacity:1;stroke-width:1.25"
         d="m 239.84865,632.34285 c 8.12565,8.71339 9.39292,11.40613 8.82031,21.33203 -1.83375,-7.3632 -10.36301,-10.15475 -14.71484,-8.91601 5.53253,0.83076 8.7596,2.83492 10.75976,5.24023 -3.1447,-2.20976 -7.03203,-2.42242 -10.76171,-0.26172 8.13802,-2.45566 13.06888,4.74322 14.53711,10.08399 0.0839,0.36931 0.16299,0.76345 0.25781,1.0957 h 0.002 2.48828 0.002 c 0.0948,-0.33225 0.17391,-0.72639 0.25781,-1.0957 1.46824,-5.34076 6.3991,-12.53965 14.53711,-10.08399 -3.73106,-2.16149 -7.62031,-1.94838 -10.76562,0.26368 1.99998,-2.4065 5.22911,-4.41113 10.76367,-5.24219 -4.35183,-1.23874 -12.88109,1.55281 -14.71485,8.91601 -1.54736,-8.6559 3.67796,-16.71347 8.82032,-21.33203 -3.85235,2.40391 -8.02324,5.4072 -10.14453,12.86328 -2.12127,-7.45636 -6.29212,-10.45933 -10.14454,-12.86328 z"
         id="path1338"
         inkscape:connector-curvature="0"
         sodipodi:nodetypes="cccccccccccccccccc" />
      <path
         style="fill:#4ec300;fill-opacity:1;stroke-width:1.25"
         d="m 269.04015,634.36824 c -9.78358,1.20213 -15.13099,8.77176 -17.00781,18.30078 3.67304,-4.49723 7.4236,-5.49428 13.38672,-4.6914 -8.0004,0.42027 -11.93438,4.57792 -14.00977,9.20898 -0.10127,1.22886 -0.16723,2.47085 -0.16992,3.73047 -1.49674,0 -2.99349,0 -4.49023,0 -0.003,-1.26028 -0.0705,-2.50294 -0.17188,-3.73242 -2.07561,-4.63031 -6.01045,-8.78681 -14.00976,-9.20703 5.96217,-0.80275 9.71423,0.19405 13.38672,4.68945 -1.87719,-9.52806 -7.22298,-17.09679 -17.00586,-18.29883 7.69299,0.228 15.97292,3.71994 20.04492,22.79492 4.072,-19.07498 12.35388,-22.56692 20.04687,-22.79492 z"
         id="path1340"
         inkscape:connector-curvature="0"
         sodipodi:nodetypes="cccccccccccc" />
    </g>
    <g
       id="g1348"
       transform="translate(-189.9882,129.31981)">
      <path
         sodipodi:nodetypes="cccccccccccccccccc"
         inkscape:connector-curvature="0"
         id="path1344"
         d="m 239.84865,632.34285 c 8.12565,8.71339 9.39292,11.40613 8.82031,21.33203 -1.83375,-7.3632 -10.36301,-10.15475 -14.71484,-8.91601 5.53253,0.83076 8.7596,2.83492 10.75976,5.24023 -3.1447,-2.20976 -7.03203,-2.42242 -10.76171,-0.26172 8.13802,-2.45566 13.06888,4.74322 14.53711,10.08399 0.0839,0.36931 0.16299,0.76345 0.25781,1.0957 h 0.002 2.48828 0.002 c 0.0948,-0.33225 0.17391,-0.72639 0.25781,-1.0957 1.46824,-5.34076 6.3991,-12.53965 14.53711,-10.08399 -3.73106,-2.16149 -7.62031,-1.94838 -10.76562,0.26368 1.99998,-2.4065 5.22911,-4.41113 10.76367,-5.24219 -4.35183,-1.23874 -12.88109,1.55281 -14.71485,8.91601 -1.54736,-8.6559 3.67796,-16.71347 8.82032,-21.33203 -3.85235,2.40391 -8.02324,5.4072 -10.14453,12.86328 -2.12127,-7.45636 -6.29212,-10.45933 -10.14454,-12.86328 z"
         style="fill:#004b00;fill-opacity:1;stroke-width:1.25" />
      <path
         sodipodi:nodetypes="cccccccccccc"
         inkscape:connector-curvature="0"
         id="path1346"
         d="m 269.04015,634.36824 c -9.78358,1.20213 -15.13099,8.77176 -17.00781,18.30078 3.67304,-4.49723 7.4236,-5.49428 13.38672,-4.6914 -8.0004,0.42027 -11.93438,4.57792 -14.00977,9.20898 -0.10127,1.22886 -0.16723,2.47085 -0.16992,3.73047 -1.49674,0 -2.99349,0 -4.49023,0 -0.003,-1.26028 -0.0705,-2.50294 -0.17188,-3.73242 -2.07561,-4.63031 -6.01045,-8.78681 -14.00976,-9.20703 5.96217,-0.80275 9.71423,0.19405 13.38672,4.68945 -1.87719,-9.52806 -7.22298,-17.09679 -17.00586,-18.29883 7.69299,0.228 15.97292,3.71994 20.04492,22.79492 4.072,-19.07498 12.35388,-22.56692 20.04687,-22.79492 z"
         style="fill:#4ec300;fill-opacity:1;stroke-width:1.25" />
    </g>
    <g
       transform="translate(152.45351,93.96447)"
       id="g1354">
      <path
         style="fill:#004b00;fill-opacity:1;stroke-width:1.25"
         d="m 239.84865,632.34285 c 8.12565,8.71339 9.39292,11.40613 8.82031,21.33203 -1.83375,-7.3632 -10.36301,-10.15475 -14.71484,-8.91601 5.53253,0.83076 8.7596,2.83492 10.75976,5.24023 -3.1447,-2.20976 -7.03203,-2.42242 -10.76171,-0.26172 8.13802,-2.45566 13.06888,4.74322 14.53711,10.08399 0.0839,0.36931 0.16299,0.76345 0.25781,1.0957 h 0.002 2.48828 0.002 c 0.0948,-0.33225 0.17391,-0.72639 0.25781,-1.0957 1.46824,-5.34076 6.3991,-12.53965 14.53711,-10.08399 -3.73106,-2.16149 -7.62031,-1.94838 -10.76562,0.26368 1.99998,-2.4065 5.22911,-4.41113 10.76367,-5.24219 -4.35183,-1.23874 -12.88109,1.55281 -14.71485,8.91601 -1.54736,-8.6559 3.67796,-16.71347 8.82032,-21.33203 -3.85235,2.40391 -8.02324,5.4072 -10.14453,12.86328 -2.12127,-7.45636 -6.29212,-10.45933 -10.14454,-12.86328 z"
         id="path1350"
         inkscape:connector-curvature="0"
         sodipodi:nodetypes="cccccccccccccccccc" />
      <path
         style="fill:#4ec300;fill-opacity:1;stroke-width:1.25"
         d="m 269.04015,634.36824 c -9.78358,1.20213 -15.13099,8.77176 -17.00781,18.30078 3.67304,-4.49723 7.4236,-5.49428 13.38672,-4.6914 -8.0004,0.42027 -11.93438,4.57792 -14.00977,9.20898 -0.10127,1.22886 -0.16723,2.47085 -0.16992,3.73047 -1.49674,0 -2.99349,0 -4.49023,0 -0.003,-1.26028 -0.0705,-2.50294 -0.17188,-3.73242 -2.07561,-4.63031 -6.01045,-8.78681 -14.00976,-9.20703 5.96217,-0.80275 9.71423,0.19405 13.38672,4.68945 -1.87719,-9.52806 -7.22298,-17.09679 -17.00586,-18.29883 7.69299,0.228 15.97292,3.71994 20.04492,22.79492 4.072,-19.07498 12.35388,-22.56692 20.04687,-22.79492 z"
         id="path1352"
         inkscape:connector-curvature="0"
         sodipodi:nodetypes="cccccccccccc" />
    </g>
    <g
       id="g1360"
       transform="translate(21.133681,45.477154)">
      <path
         sodipodi:nodetypes="cccccccccccccccccc"
         inkscape:connector-curvature="0"
         id="path1356"
         d="m 239.84865,632.34285 c 8.12565,8.71339 9.39292,11.40613 8.82031,21.33203 -1.83375,-7.3632 -10.36301,-10.15475 -14.71484,-8.91601 5.53253,0.83076 8.7596,2.83492 10.75976,5.24023 -3.1447,-2.20976 -7.03203,-2.42242 -10.76171,-0.26172 8.13802,-2.45566 13.06888,4.74322 14.53711,10.08399 0.0839,0.36931 0.16299,0.76345 0.25781,1.0957 h 0.002 2.48828 0.002 c 0.0948,-0.33225 0.17391,-0.72639 0.25781,-1.0957 1.46824,-5.34076 6.3991,-12.53965 14.53711,-10.08399 -3.73106,-2.16149 -7.62031,-1.94838 -10.76562,0.26368 1.99998,-2.4065 5.22911,-4.41113 10.76367,-5.24219 -4.35183,-1.23874 -12.88109,1.55281 -14.71485,8.91601 -1.54736,-8.6559 3.67796,-16.71347 8.82032,-21.33203 -3.85235,2.40391 -8.02324,5.4072 -10.14453,12.86328 -2.12127,-7.45636 -6.29212,-10.45933 -10.14454,-12.86328 z"
         style="fill:#004b00;fill-opacity:1;stroke-width:1.25" />
      <path
         sodipodi:nodetypes="cccccccccccc"
         inkscape:connector-curvature="0"
         id="path1358"
         d="m 269.04015,634.36824 c -9.78358,1.20213 -15.13099,8.77176 -17.00781,18.30078 3.67304,-4.49723 7.4236,-5.49428 13.38672,-4.6914 -8.0004,0.42027 -11.93438,4.57792 -14.00977,9.20898 -0.10127,1.22886 -0.16723,2.47085 -0.16992,3.73047 -1.49674,0 -2.99349,0 -4.49023,0 -0.003,-1.26028 -0.0705,-2.50294 -0.17188,-3.73242 -2.07561,-4.63031 -6.01045,-8.78681 -14.00976,-9.20703 5.96217,-0.80275 9.71423,0.19405 13.38672,4.68945 -1.87719,-9.52806 -7.22298,-17.09679 -17.00586,-18.29883 7.69299,0.228 15.97292,3.71994 20.04492,22.79492 4.072,-19.07498 12.35388,-22.56692 20.04687,-22.79492 z"
         style="fill:#4ec300;fill-opacity:1;stroke-width:1.25" />
    </g>
    <g
       transform="translate(-18.262269,129.31981)"
       id="g1366">
      <path
         style="fill:#004b00;fill-opacity:1;stroke-width:1.25"
         d="m 239.84865,632.34285 c 8.12565,8.71339 9.39292,11.40613 8.82031,21.33203 -1.83375,-7.3632 -10.36301,-10.15475 -14.71484,-8.91601 5.53253,0.83076 8.7596,2.83492 10.75976,5.24023 -3.1447,-2.20976 -7.03203,-2.42242 -10.76171,-0.26172 8.13802,-2.45566 13.06888,4.74322 14.53711,10.08399 0.0839,0.36931 0.16299,0.76345 0.25781,1.0957 h 0.002 2.48828 0.002 c 0.0948,-0.33225 0.17391,-0.72639 0.25781,-1.0957 1.46824,-5.34076 6.3991,-12.53965 14.53711,-10.08399 -3.73106,-2.16149 -7.62031,-1.94838 -10.76562,0.26368 1.99998,-2.4065 5.22911,-4.41113 10.76367,-5.24219 -4.35183,-1.23874 -12.88109,1.55281 -14.71485,8.91601 -1.54736,-8.6559 3.67796,-16.71347 8.82032,-21.33203 -3.85235,2.40391 -8.02324,5.4072 -10.14453,12.86328 -2.12127,-7.45636 -6.29212,-10.45933 -10.14454,-12.86328 z"
         id="path1362"
         inkscape:connector-curvature="0"
         sodipodi:nodetypes="cccccccccccccccccc" />
      <path
         style="fill:#4ec300;fill-opacity:1;stroke-width:1.25"
         d="m 269.04015,634.36824 c -9.78358,1.20213 -15.13099,8.77176 -17.00781,18.30078 3.67304,-4.49723 7.4236,-5.49428 13.38672,-4.6914 -8.0004,0.42027 -11.93438,4.57792 -14.00977,9.20898 -0.10127,1.22886 -0.16723,2.47085 -0.16992,3.73047 -1.49674,0 -2.99349,0 -4.49023,0 -0.003,-1.26028 -0.0705,-2.50294 -0.17188,-3.73242 -2.07561,-4.63031 -6.01045,-8.78681 -14.00976,-9.20703 5.96217,-0.80275 9.71423,0.19405 13.38672,4.68945 -1.87719,-9.52806 -7.22298,-17.09679 -17.00586,-18.29883 7.69299,0.228 15.97292,3.71994 20.04492,22.79492 4.072,-19.07498 12.35388,-22.56692 20.04687,-22.79492 z"
         id="path1364"
         inkscape:connector-curvature="0"
         sodipodi:nodetypes="cccccccccccc" />
    </g>
    <g
       id="g1372"
       transform="translate(643.38764,341.45185)">
      <path
         sodipodi:nodetypes="cccccccccccccccccc"
         inkscape:connector-curvature="0"
         id="path1368"
         d="m 239.84865,632.34285 c 8.12565,8.71339 9.39292,11.40613 8.82031,21.33203 -1.83375,-7.3632 -10.36301,-10.15475 -14.71484,-8.91601 5.53253,0.83076 8.7596,2.83492 10.75976,5.24023 -3.1447,-2.20976 -7.03203,-2.42242 -10.76171,-0.26172 8.13802,-2.45566 13.06888,4.74322 14.53711,10.08399 0.0839,0.36931 0.16299,0.76345 0.25781,1.0957 h 0.002 2.48828 0.002 c 0.0948,-0.33225 0.17391,-0.72639 0.25781,-1.0957 1.46824,-5.34076 6.3991,-12.53965 14.53711,-10.08399 -3.73106,-2.16149 -7.62031,-1.94838 -10.76562,0.26368 1.99998,-2.4065 5.22911,-4.41113 10.76367,-5.24219 -4.35183,-1.23874 -12.88109,1.55281 -14.71485,8.91601 -1.54736,-8.6559 3.67796,-16.71347 8.82032,-21.33203 -3.85235,2.40391 -8.02324,5.4072 -10.14453,12.86328 -2.12127,-7.45636 -6.29212,-10.45933 -10.14454,-12.86328 z"
         style="fill:#004b00;fill-opacity:1;stroke-width:1.25" />
      <path
         sodipodi:nodetypes="cccccccccccc"
         inkscape:connector-curvature="0"
         id="path1370"
         d="m 269.04015,634.36824 c -9.78358,1.20213 -15.13099,8.77176 -17.00781,18.30078 3.67304,-4.49723 7.4236,-5.49428 13.38672,-4.6914 -8.0004,0.42027 -11.93438,4.57792 -14.00977,9.20898 -0.10127,1.22886 -0.16723,2.47085 -0.16992,3.73047 -1.49674,0 -2.99349,0 -4.49023,0 -0.003,-1.26028 -0.0705,-2.50294 -0.17188,-3.73242 -2.07561,-4.63031 -6.01045,-8.78681 -14.00976,-9.20703 5.96217,-0.80275 9.71423,0.19405 13.38672,4.68945 -1.87719,-9.52806 -7.22298,-17.09679 -17.00586,-18.29883 7.69299,0.228 15.97292,3.71994 20.04492,22.79492 4.072,-19.07498 12.35388,-22.56692 20.04687,-22.79492 z"
         style="fill:#4ec300;fill-opacity:1;stroke-width:1.25" />
    </g>
    <g
       transform="translate(587.82925,233.36553)"
       id="g1378">
      <path
         style="fill:#004b00;fill-opacity:1;stroke-width:1.25"
         d="m 239.84865,632.34285 c 8.12565,8.71339 9.39292,11.40613 8.82031,21.33203 -1.83375,-7.3632 -10.36301,-10.15475 -14.71484,-8.91601 5.53253,0.83076 8.7596,2.83492 10.75976,5.24023 -3.1447,-2.20976 -7.03203,-2.42242 -10.76171,-0.26172 8.13802,-2.45566 13.06888,4.74322 14.53711,10.08399 0.0839,0.36931 0.16299,0.76345 0.25781,1.0957 h 0.002 2.48828 0.002 c 0.0948,-0.33225 0.17391,-0.72639 0.25781,-1.0957 1.46824,-5.34076 6.3991,-12.53965 14.53711,-10.08399 -3.73106,-2.16149 -7.62031,-1.94838 -10.76562,0.26368 1.99998,-2.4065 5.22911,-4.41113 10.76367,-5.24219 -4.35183,-1.23874 -12.88109,1.55281 -14.71485,8.91601 -1.54736,-8.6559 3.67796,-16.71347 8.82032,-21.33203 -3.85235,2.40391 -8.02324,5.4072 -10.14453,12.86328 -2.12127,-7.45636 -6.29212,-10.45933 -10.14454,-12.86328 z"
         id="path1374"
         inkscape:connector-curvature="0"
         sodipodi:nodetypes="cccccccccccccccccc" />
      <path
         style="fill:#4ec300;fill-opacity:1;stroke-width:1.25"
         d="m 269.04015,634.36824 c -9.78358,1.20213 -15.13099,8.77176 -17.00781,18.30078 3.67304,-4.49723 7.4236,-5.49428 13.38672,-4.6914 -8.0004,0.42027 -11.93438,4.57792 -14.00977,9.20898 -0.10127,1.22886 -0.16723,2.47085 -0.16992,3.73047 -1.49674,0 -2.99349,0 -4.49023,0 -0.003,-1.26028 -0.0705,-2.50294 -0.17188,-3.73242 -2.07561,-4.63031 -6.01045,-8.78681 -14.00976,-9.20703 5.96217,-0.80275 9.71423,0.19405 13.38672,4.68945 -1.87719,-9.52806 -7.22298,-17.09679 -17.00586,-18.29883 7.69299,0.228 15.97292,3.71994 20.04492,22.79492 4.072,-19.07498 12.35388,-22.56692 20.04687,-22.79492 z"
         id="path1376"
         inkscape:connector-curvature="0"
         sodipodi:nodetypes="cccccccccccc" />
    </g>
    <g
       id="g1384"
       transform="translate(548.4333,317.20819)">
      <path
         sodipodi:nodetypes="cccccccccccccccccc"
         inkscape:connector-curvature="0"
         id="path1380"
         d="m 239.84865,632.34285 c 8.12565,8.71339 9.39292,11.40613 8.82031,21.33203 -1.83375,-7.3632 -10.36301,-10.15475 -14.71484,-8.91601 5.53253,0.83076 8.7596,2.83492 10.75976,5.24023 -3.1447,-2.20976 -7.03203,-2.42242 -10.76171,-0.26172 8.13802,-2.45566 13.06888,4.74322 14.53711,10.08399 0.0839,0.36931 0.16299,0.76345 0.25781,1.0957 h 0.002 2.48828 0.002 c 0.0948,-0.33225 0.17391,-0.72639 0.25781,-1.0957 1.46824,-5.34076 6.3991,-12.53965 14.53711,-10.08399 -3.73106,-2.16149 -7.62031,-1.94838 -10.76562,0.26368 1.99998,-2.4065 5.22911,-4.41113 10.76367,-5.24219 -4.35183,-1.23874 -12.88109,1.55281 -14.71485,8.91601 -1.54736,-8.6559 3.67796,-16.71347 8.82032,-21.33203 -3.85235,2.40391 -8.02324,5.4072 -10.14453,12.86328 -2.12127,-7.45636 -6.29212,-10.45933 -10.14454,-12.86328 z"
         style="fill:#004b00;fill-opacity:1;stroke-width:1.25" />
      <path
         sodipodi:nodetypes="cccccccccccc"
         inkscape:connector-curvature="0"
         id="path1382"
         d="m 269.04015,634.36824 c -9.78358,1.20213 -15.13099,8.77176 -17.00781,18.30078 3.67304,-4.49723 7.4236,-5.49428 13.38672,-4.6914 -8.0004,0.42027 -11.93438,4.57792 -14.00977,9.20898 -0.10127,1.22886 -0.16723,2.47085 -0.16992,3.73047 -1.49674,0 -2.99349,0 -4.49023,0 -0.003,-1.26028 -0.0705,-2.50294 -0.17188,-3.73242 -2.07561,-4.63031 -6.01045,-8.78681 -14.00976,-9.20703 5.96217,-0.80275 9.71423,0.19405 13.38672,4.68945 -1.87719,-9.52806 -7.22298,-17.09679 -17.00586,-18.29883 7.69299,0.228 15.97292,3.71994 20.04492,22.79492 4.072,-19.07498 12.35388,-22.56692 20.04687,-22.79492 z"
         style="fill:#4ec300;fill-opacity:1;stroke-width:1.25" />
    </g>
    <g
       transform="translate(762.58564,188.91882)"
       id="g1390">
      <path
         style="fill:#004b00;fill-opacity:1;stroke-width:1.25"
         d="m 239.84865,632.34285 c 8.12565,8.71339 9.39292,11.40613 8.82031,21.33203 -1.83375,-7.3632 -10.36301,-10.15475 -14.71484,-8.91601 5.53253,0.83076 8.7596,2.83492 10.75976,5.24023 -3.1447,-2.20976 -7.03203,-2.42242 -10.76171,-0.26172 8.13802,-2.45566 13.06888,4.74322 14.53711,10.08399 0.0839,0.36931 0.16299,0.76345 0.25781,1.0957 h 0.002 2.48828 0.002 c 0.0948,-0.33225 0.17391,-0.72639 0.25781,-1.0957 1.46824,-5.34076 6.3991,-12.53965 14.53711,-10.08399 -3.73106,-2.16149 -7.62031,-1.94838 -10.76562,0.26368 1.99998,-2.4065 5.22911,-4.41113 10.76367,-5.24219 -4.35183,-1.23874 -12.88109,1.55281 -14.71485,8.91601 -1.54736,-8.6559 3.67796,-16.71347 8.82032,-21.33203 -3.85235,2.40391 -8.02324,5.4072 -10.14453,12.86328 -2.12127,-7.45636 -6.29212,-10.45933 -10.14454,-12.86328 z"
         id="path1386"
         inkscape:connector-curvature="0"
         sodipodi:nodetypes="cccccccccccccccccc" />
      <path
         style="fill:#4ec300;fill-opacity:1;stroke-width:1.25"
         d="m 269.04015,634.36824 c -9.78358,1.20213 -15.13099,8.77176 -17.00781,18.30078 3.67304,-4.49723 7.4236,-5.49428 13.38672,-4.6914 -8.0004,0.42027 -11.93438,4.57792 -14.00977,9.20898 -0.10127,1.22886 -0.16723,2.47085 -0.16992,3.73047 -1.49674,0 -2.99349,0 -4.49023,0 -0.003,-1.26028 -0.0705,-2.50294 -0.17188,-3.73242 -2.07561,-4.63031 -6.01045,-8.78681 -14.00976,-9.20703 5.96217,-0.80275 9.71423,0.19405 13.38672,4.68945 -1.87719,-9.52806 -7.22298,-17.09679 -17.00586,-18.29883 7.69299,0.228 15.97292,3.71994 20.04492,22.79492 4.072,-19.07498 12.35388,-22.56692 20.04687,-22.79492 z"
         id="path1388"
         inkscape:connector-curvature="0"
         sodipodi:nodetypes="cccccccccccc" />
    </g>
    <g
       id="g1396"
       transform="translate(707.02725,80.832497)">
      <path
         sodipodi:nodetypes="cccccccccccccccccc"
         inkscape:connector-curvature="0"
         id="path1392"
         d="m 239.84865,632.34285 c 8.12565,8.71339 9.39292,11.40613 8.82031,21.33203 -1.83375,-7.3632 -10.36301,-10.15475 -14.71484,-8.91601 5.53253,0.83076 8.7596,2.83492 10.75976,5.24023 -3.1447,-2.20976 -7.03203,-2.42242 -10.76171,-0.26172 8.13802,-2.45566 13.06888,4.74322 14.53711,10.08399 0.0839,0.36931 0.16299,0.76345 0.25781,1.0957 h 0.002 2.48828 0.002 c 0.0948,-0.33225 0.17391,-0.72639 0.25781,-1.0957 1.46824,-5.34076 6.3991,-12.53965 14.53711,-10.08399 -3.73106,-2.16149 -7.62031,-1.94838 -10.76562,0.26368 1.99998,-2.4065 5.22911,-4.41113 10.76367,-5.24219 -4.35183,-1.23874 -12.88109,1.55281 -14.71485,8.91601 -1.54736,-8.6559 3.67796,-16.71347 8.82032,-21.33203 -3.85235,2.40391 -8.02324,5.4072 -10.14453,12.86328 -2.12127,-7.45636 -6.29212,-10.45933 -10.14454,-12.86328 z"
         style="fill:#004b00;fill-opacity:1;stroke-width:1.25" />
      <path
         sodipodi:nodetypes="cccccccccccc"
         inkscape:connector-curvature="0"
         id="path1394"
         d="m 269.04015,634.36824 c -9.78358,1.20213 -15.13099,8.77176 -17.00781,18.30078 3.67304,-4.49723 7.4236,-5.49428 13.38672,-4.6914 -8.0004,0.42027 -11.93438,4.57792 -14.00977,9.20898 -0.10127,1.22886 -0.16723,2.47085 -0.16992,3.73047 -1.49674,0 -2.99349,0 -4.49023,0 -0.003,-1.26028 -0.0705,-2.50294 -0.17188,-3.73242 -2.07561,-4.63031 -6.01045,-8.78681 -14.00976,-9.20703 5.96217,-0.80275 9.71423,0.19405 13.38672,4.68945 -1.87719,-9.52806 -7.22298,-17.09679 -17.00586,-18.29883 7.69299,0.228 15.97292,3.71994 20.04492,22.79492 4.072,-19.07498 12.35388,-22.56692 20.04687,-22.79492 z"
         style="fill:#4ec300;fill-opacity:1;stroke-width:1.25" />
    </g>
    <g
       transform="translate(667.6313,164.67516)"
       id="g1402">
      <path
         style="fill:#004b00;fill-opacity:1;stroke-width:1.25"
         d="m 239.84865,632.34285 c 8.12565,8.71339 9.39292,11.40613 8.82031,21.33203 -1.83375,-7.3632 -10.36301,-10.15475 -14.71484,-8.91601 5.53253,0.83076 8.7596,2.83492 10.75976,5.24023 -3.1447,-2.20976 -7.03203,-2.42242 -10.76171,-0.26172 8.13802,-2.45566 13.06888,4.74322 14.53711,10.08399 0.0839,0.36931 0.16299,0.76345 0.25781,1.0957 h 0.002 2.48828 0.002 c 0.0948,-0.33225 0.17391,-0.72639 0.25781,-1.0957 1.46824,-5.34076 6.3991,-12.53965 14.53711,-10.08399 -3.73106,-2.16149 -7.62031,-1.94838 -10.76562,0.26368 1.99998,-2.4065 5.22911,-4.41113 10.76367,-5.24219 -4.35183,-1.23874 -12.88109,1.55281 -14.71485,8.91601 -1.54736,-8.6559 3.67796,-16.71347 8.82032,-21.33203 -3.85235,2.40391 -8.02324,5.4072 -10.14453,12.86328 -2.12127,-7.45636 -6.29212,-10.45933 -10.14454,-12.86328 z"
         id="path1398"
         inkscape:connector-curvature="0"
         sodipodi:nodetypes="cccccccccccccccccc" />
      <path
         style="fill:#4ec300;fill-opacity:1;stroke-width:1.25"
         d="m 269.04015,634.36824 c -9.78358,1.20213 -15.13099,8.77176 -17.00781,18.30078 3.67304,-4.49723 7.4236,-5.49428 13.38672,-4.6914 -8.0004,0.42027 -11.93438,4.57792 -14.00977,9.20898 -0.10127,1.22886 -0.16723,2.47085 -0.16992,3.73047 -1.49674,0 -2.99349,0 -4.49023,0 -0.003,-1.26028 -0.0705,-2.50294 -0.17188,-3.73242 -2.07561,-4.63031 -6.01045,-8.78681 -14.00976,-9.20703 5.96217,-0.80275 9.71423,0.19405 13.38672,4.68945 -1.87719,-9.52806 -7.22298,-17.09679 -17.00586,-18.29883 7.69299,0.228 15.97292,3.71994 20.04492,22.79492 4.072,-19.07498 12.35388,-22.56692 20.04687,-22.79492 z"
         id="path1400"
         inkscape:connector-curvature="0"
         sodipodi:nodetypes="cccccccccccc" />
    </g>
    <g
       id="g1408"
       transform="translate(991.89027,358.62445)">
      <path
         sodipodi:nodetypes="cccccccccccccccccc"
         inkscape:connector-curvature="0"
         id="path1404"
         d="m 239.84865,632.34285 c 8.12565,8.71339 9.39292,11.40613 8.82031,21.33203 -1.83375,-7.3632 -10.36301,-10.15475 -14.71484,-8.91601 5.53253,0.83076 8.7596,2.83492 10.75976,5.24023 -3.1447,-2.20976 -7.03203,-2.42242 -10.76171,-0.26172 8.13802,-2.45566 13.06888,4.74322 14.53711,10.08399 0.0839,0.36931 0.16299,0.76345 0.25781,1.0957 h 0.002 2.48828 0.002 c 0.0948,-0.33225 0.17391,-0.72639 0.25781,-1.0957 1.46824,-5.34076 6.3991,-12.53965 14.53711,-10.08399 -3.73106,-2.16149 -7.62031,-1.94838 -10.76562,0.26368 1.99998,-2.4065 5.22911,-4.41113 10.76367,-5.24219 -4.35183,-1.23874 -12.88109,1.55281 -14.71485,8.91601 -1.54736,-8.6559 3.67796,-16.71347 8.82032,-21.33203 -3.85235,2.40391 -8.02324,5.4072 -10.14453,12.86328 -2.12127,-7.45636 -6.29212,-10.45933 -10.14454,-12.86328 z"
         style="fill:#004b00;fill-opacity:1;stroke-width:1.25" />
      <path
         sodipodi:nodetypes="cccccccccccc"
         inkscape:connector-curvature="0"
         id="path1406"
         d="m 269.04015,634.36824 c -9.78358,1.20213 -15.13099,8.77176 -17.00781,18.30078 3.67304,-4.49723 7.4236,-5.49428 13.38672,-4.6914 -8.0004,0.42027 -11.93438,4.57792 -14.00977,9.20898 -0.10127,1.22886 -0.16723,2.47085 -0.16992,3.73047 -1.49674,0 -2.99349,0 -4.49023,0 -0.003,-1.26028 -0.0705,-2.50294 -0.17188,-3.73242 -2.07561,-4.63031 -6.01045,-8.78681 -14.00976,-9.20703 5.96217,-0.80275 9.71423,0.19405 13.38672,4.68945 -1.87719,-9.52806 -7.22298,-17.09679 -17.00586,-18.29883 7.69299,0.228 15.97292,3.71994 20.04492,22.79492 4.072,-19.07498 12.35388,-22.56692 20.04687,-22.79492 z"
         style="fill:#4ec300;fill-opacity:1;stroke-width:1.25" />
    </g>
    <g
       transform="translate(936.33188,250.53812)"
       id="g1414">
      <path
         style="fill:#004b00;fill-opacity:1;stroke-width:1.25"
         d="m 239.84865,632.34285 c 8.12565,8.71339 9.39292,11.40613 8.82031,21.33203 -1.83375,-7.3632 -10.36301,-10.15475 -14.71484,-8.91601 5.53253,0.83076 8.7596,2.83492 10.75976,5.24023 -3.1447,-2.20976 -7.03203,-2.42242 -10.76171,-0.26172 8.13802,-2.45566 13.06888,4.74322 14.53711,10.08399 0.0839,0.36931 0.16299,0.76345 0.25781,1.0957 h 0.002 2.48828 0.002 c 0.0948,-0.33225 0.17391,-0.72639 0.25781,-1.0957 1.46824,-5.34076 6.3991,-12.53965 14.53711,-10.08399 -3.73106,-2.16149 -7.62031,-1.94838 -10.76562,0.26368 1.99998,-2.4065 5.22911,-4.41113 10.76367,-5.24219 -4.35183,-1.23874 -12.88109,1.55281 -14.71485,8.91601 -1.54736,-8.6559 3.67796,-16.71347 8.82032,-21.33203 -3.85235,2.40391 -8.02324,5.4072 -10.14453,12.86328 -2.12127,-7.45636 -6.29212,-10.45933 -10.14454,-12.86328 z"
         id="path1410"
         inkscape:connector-curvature="0"
         sodipodi:nodetypes="cccccccccccccccccc" />
      <path
         style="fill:#4ec300;fill-opacity:1;stroke-width:1.25"
         d="m 269.04015,634.36824 c -9.78358,1.20213 -15.13099,8.77176 -17.00781,18.30078 3.67304,-4.49723 7.4236,-5.49428 13.38672,-4.6914 -8.0004,0.42027 -11.93438,4.57792 -14.00977,9.20898 -0.10127,1.22886 -0.16723,2.47085 -0.16992,3.73047 -1.49674,0 -2.99349,0 -4.49023,0 -0.003,-1.26028 -0.0705,-2.50294 -0.17188,-3.73242 -2.07561,-4.63031 -6.01045,-8.78681 -14.00976,-9.20703 5.96217,-0.80275 9.71423,0.19405 13.38672,4.68945 -1.87719,-9.52806 -7.22298,-17.09679 -17.00586,-18.29883 7.69299,0.228 15.97292,3.71994 20.04492,22.79492 4.072,-19.07498 12.35388,-22.56692 20.04687,-22.79492 z"
         id="path1412"
         inkscape:connector-curvature="0"
         sodipodi:nodetypes="cccccccccccc" />
    </g>
    <g
       id="g1420"
       transform="translate(896.93593,334.38079)">
      <path
         sodipodi:nodetypes="cccccccccccccccccc"
         inkscape:connector-curvature="0"
         id="path1416"
         d="m 239.84865,632.34285 c 8.12565,8.71339 9.39292,11.40613 8.82031,21.33203 -1.83375,-7.3632 -10.36301,-10.15475 -14.71484,-8.91601 5.53253,0.83076 8.7596,2.83492 10.75976,5.24023 -3.1447,-2.20976 -7.03203,-2.42242 -10.76171,-0.26172 8.13802,-2.45566 13.06888,4.74322 14.53711,10.08399 0.0839,0.36931 0.16299,0.76345 0.25781,1.0957 h 0.002 2.48828 0.002 c 0.0948,-0.33225 0.17391,-0.72639 0.25781,-1.0957 1.46824,-5.34076 6.3991,-12.53965 14.53711,-10.08399 -3.73106,-2.16149 -7.62031,-1.94838 -10.76562,0.26368 1.99998,-2.4065 5.22911,-4.41113 10.76367,-5.24219 -4.35183,-1.23874 -12.88109,1.55281 -14.71485,8.91601 -1.54736,-8.6559 3.67796,-16.71347 8.82032,-21.33203 -3.85235,2.40391 -8.02324,5.4072 -10.14453,12.86328 -2.12127,-7.45636 -6.29212,-10.45933 -10.14454,-12.86328 z"
         style="fill:#004b00;fill-opacity:1;stroke-width:1.25" />
      <path
         sodipodi:nodetypes="cccccccccccc"
         inkscape:connector-curvature="0"
         id="path1418"
         d="m 269.04015,634.36824 c -9.78358,1.20213 -15.13099,8.77176 -17.00781,18.30078 3.67304,-4.49723 7.4236,-5.49428 13.38672,-4.6914 -8.0004,0.42027 -11.93438,4.57792 -14.00977,9.20898 -0.10127,1.22886 -0.16723,2.47085 -0.16992,3.73047 -1.49674,0 -2.99349,0 -4.49023,0 -0.003,-1.26028 -0.0705,-2.50294 -0.17188,-3.73242 -2.07561,-4.63031 -6.01045,-8.78681 -14.00976,-9.20703 5.96217,-0.80275 9.71423,0.19405 13.38672,4.68945 -1.87719,-9.52806 -7.22298,-17.09679 -17.00586,-18.29883 7.69299,0.228 15.97292,3.71994 20.04492,22.79492 4.072,-19.07498 12.35388,-22.56692 20.04687,-22.79492 z"
         style="fill:#4ec300;fill-opacity:1;stroke-width:1.25" />
    </g>
    <g
       inkscape:export-ydpi="100"
       inkscape:export-xdpi="100"
       transform="matrix(0.49792744,0,0,0.49792744,827.74107,623.47232)"
       id="g1432">
      <path
         style="fill:none;stroke:#005522;stroke-width:5;stroke-linecap:round;stroke-linejoin:miter;stroke-miterlimit:4;stroke-dasharray:none;stroke-opacity:1"
         d="m 297.41855,604.40928 c 10.61001,21.62571 15.08924,43.54336 1.72236,66.31083"
         id="path1422"
         inkscape:connector-curvature="0"
         sodipodi:nodetypes="cc" />
      <path
         style="fill:#00ccff;fill-rule:evenodd;stroke:none;stroke-width:1;stroke-linecap:round;stroke-linejoin:miter;stroke-miterlimit:4;stroke-dasharray:none;stroke-opacity:1"
         d="m 299.9976,598.88337 c 0,57.55388 57.55388,0 0,0 -57.55387,0 0,57.55388 0,0 0,-57.55387 -57.55387,0 0,0 57.55388,0 0,-57.55387 0,0 z"
         id="path1424"
         inkscape:connector-curvature="0"
         sodipodi:nodetypes="sssss" />
      <ellipse
         style="fill:url(#radialGradient1434);fill-opacity:1;fill-rule:evenodd;stroke:none;stroke-width:1px;stroke-linecap:round;stroke-linejoin:miter;stroke-opacity:1"
         id="ellipse1426"
         transform="translate(257.80429,457.1349)"
         cx="41.767212"
         cy="141.78435"
         rx="7.5353217"
         ry="7.4276743" />
      <ellipse
         style="fill:#00aa44;fill-opacity:1;fill-rule:evenodd;stroke:#008033;stroke-width:1px;stroke-linecap:round;stroke-linejoin:miter;stroke-opacity:1"
         id="ellipse1428"
         transform="rotate(53.973612,-199.47861,549.87189)"
         inkscape:transform-center-y="-10.044384"
         inkscape:transform-center-x="-13.811532"
         cx="181.92419"
         cy="185.38158"
         rx="4.521193"
         ry="16.577707" />
      <ellipse
         inkscape:transform-center-x="13.811531"
         inkscape:transform-center-y="-10.044384"
         transform="matrix(-0.58815779,0.8087462,0.8087462,0.58815779,246.49346,395.10805)"
         id="ellipse1430"
         style="fill:#00aa44;fill-opacity:1;fill-rule:evenodd;stroke:#008033;stroke-width:1px;stroke-linecap:round;stroke-linejoin:miter;stroke-opacity:1"
         cx="181.92419"
         cy="185.38158"
         rx="4.521193"
         ry="16.577707" />
    </g>
    <g
       id="g1446"
       transform="matrix(0.49792744,0,0,0.49792744,610.55827,487.10173)"
       inkscape:export-xdpi="100"
       inkscape:export-ydpi="100">
      <path
         sodipodi:nodetypes="cc"
         inkscape:connector-curvature="0"
         id="path1436"
         d="m 297.41855,604.40928 c 10.61001,21.62571 15.08924,43.54336 1.72236,66.31083"
         style="fill:none;stroke:#005522;stroke-width:5;stroke-linecap:round;stroke-linejoin:miter;stroke-miterlimit:4;stroke-dasharray:none;stroke-opacity:1" />
      <path
         sodipodi:nodetypes="sssss"
         inkscape:connector-curvature="0"
         id="path1438"
         d="m 299.9976,598.88337 c 0,57.55388 57.55388,0 0,0 -57.55387,0 0,57.55388 0,0 0,-57.55387 -57.55387,0 0,0 57.55388,0 0,-57.55387 0,0 z"
         style="fill:#00ccff;fill-rule:evenodd;stroke:none;stroke-width:1;stroke-linecap:round;stroke-linejoin:miter;stroke-miterlimit:4;stroke-dasharray:none;stroke-opacity:1" />
      <ellipse
         ry="7.4276743"
         rx="7.5353217"
         cy="141.78435"
         cx="41.767212"
         transform="translate(257.80429,457.1349)"
         id="ellipse1440"
         style="fill:url(#radialGradient1448);fill-opacity:1;fill-rule:evenodd;stroke:none;stroke-width:1px;stroke-linecap:round;stroke-linejoin:miter;stroke-opacity:1" />
      <ellipse
         ry="16.577707"
         rx="4.521193"
         cy="185.38158"
         cx="181.92419"
         inkscape:transform-center-x="-13.811532"
         inkscape:transform-center-y="-10.044384"
         transform="rotate(53.973612,-199.47861,549.87189)"
         id="ellipse1442"
         style="fill:#00aa44;fill-opacity:1;fill-rule:evenodd;stroke:#008033;stroke-width:1px;stroke-linecap:round;stroke-linejoin:miter;stroke-opacity:1" />
      <ellipse
         ry="16.577707"
         rx="4.521193"
         cy="185.38158"
         cx="181.92419"
         style="fill:#00aa44;fill-opacity:1;fill-rule:evenodd;stroke:#008033;stroke-width:1px;stroke-linecap:round;stroke-linejoin:miter;stroke-opacity:1"
         id="ellipse1444"
         transform="matrix(-0.58815779,0.8087462,0.8087462,0.58815779,246.49346,395.10805)"
         inkscape:transform-center-y="-10.044384"
         inkscape:transform-center-x="13.811531" />
    </g>
    <g
       inkscape:export-ydpi="100"
       inkscape:export-xdpi="100"
       transform="matrix(0.49792744,0,0,0.49792744,466.10646,652.76675)"
       id="g1460">
      <path
         style="fill:none;stroke:#005522;stroke-width:5;stroke-linecap:round;stroke-linejoin:miter;stroke-miterlimit:4;stroke-dasharray:none;stroke-opacity:1"
         d="m 297.41855,604.40928 c 10.61001,21.62571 15.08924,43.54336 1.72236,66.31083"
         id="path1450"
         inkscape:connector-curvature="0"
         sodipodi:nodetypes="cc" />
      <path
         style="fill:#00ccff;fill-rule:evenodd;stroke:none;stroke-width:1;stroke-linecap:round;stroke-linejoin:miter;stroke-miterlimit:4;stroke-dasharray:none;stroke-opacity:1"
         d="m 299.9976,598.88337 c 0,57.55388 57.55388,0 0,0 -57.55387,0 0,57.55388 0,0 0,-57.55387 -57.55387,0 0,0 57.55388,0 0,-57.55387 0,0 z"
         id="path1452"
         inkscape:connector-curvature="0"
         sodipodi:nodetypes="sssss" />
      <ellipse
         style="fill:url(#radialGradient1462);fill-opacity:1;fill-rule:evenodd;stroke:none;stroke-width:1px;stroke-linecap:round;stroke-linejoin:miter;stroke-opacity:1"
         id="ellipse1454"
         transform="translate(257.80429,457.1349)"
         cx="41.767212"
         cy="141.78435"
         rx="7.5353217"
         ry="7.4276743" />
      <ellipse
         style="fill:#00aa44;fill-opacity:1;fill-rule:evenodd;stroke:#008033;stroke-width:1px;stroke-linecap:round;stroke-linejoin:miter;stroke-opacity:1"
         id="ellipse1456"
         transform="rotate(53.973612,-199.47861,549.87189)"
         inkscape:transform-center-y="-10.044384"
         inkscape:transform-center-x="-13.811532"
         cx="181.92419"
         cy="185.38158"
         rx="4.521193"
         ry="16.577707" />
      <ellipse
         inkscape:transform-center-x="13.811531"
         inkscape:transform-center-y="-10.044384"
         transform="matrix(-0.58815779,0.8087462,0.8087462,0.58815779,246.49346,395.10805)"
         id="ellipse1458"
         style="fill:#00aa44;fill-opacity:1;fill-rule:evenodd;stroke:#008033;stroke-width:1px;stroke-linecap:round;stroke-linejoin:miter;stroke-opacity:1"
         cx="181.92419"
         cy="185.38158"
         rx="4.521193"
         ry="16.577707" />
    </g>
    <g
       id="g1474"
       transform="matrix(0.49792744,0,0,0.49792744,180.23329,412.35045)"
       inkscape:export-xdpi="100"
       inkscape:export-ydpi="100">
      <path
         sodipodi:nodetypes="cc"
         inkscape:connector-curvature="0"
         id="path1464"
         d="m 297.41855,604.40928 c 10.61001,21.62571 15.08924,43.54336 1.72236,66.31083"
         style="fill:none;stroke:#005522;stroke-width:5;stroke-linecap:round;stroke-linejoin:miter;stroke-miterlimit:4;stroke-dasharray:none;stroke-opacity:1" />
      <path
         sodipodi:nodetypes="sssss"
         inkscape:connector-curvature="0"
         id="path1466"
         d="m 299.9976,598.88337 c 0,57.55388 57.55388,0 0,0 -57.55387,0 0,57.55388 0,0 0,-57.55387 -57.55387,0 0,0 57.55388,0 0,-57.55387 0,0 z"
         style="fill:#00ccff;fill-rule:evenodd;stroke:none;stroke-width:1;stroke-linecap:round;stroke-linejoin:miter;stroke-miterlimit:4;stroke-dasharray:none;stroke-opacity:1" />
      <ellipse
         ry="7.4276743"
         rx="7.5353217"
         cy="141.78435"
         cx="41.767212"
         transform="translate(257.80429,457.1349)"
         id="ellipse1468"
         style="fill:url(#radialGradient1476);fill-opacity:1;fill-rule:evenodd;stroke:none;stroke-width:1px;stroke-linecap:round;stroke-linejoin:miter;stroke-opacity:1" />
      <ellipse
         ry="16.577707"
         rx="4.521193"
         cy="185.38158"
         cx="181.92419"
         inkscape:transform-center-x="-13.811532"
         inkscape:transform-center-y="-10.044384"
         transform="rotate(53.973612,-199.47861,549.87189)"
         id="ellipse1470"
         style="fill:#00aa44;fill-opacity:1;fill-rule:evenodd;stroke:#008033;stroke-width:1px;stroke-linecap:round;stroke-linejoin:miter;stroke-opacity:1" />
      <ellipse
         ry="16.577707"
         rx="4.521193"
         cy="185.38158"
         cx="181.92419"
         style="fill:#00aa44;fill-opacity:1;fill-rule:evenodd;stroke:#008033;stroke-width:1px;stroke-linecap:round;stroke-linejoin:miter;stroke-opacity:1"
         id="ellipse1472"
         transform="matrix(-0.58815779,0.8087462,0.8087462,0.58815779,246.49346,395.10805)"
         inkscape:transform-center-y="-10.044384"
         inkscape:transform-center-x="13.811531" />
    </g>
    <g
       inkscape:export-ydpi="100"
       inkscape:export-xdpi="100"
       transform="matrix(0.49792744,0,0,0.49792744,-1.5941668,415.38091)"
       id="g1488">
      <path
         style="fill:none;stroke:#005522;stroke-width:5;stroke-linecap:round;stroke-linejoin:miter;stroke-miterlimit:4;stroke-dasharray:none;stroke-opacity:1"
         d="m 297.41855,604.40928 c 10.61001,21.62571 15.08924,43.54336 1.72236,66.31083"
         id="path1478"
         inkscape:connector-curvature="0"
         sodipodi:nodetypes="cc" />
      <path
         style="fill:#00ccff;fill-rule:evenodd;stroke:none;stroke-width:1;stroke-linecap:round;stroke-linejoin:miter;stroke-miterlimit:4;stroke-dasharray:none;stroke-opacity:1"
         d="m 299.9976,598.88337 c 0,57.55388 57.55388,0 0,0 -57.55387,0 0,57.55388 0,0 0,-57.55387 -57.55387,0 0,0 57.55388,0 0,-57.55387 0,0 z"
         id="path1480"
         inkscape:connector-curvature="0"
         sodipodi:nodetypes="sssss" />
      <ellipse
         style="fill:url(#radialGradient1490);fill-opacity:1;fill-rule:evenodd;stroke:none;stroke-width:1px;stroke-linecap:round;stroke-linejoin:miter;stroke-opacity:1"
         id="ellipse1482"
         transform="translate(257.80429,457.1349)"
         cx="41.767212"
         cy="141.78435"
         rx="7.5353217"
         ry="7.4276743" />
      <ellipse
         style="fill:#00aa44;fill-opacity:1;fill-rule:evenodd;stroke:#008033;stroke-width:1px;stroke-linecap:round;stroke-linejoin:miter;stroke-opacity:1"
         id="ellipse1484"
         transform="rotate(53.973612,-199.47861,549.87189)"
         inkscape:transform-center-y="-10.044384"
         inkscape:transform-center-x="-13.811532"
         cx="181.92419"
         cy="185.38158"
         rx="4.521193"
         ry="16.577707" />
      <ellipse
         inkscape:transform-center-x="13.811531"
         inkscape:transform-center-y="-10.044384"
         transform="matrix(-0.58815779,0.8087462,0.8087462,0.58815779,246.49346,395.10805)"
         id="ellipse1486"
         style="fill:#00aa44;fill-opacity:1;fill-rule:evenodd;stroke:#008033;stroke-width:1px;stroke-linecap:round;stroke-linejoin:miter;stroke-opacity:1"
         cx="181.92419"
         cy="185.38158"
         rx="4.521193"
         ry="16.577707" />
    </g>
    <g
       id="g1502"
       transform="matrix(0.49792744,0,0,0.49792744,2.4464434,580.03577)"
       inkscape:export-xdpi="100"
       inkscape:export-ydpi="100">
      <path
         sodipodi:nodetypes="cc"
         inkscape:connector-curvature="0"
         id="path1492"
         d="m 297.41855,604.40928 c 10.61001,21.62571 15.08924,43.54336 1.72236,66.31083"
         style="fill:none;stroke:#005522;stroke-width:5;stroke-linecap:round;stroke-linejoin:miter;stroke-miterlimit:4;stroke-dasharray:none;stroke-opacity:1" />
      <path
         sodipodi:nodetypes="sssss"
         inkscape:connector-curvature="0"
         id="path1494"
         d="m 299.9976,598.88337 c 0,57.55388 57.55388,0 0,0 -57.55387,0 0,57.55388 0,0 0,-57.55387 -57.55387,0 0,0 57.55388,0 0,-57.55387 0,0 z"
         style="fill:#00ccff;fill-rule:evenodd;stroke:none;stroke-width:1;stroke-linecap:round;stroke-linejoin:miter;stroke-miterlimit:4;stroke-dasharray:none;stroke-opacity:1" />
      <ellipse
         ry="7.4276743"
         rx="7.5353217"
         cy="141.78435"
         cx="41.767212"
         transform="translate(257.80429,457.1349)"
         id="ellipse1496"
         style="fill:url(#radialGradient1504);fill-opacity:1;fill-rule:evenodd;stroke:none;stroke-width:1px;stroke-linecap:round;stroke-linejoin:miter;stroke-opacity:1" />
      <ellipse
         ry="16.577707"
         rx="4.521193"
         cy="185.38158"
         cx="181.92419"
         inkscape:transform-center-x="-13.811532"
         inkscape:transform-center-y="-10.044384"
         transform="rotate(53.973612,-199.47861,549.87189)"
         id="ellipse1498"
         style="fill:#00aa44;fill-opacity:1;fill-rule:evenodd;stroke:#008033;stroke-width:1px;stroke-linecap:round;stroke-linejoin:miter;stroke-opacity:1" />
      <ellipse
         ry="16.577707"
         rx="4.521193"
         cy="185.38158"
         cx="181.92419"
         style="fill:#00aa44;fill-opacity:1;fill-rule:evenodd;stroke:#008033;stroke-width:1px;stroke-linecap:round;stroke-linejoin:miter;stroke-opacity:1"
         id="ellipse1500"
         transform="matrix(-0.58815779,0.8087462,0.8087462,0.58815779,246.49346,395.10805)"
         inkscape:transform-center-y="-10.044384"
         inkscape:transform-center-x="13.811531" />
    </g>
  </g>
  <g
     inkscape:groupmode="layer"
     id="layer3"
     inkscape:label="vache"
     sodipodi:insensitive="true">
    <path
       transform="translate(-5.4679691,-327.11599)"
       inkscape:connector-curvature="0"
       id="path13705-7"
       style="fill:#803300;stroke:#000000;stroke-width:0.62499899;stroke-linecap:butt;stroke-linejoin:miter;stroke-miterlimit:4;stroke-dasharray:none;stroke-opacity:1"
       d="m 481.00968,930.11582 c 0.6171,-2.3674 0.61978,-5.7372 0.61978,-5.7372 0,0 3.37676,-2.6565 3.43407,-3.4724 -0.14918,-1.0568 -1.51925,-3.4923 -0.81965,-4.4652 0.45628,-0.961 7.23228,-17.7977 7.13532,-19.8733 -1.1739,-9.2031 -1.70115,-22.4436 -1.70115,-22.4436 l -21.25975,1.3428 c 0,0 11.78934,5.8175 12.12398,26.7383 0.19011,6.4625 -2.08422,13.5809 -3.431,15.787 0,0 -1.37698,6.0618 -3.24308,7.3676 0,0 -1.04505,1.9461 -2.20613,4.0129 z" />
    <g
       id="g2034"
       style="stroke:#e9afaf"
       transform="matrix(1.3869994,0,0,1.3869994,-648.78871,-527.60245)"
       inkscape:label="#g969">
      <path
         style="opacity:1;fill:#e3beb8;fill-opacity:1;stroke:#e9afaf;stroke-width:1.10000002;stroke-linecap:butt;stroke-linejoin:round;stroke-miterlimit:4;stroke-dasharray:none;paint-order:markers fill stroke"
         d="m 803.71851,786.9352 1.75529,3.8702 c -0.0479,1.46823 -1.63201,1.78572 -2.53197,1.18396 l -1.22024,-3.51841"
         id="path2024"
         inkscape:connector-curvature="0"
         sodipodi:nodetypes="cccc" />
      <path
         sodipodi:nodetypes="cccc"
         inkscape:connector-curvature="0"
         id="path2026"
         d="m 794.23439,786.68322 -1.75529,3.8702 c 0.0479,1.46823 1.63202,1.78572 2.53197,1.18396 l 1.22024,-3.51841"
         style="opacity:1;fill:#e3beb8;fill-opacity:1;stroke:#e9afaf;stroke-width:1.10000002;stroke-linecap:butt;stroke-linejoin:round;stroke-miterlimit:4;stroke-dasharray:none;paint-order:markers fill stroke" />
      <path
         sodipodi:nodetypes="cscc"
         inkscape:connector-curvature="0"
         id="path2028"
         d="m 824.43008,764.70796 c -3.63257,7.94603 -1.52304,17.57851 -12.7753,23.58772 -8.40108,4.48655 -22.15667,1.2201 -26.86709,-2.76573 -2.88759,-3.89011 -5.20261,-11.91876 -7.11187,-16.29804"
         style="opacity:1;fill:#e3beb8;fill-opacity:1;stroke:#e9afaf;stroke-width:1.10000002;stroke-linecap:butt;stroke-linejoin:round;stroke-miterlimit:4;stroke-dasharray:none;paint-order:markers fill stroke" />
      <path
         sodipodi:nodetypes="cccc"
         inkscape:connector-curvature="0"
         id="path2030"
         d="m 809.79416,787.24543 0.75594,5.24118 c -0.54063,1.74435 -2.48177,1.58361 -3.32613,0.55435 l -0.25198,-4.63642"
         style="opacity:1;fill:#e3beb8;fill-opacity:1;stroke:#e9afaf;stroke-width:1.10000002;stroke-linecap:butt;stroke-linejoin:round;stroke-miterlimit:4;stroke-dasharray:none;paint-order:markers fill stroke" />
      <path
         style="opacity:1;fill:#e3beb8;fill-opacity:1;stroke:#e9afaf;stroke-width:1.10000002;stroke-linecap:butt;stroke-linejoin:round;stroke-miterlimit:4;stroke-dasharray:none;paint-order:markers fill stroke"
         d="m 797.90153,787.6486 -0.75594,5.24118 c 0.54063,1.74434 2.48177,1.58361 3.32613,0.55435 l 0.25198,-4.63642"
         id="path2032"
         inkscape:connector-curvature="0"
         sodipodi:nodetypes="cccc" />
    </g>
    <path
       transform="translate(-5.4679691,-327.11599)"
       sodipodi:nodetypes="cccccccc"
       inkscape:transform-center-y="29.336951"
       inkscape:transform-center-x="-2.7677264"
       inkscape:connector-curvature="0"
       id="path2038"
       d="m 362.29543,896.80909 c -9.7484,9.96092 -4.6328,22.85205 -6.1481,34.85588 -6.43971,8.99039 -1.16521,21.56699 -4.2462,28.22469 5.13459,7.7112 -4.1701,3.9446 -8.9747,3.9007 -12.3541,-0.2248 0.4456,-11.8127 -0.5981,-18.4084 2.6073,-13.16229 -3.9542,-26.16057 -1.7144,-39.59632 -0.2848,-6.6957 -3.9731,-11.018 -8.4494,-14.86143 -8.5872,-50.47096 38.5819,-35.69195 30.1309,5.88488 z"
       style="fill:#aa4400;stroke:#aa4400;stroke-width:0.8668732;stroke-linecap:butt;stroke-linejoin:miter;stroke-miterlimit:4;stroke-dasharray:none;stroke-opacity:1" />
    <path
       transform="translate(-5.4679691,-327.11599)"
       inkscape:transform-center-y="38.195639"
       inkscape:transform-center-x="-0.80413064"
       sodipodi:nodetypes="ccccccccc"
       inkscape:connector-curvature="0"
       id="path2040"
       d="m 522.67422,863.90894 c -11.7037,5.81972 -10.9012,23.68623 -7.9163,34.44617 3.97231,11.12816 -2.36619,25.23708 -0.9271,37.72862 0.7972,6.24703 2.69651,11.35323 -1.5045,12.96293 4.86981,10.1625 -4.88249,4.4734 -10.1047,3.6446 -3.92369,-3.2441 7.99831,-14.1635 3.7007,-21.61672 0.5004,-13.41331 -1.86969,-27.3126 -13.24139,-35.83534 -5.5059,-8.86044 -5.9071,-19.26088 -18.8172,-19.46591 -8.15841,-58.09974 46.74259,-57.81718 48.81049,-11.86435 z"
       style="fill:#aa4400;stroke:#aa4400;stroke-width:0.8668732;stroke-linecap:butt;stroke-linejoin:miter;stroke-miterlimit:4;stroke-dasharray:none;stroke-opacity:1" />
    <path
       transform="translate(-5.4679691,-327.11599)"
       inkscape:connector-curvature="0"
       id="path13709-1"
       style="fill:#803300;stroke:#803300;stroke-width:0.66539609;stroke-linecap:butt;stroke-linejoin:miter;stroke-miterlimit:4;stroke-dasharray:none;stroke-opacity:1"
       d="m 363.73245,904.82949 3.54364,13.57655 c 0,0 -1.69292,1.67553 3.50289,6.22376 1.62934,1.6389 5.26235,7.79004 4.72582,11.59994 -0.53216,4.30302 -3.44575,10.00072 -2.37055,10.34902 2.48985,0.7973 11.07682,0.375 11.45299,-1.2011 0.93122,-3.0973 -2.41752,-3.6788 -1.8453,-5.0259 0.61257,-1.2154 2.37535,-0.39 1.78892,-2.6459 -0.39735,-2.34507 -2.76848,-2.27385 -3.45598,-5.26675 -0.7547,-2.85716 -1.13804,-8.4844 -1.10725,-9.53892 -0.0952,-1.04835 -0.11475,-4.4012 -0.61619,-6.04553 -0.64707,-1.47729 -3.13697,-5.2823 -3.13697,-5.2823 l -3.10278,-24.15072 -16.08168,4.62573 z" />
    <path
       transform="translate(-5.4679691,-327.11599)"
       inkscape:connector-curvature="0"
       id="path2058"
       style="fill:#000000;fill-opacity:1;fill-rule:nonzero;stroke:none;stroke-width:1.73374915"
       d="m 542.28072,870.40807 c 0.066,-1.47425 -0.7055,-8.38032 -1.3814,-11.18046 -0.4882,-3.21763 0.2515,-5.85765 0.3829,-9.18398 0.3941,-3.64333 0.314,-16.33276 0.7862,-17.95232 0.225,-1.88573 -1.176,-30.45827 -1.7117,-34.91045 -0.7557,-4.16311 -5.3337,-6.82068 -5.3337,-6.82068 0,0 2.61,24.45141 2.4004,31.96048 0.065,7.25318 1.7068,16.39324 0.2691,22.48319 -1.4323,6.20215 -0.9352,7.47966 -0.097,15.00237 0.7495,7.1546 1.9348,13.60586 1.9803,14.9005 0,0 0.082,1.30286 -0.5459,5.85915 -0.6799,4.18642 -2.1591,0.56955 0.3669,7.48081 2.5042,7.16272 2.3717,8.9056 1.4832,13.25847 -0.8721,3.97921 -1.043,4.21714 -1.043,4.21714 0,0 3.7274,-7.35619 3.5448,-12.67179 0,0 -0.015,-3.13666 -0.5991,-3.72003 -0.3455,-0.67295 3.114,3.49757 2.9012,8.18974 0,0 -0.8509,9.02944 0.9658,11.20084 1.4477,2.44152 2.6973,4.03374 2.6973,4.03374 0,0 -1.8103,-4.16846 -1.5729,-6.58847 0.3956,-2.38401 1.3772,-5.89992 1.3772,-5.89992 0,0 0.5226,3.22428 0.2241,4.57161 -0.4182,1.72606 -0.2322,3.76078 -0.2322,3.76078 0,0 1.2401,0.49911 1.5401,-2.5751 0.7017,-3.04975 1.4384,-4.65312 1.4384,-4.65312 l 0.5174,2.05762 c 0,0 2.1342,-2.14057 1.8947,-3.84229 -0.3637,-1.73981 0.4434,-7.42139 -2.7098,-12.78173 -3.4593,-5.59779 -4.046,-6.05061 -4.046,-6.05061 0,0 3.9506,2.67542 4.3394,3.53662 0.5825,1.2604 -0.2577,-2.60402 -1.4098,-3.26366 -1.0972,-0.96646 -2.2117,-1.56296 -4.3395,-3.53664 -2.4142,-2.1421 -3.8191,-4.24411 -4.0868,-6.88181" />
    <g
       transform="translate(-5.4679691,-327.11599)"
       id="g1290">
      <path
         style="fill:#aa4400;fill-opacity:1;stroke:#aa4400;stroke-width:0.8668732;stroke-linecap:butt;stroke-linejoin:miter;stroke-miterlimit:4;stroke-dasharray:none;stroke-opacity:1"
         d="m 473.68632,875.42062 c -9.9105,-0.82041 -19.32119,5.38825 -27.8745,9.75673 -13.1467,4.6568 -26.4093,3.93715 -40.1987,2.38783 -15.0341,-1.25598 -31.1193,1.11159 -43.7811,9.64523 l -30.0015,-6.51223 c -6.2388,-5.58715 -14.0849,-10.24275 -15.9456,-19.22846 -2.8217,-13.55664 -22.03037,-18.18466 -27.09557,-30.83776 4.68611,-34.2504 1.88499,-39.18777 18.25524,-62.9236 19.7044,6.57355 43.97113,0.82189 64.12873,3.79621 15.004,1.95527 29.8809,5.09957 45.1073,4.19238 16.4131,0.21279 33.0495,1.33131 49.0425,-3.15912 18.69761,-2.33322 38.4489,-8.3562 56.91751,-1.96519 15.65049,5.14703 16.89319,22.53514 15.22379,36.31746 -1.4304,16.37622 -4.3163,33.78527 -14.7912,47.02149 z"
         id="path2042"
         inkscape:connector-curvature="0"
         sodipodi:nodetypes="ccccccccccccccc" />
      <path
         style="fill:#ffccaa;fill-opacity:1;fill-rule:nonzero;stroke:none;stroke-width:1.73374915"
         d="m 525.19662,852.88516 c 3.8532,-15.95221 9.8703,-31.98039 8.1618,-48.65984 -2.003,-25.30217 -25.1832,-9.10302 -49.9001,-23.745 -5.64999,2.49797 -11.1422,10.79748 -9.1789,17.05655 -9.1563,13.46545 -24.618,16.98495 -7.7138,30.12994 20.04091,-7.19489 35.2381,-8.81394 23.3608,17.63893 13.62401,13.47079 22.3777,-19.12759 35.2695,7.57938"
         id="path2060"
         inkscape:connector-curvature="0"
         sodipodi:nodetypes="ccccccc" />
      <path
         sodipodi:nodetypes="ccccccc"
         inkscape:connector-curvature="0"
         id="path2062"
         d="m 398.92755,808.76459 c 3.8532,15.95221 9.8703,31.98039 8.1618,48.65984 -2.003,25.30217 -25.1832,9.10302 -49.9001,23.745 -5.65,-2.49797 -11.1422,-10.79748 -9.1789,-17.05655 -9.1563,-13.46545 -24.618,-16.98495 -7.7138,-30.12994 20.0409,7.19489 35.2381,8.81394 23.3608,-17.63893 13.624,-13.47079 22.3777,19.12759 35.2695,-7.57938"
         style="fill:#ffccaa;fill-opacity:1;fill-rule:nonzero;stroke:none;stroke-width:1.73374915" />
    </g>
    <g
       id="g2078"
       inkscape:transform-center-x="15.072592"
       inkscape:transform-center-y="19.524176"
       transform="rotate(-44.175405,352.3008,628.04222)">
      <g
         id="g2020"
         transform="matrix(1.3869994,0,0,1.3869994,-692.47915,-34.230638)">
        <path
           style="fill:#aa4400;stroke:#000000;stroke-width:0.62499899;stroke-linecap:butt;stroke-linejoin:miter;stroke-miterlimit:4;stroke-dasharray:none;stroke-opacity:1"
           d="m 744.20251,369.3297 c 1.02168,-1.73577 1.20159,-3.87129 2.48605,-5.46974 1.25727,-1.93121 3.00169,-3.55971 5.06453,-4.59919 2.63498,-0.38223 4.61952,-1.25424 7.10225,-0.79347 1.04333,0.30851 2.24795,0.66227 2.98715,1.49413 0.15746,0.80186 -0.96595,1.02239 -1.08331,1.78463 -0.22417,1.82292 1.00174,3.36373 -0.19425,4.92412 -1.25722,2.97825 -4.31092,4.77466 -6.36633,5.74222 -0.91659,-0.12854 -1.97395,0.0103 -2.58531,0.77987 -0.88054,0.73179 -2.10926,0.97121 -3.2177,0.73371 -0.62972,0.0573 -1.22291,0.29986 -1.84577,0.39467"
           id="path2018"
           inkscape:connector-curvature="0"
           sodipodi:nodetypes="ccccccccccc" />
      </g>
      <path
         style="display:inline;fill:#552200;fill-opacity:1;stroke:none;stroke-width:1.90806901px;stroke-linecap:butt;stroke-linejoin:miter;stroke-opacity:1"
         d="m 349.48128,475.6351 c -5.7399,-1.62673 -5.7007,-10.02926 -7.7315,-16.00481 -2.9839,5.50758 -5.0726,8.29908 -3.4333,17.74982 4.4932,6.69718 8.8281,6.7203 13.1737,7.19148 0.1138,-4.2158 0.2064,-8.39992 -2.0089,-8.93649 z"
         id="path2022"
         inkscape:connector-curvature="0"
         sodipodi:nodetypes="ccccc"
         inkscape:transform-center-x="6.4266131"
         inkscape:transform-center-y="-8.9656923" />
      <path
         style="fill:#aa4400;stroke:#aa4400;stroke-width:0.8668732;stroke-linecap:butt;stroke-linejoin:miter;stroke-miterlimit:4;stroke-dasharray:none;stroke-opacity:1"
         d="m 372.27718,546.91967 c -7.6919,-8.55012 -19.6781,-7.8396 -28.2364,-6.33059 -8.0594,-2.65571 -13.826,-2.44246 -20.6139,3.76159 -10.5448,-0.17213 -18.9656,-13.11288 -7.0121,-20.49583 8.5562,-7.86984 10.8543,-18.65344 15.5544,-28.27346 5.7483,-3.93731 4.4334,-10.96377 9.271,-14.4345 4.7786,-0.17823 6.5164,-0.20135 10.0373,0.52828 9.8418,0.47508 74.74097,-16.31669 85.88427,-16.04098 25.0799,15.00076 -46.32337,80.75044 -64.88457,81.28543 z"
         id="path2036"
         inkscape:connector-curvature="0"
         sodipodi:nodetypes="cccccccccc"
         inkscape:transform-center-x="32.940391"
         inkscape:transform-center-y="-9.1243334" />
      <path
         inkscape:connector-curvature="0"
         id="path2044"
         style="fill:#d38d5f;stroke:#aa4400;stroke-width:0.8668732;stroke-linecap:butt;stroke-linejoin:miter;stroke-miterlimit:4;stroke-dasharray:none;stroke-opacity:1"
         d="m 330.12448,545.56081 c 0,0 1.2079,1.40138 2.9267,0.78128 1.7325,-0.30822 3.9004,-0.34603 5.3795,-1.75849 1.0757,-1.23313 2.3305,-3.85604 4.5111,-3.82415 2.152,-0.10749 4.9198,-4.24747 4.9198,-4.24747 l -4.2039,-2.42362 z"
         inkscape:transform-center-x="1.9810546"
         inkscape:transform-center-y="3.1722078" />
      <g
         id="g2050"
         transform="matrix(1.3869994,0,0,1.3869994,-687.52559,-29.772418)">
        <path
           sodipodi:nodetypes="ccccccccccc"
           inkscape:connector-curvature="0"
           id="path2046"
           d="m 744.20251,369.3297 c 1.02168,-1.73577 1.20159,-3.87129 2.48605,-5.46974 1.25727,-1.93121 3.00169,-3.55971 5.06453,-4.59919 2.63498,-0.38223 4.61952,-1.25424 7.10225,-0.79347 1.04333,0.30851 2.24795,0.66227 2.98715,1.49413 0.15746,0.80186 -0.96595,1.02239 -1.08331,1.78463 -0.22417,1.82292 1.00174,3.36373 -0.19425,4.92412 -1.25722,2.97825 -4.31092,4.77466 -6.36633,5.74222 -0.91659,-0.12854 -1.97395,0.0103 -2.58531,0.77987 -0.88054,0.73179 -2.10926,0.97121 -3.2177,0.73371 -0.62972,0.0573 -1.22291,0.29986 -1.84577,0.39467"
           style="fill:#aa4400;stroke:#000000;stroke-width:0.62499899;stroke-linecap:butt;stroke-linejoin:miter;stroke-miterlimit:4;stroke-dasharray:none;stroke-opacity:1" />
        <path
           style="fill:#aa4400;stroke:#000000;stroke-width:0.40994772;stroke-linecap:butt;stroke-linejoin:miter;stroke-miterlimit:4;stroke-dasharray:none;stroke-opacity:1"
           d="m 747.5027,368.29616 c 0.67014,-1.13852 0.78815,-2.53925 1.63065,-3.5877 0.82466,-1.26671 1.96886,-2.33487 3.32191,-3.01669 1.72833,-0.25071 3.03003,-0.82267 4.65849,-0.52045 0.68434,0.20236 1.47447,0.4344 1.95933,0.98003 0.10328,0.52595 -0.63359,0.6706 -0.71057,1.17057 -0.14703,1.19568 0.65706,2.20633 -0.12741,3.22981 -0.82463,1.95349 -2.82761,3.13179 -4.17579,3.76643 -0.6012,-0.0843 -1.29474,0.007 -1.69575,0.51153 -0.57756,0.47999 -1.3835,0.63703 -2.11054,0.48125 -0.41305,0.0376 -0.80213,0.19668 -1.21067,0.25887"
           id="path2048"
           inkscape:connector-curvature="0"
           sodipodi:nodetypes="ccccccccccc" />
      </g>
      <path
         style="display:inline;fill:#d38d5f;stroke:#d38d5f;stroke-width:0.51174796px;stroke-linecap:butt;stroke-linejoin:miter;stroke-opacity:1"
         d="m 338.17479,488.49948 c -3.10482,5.63278 -7.41799,12.54842 -2.81227,18.65267 1.25591,5.73316 9.58983,2.5288 9.87002,8.23767 -1.5758,3.16148 3.04779,11.9609 4.79176,5.6499 0.0979,-5.18049 8.40304,-0.0721 7.14129,-6.39029 -2.03834,-4.46206 3.09685,-9.86398 0.24386,-13.37251 -2.69139,-0.0499 -4.64427,8.71437 -4.40546,1.98253 -1.74284,-3.82727 -8.43431,-3.4191 -7.61946,-8.93729 -1.39278,-2.91893 -4.39416,-4.54377 -7.20974,-5.82268 z"
         id="path2052"
         inkscape:connector-curvature="0" />
      <path
         style="opacity:1;fill:#ffffff;fill-opacity:1;stroke:#803300;stroke-width:1.47276616;stroke-linecap:round;stroke-miterlimit:4;stroke-dasharray:none;stroke-dashoffset:1.51419175;stroke-opacity:1"
         d="m 344.11678,496.77265 c 0.5892,1.35648 -0.5838,4.05342 -3.2123,5.4425 -2.6285,1.38912 -4.7425,1.45197 -7.1648,0.21327 0.5739,-2.25888 0.8755,-4.41086 3.504,-5.79994 2.6285,-1.38909 5.6742,-0.85634 6.8731,0.14417 z"
         id="path2054"
         inkscape:connector-curvature="0"
         sodipodi:nodetypes="cscsc" />
      <path
         style="opacity:1;fill:#000000;fill-opacity:1;stroke:none;stroke-width:1.71580851;stroke-linecap:round;stroke-miterlimit:4;stroke-dasharray:none;stroke-dashoffset:1.51419175;stroke-opacity:1"
         d="m 319.27248,529.40877 c 0.8404,1.24815 0.677,2.82862 -0.365,3.53007 -1.0417,0.70144 -2.5676,0.25824 -3.4079,-0.9899 -0.8404,-1.24816 0.5946,-0.94003 1.6363,-1.64148 1.0419,-0.70144 1.2963,-2.14685 2.1366,-0.89869 z"
         id="path2056"
         inkscape:connector-curvature="0"
         sodipodi:nodetypes="sssss" />
      <path
         style="display:inline;opacity:1;fill:#000000;fill-opacity:1;stroke:none;stroke-width:0.7791326;stroke-linecap:round;stroke-linejoin:bevel;stroke-miterlimit:4;stroke-dasharray:none;stroke-dashoffset:0;stroke-opacity:1"
         d="m 340.6016,500.29965 c -0.23025,1.07936 -1.17986,1.85356 -2.28343,1.86168 -1.10361,0.008 -2.06449,-0.752 -2.31061,-1.82786 -0.24612,-1.07583 0.28867,-2.17813 1.28602,-2.65066 0.99735,-0.47255 2.1891,-0.18821 2.86575,0.68363 -0.94784,0.32498 -1.91185,0.62973 -2.22513,1.7479 0.95717,-0.27836 1.87229,-0.34659 2.6674,0.18533 z"
         id="path2064"
         inkscape:connector-curvature="0"
         sodipodi:nodetypes="csssccc" />
    </g>
    <path
       transform="translate(-5.4679691,-327.11599)"
       sodipodi:nodetypes="ccccc"
       inkscape:connector-curvature="0"
       id="path12234-7"
       d="m 339.076,955.27446 c -4.09062,1.4631 -6.62356,4.0687 -7.5794,7.8308 6.62349,3.0851 13.07573,2.0904 19.58222,2.3882 4.46824,-0.9695 2.0363,-2.7508 1.10019,-4.3562 0.65006,-2.6634 -8.81019,-3.4069 -13.10301,-5.8628 z"
       style="display:inline;fill:#552200;fill-opacity:1;stroke:#000000;stroke-width:1.11685908px;stroke-linecap:butt;stroke-linejoin:miter;stroke-opacity:1" />
    <path
       transform="translate(-5.4679691,-327.11599)"
       style="display:inline;fill:#552200;fill-opacity:1;stroke:#000000;stroke-width:0.85169882px;stroke-linecap:butt;stroke-linejoin:miter;stroke-opacity:1"
       d="m 373.68036,940.76766 c -3.11943,1.1157 -5.05102,3.1027 -5.77992,5.9716 5.05096,2.3527 9.97134,1.5941 14.93309,1.8212 l 1.81942,-3.9322 c 0.49572,-2.031 -7.69896,-1.9878 -10.97259,-3.8606 z"
       id="path2149"
       inkscape:connector-curvature="0"
       sodipodi:nodetypes="ccccc" />
    <path
       transform="translate(-5.4679691,-327.11599)"
       sodipodi:nodetypes="ccccc"
       inkscape:connector-curvature="0"
       id="path1201"
       d="m 471.54705,927.08816 c -2.53777,1.12796 -4.10919,3.13664 -4.70218,6.0369 4.10915,2.37839 8.11205,1.61153 12.14862,1.8411 l 1.48017,-3.97519 c 0.40328,-2.05324 -6.26339,-2.0095 -8.92661,-3.90281 z"
       style="display:inline;fill:#552200;fill-opacity:1;stroke:#000000;stroke-width:0.77238601px;stroke-linecap:butt;stroke-linejoin:miter;stroke-opacity:1" />
    <path
       transform="translate(-5.4679691,-327.11599)"
       style="display:inline;fill:#552200;fill-opacity:1;stroke:#000000;stroke-width:1.06260419px;stroke-linecap:butt;stroke-linejoin:miter;stroke-opacity:1"
       d="m 501.81561,949.23216 c -3.8919,1.392 -6.3018,3.871 -7.2112,7.4504 6.30174,2.9352 12.44053,1.9888 18.63095,2.2722 4.25118,-0.9225 1.93739,-2.6172 1.04674,-4.1446 0.61848,-2.534 -8.38221,-3.2414 -12.46649,-5.578 z"
       id="path1203"
       inkscape:connector-curvature="0"
       sodipodi:nodetypes="ccccc"
       inkscape:transform-center-x="137.8654"
       inkscape:transform-center-y="-0.93670518" />
  </g>
</svg>
