<svg width="50" height="50" version="1.1" xmlns="http://www.w3.org/2000/svg">
 <title>soleil</title>
 <g transform="translate(-849.69 -1020)">
  <path transform="matrix(.45374 0 0 .45262 464.15 585.73)" d="m939.22 1058-20.768-19.234 6.5042 27.549-14.176-24.501-1.9052 28.243-6.3245-27.591-10.145 26.426 2.0891-28.23-17.484 22.262 10.317-26.36-23.269 16.12 17.628-22.148-26.986 8.5447 23.373-15.968-28.306 0.2107 27.041-8.3687-27.111-8.142 28.307-0.026-23.506-15.771 27.057 8.3184-17.813-21.999 23.403 15.924-10.538-26.272 17.67 22.115-2.3255-28.211 10.366 26.34 6.0932-27.643 2.1416 28.226 13.97-24.619-6.2732 27.603 20.606-19.407-14.131 24.528 25.411-12.471-20.732 19.273 27.958-4.4272-25.492 12.306 28.021 4.0104-27.987 4.245 25.594 12.092-27.995-4.1928 20.893 19.098-25.515-12.258z" style="fill:#ff0;opacity:.96"/>
 </g>
</svg>
