<svg width="784.37" height="624.02" version="1.1" xmlns="http://www.w3.org/2000/svg">
	<title>vache</title>
	<defs>
		<filter id="filter12162-0" x="-.10182" y="-.25689" width="1.2036" height="1.5138" style="color-interpolation-filters:sRGB">
			<feGaussianBlur stdDeviation="0.48732764"/>
		</filter>
	</defs>
	<g>
		<g id="tete" transform="translate(-500.68 -621.2)">
			<g transform="matrix(1.387 0 0 1.387 -139.46 258.01)">
				<path d="m744.2 369.33c1.0217-1.7358 1.2016-3.8713 2.486-5.4697 1.2573-1.9312 3.0017-3.5597 5.0645-4.5992 2.635-0.38223 4.6195-1.2542 7.1022-0.79347 1.0433 0.30851 2.248 0.66227 2.9872 1.4941 0.15746 0.80186-0.96595 1.0224-1.0833 1.7846-0.22417 1.8229 1.0017 3.3637-0.19425 4.9241-1.2572 2.9782-4.3109 4.7747-6.3663 5.7422-0.91659-0.12854-1.974 0.0103-2.5853 0.77987-0.88054 0.73179-2.1093 0.97121-3.2177 0.73371-0.62972 0.0573-1.2229 0.29986-1.8458 0.39467" style="fill:#a40;stroke-width:.625;stroke:#000"/>
			</g>
			<path d="m902.51 767.87c-5.7399-1.6267-5.7007-10.029-7.7315-16.005-2.9839 5.5076-5.0726 8.2991-3.4333 17.75 4.4932 6.6972 8.8281 6.7203 13.174 7.1915 0.1138-4.2158 0.2064-8.3999-2.0089-8.9365z" style="fill:#520"/>
			<path d="m925.3 839.16c-7.6919-8.5501-19.678-7.8396-28.236-6.3306-8.0594-2.6557-13.826-2.4425-20.614 3.7616-10.545-0.17213-18.966-13.113-7.0121-20.496 8.5562-7.8698 10.854-18.653 15.554-28.273 5.7483-3.9373 4.4334-10.964 9.271-14.434 4.7786-0.17823 6.5164-0.20135 10.037 0.52828 9.8418 0.47508 21.856 6.9468 32.999 7.2225 25.08 15.001 6.5616 57.487-12 58.022z" style="fill:#a40;stroke-width:.86687;stroke:#a40"/>
			<path d="m883.15 837.8s1.2079 1.4014 2.9267 0.78128c1.7325-0.30822 3.9004-0.34603 5.3795-1.7585 1.0757-1.2331 2.3305-3.856 4.5111-3.8242 2.152-0.10749 4.9198-4.2475 4.9198-4.2475l-4.2039-2.4236z" style="fill:#a40;stroke-width:.86687;stroke:#a40"/>
			<g transform="matrix(1.387 0 0 1.387 -134.5 262.46)">
				<path d="m744.2 369.33c1.0217-1.7358 1.2016-3.8713 2.486-5.4697 1.2573-1.9312 3.0017-3.5597 5.0645-4.5992 2.635-0.38223 4.6195-1.2542 7.1022-0.79347 1.0433 0.30851 2.248 0.66227 2.9872 1.4941 0.15746 0.80186-0.96595 1.0224-1.0833 1.7846-0.22417 1.8229 1.0017 3.3637-0.19425 4.9241-1.2572 2.9782-4.3109 4.7747-6.3663 5.7422-0.91659-0.12854-1.974 0.0103-2.5853 0.77987-0.88054 0.73179-2.1093 0.97121-3.2177 0.73371-0.62972 0.0573-1.2229 0.29986-1.8458 0.39467" style="fill:#a40;stroke-width:.625;stroke:#000"/>
				<path d="m747.5 368.3c0.67014-1.1385 0.78815-2.5392 1.6306-3.5877 0.82466-1.2667 1.9689-2.3349 3.3219-3.0167 1.7283-0.25071 3.03-0.82267 4.6585-0.52045 0.68434 0.20236 1.4745 0.4344 1.9593 0.98003 0.10328 0.52595-0.63359 0.6706-0.71057 1.1706-0.14703 1.1957 0.65706 2.2063-0.12741 3.2298-0.82463 1.9535-2.8276 3.1318-4.1758 3.7664-0.6012-0.0843-1.2947 7e-3 -1.6958 0.51153-0.57756 0.47999-1.3835 0.63703-2.1105 0.48125-0.41305 0.0376-0.80213 0.19668-1.2107 0.25887" style="fill:#a40;stroke-width:.40995;stroke:#000"/>
			</g>
			<path d="m891.2 780.74c-3.1048 5.6328-7.418 12.548-2.8123 18.653 1.2559 5.7332 9.5898 2.5288 9.87 8.2377-1.5758 3.1615 3.0478 11.961 4.7918 5.6499 0.0979-5.1805 8.403-0.0721 7.1413-6.3903-2.0383-4.4621 3.0968-9.864 0.24386-13.373-2.6914-0.0499-4.6443 8.7144-4.4055 1.9825-1.7428-3.8273-8.4343-3.4191-7.6195-8.9373-1.3928-2.9189-4.3942-4.5438-7.2097-5.8227z" style="fill:#d38d5f;stroke-width:.51175px;stroke:#d38d5f"/>
			<path d="m897.14 789.01c0.5892 1.3565-0.5838 4.0534-3.2123 5.4425-2.6285 1.3891-4.7425 1.452-7.1648 0.21327 0.5739-2.2589 0.8755-4.4109 3.504-5.7999 2.6285-1.3891 5.6742-0.85634 6.8731 0.14417z" style="fill:#fff;stroke-dashoffset:1.5142;stroke-linecap:round;stroke-width:1.4728;stroke:#803300"/>
			<path d="m874.67 824.89c0.8404 1.2482 0.677 2.8286-0.365 3.5301-1.0417 0.70144-2.5676 0.25824-3.4079-0.9899-0.8404-1.2482 0.5946-0.94003 1.6363-1.6415 1.0419-0.70144 1.2963-2.1468 2.1366-0.89869z"/>
			<path d="m893.64 792.72c-0.23025 1.0794-1.1799 1.8536-2.2834 1.8617-1.1036 8e-3 -2.0645-0.752-2.3106-1.8279-0.24612-1.0758 0.28867-2.1781 1.286-2.6507 0.99735-0.47255 2.1891-0.18821 2.8658 0.68363-0.94784 0.32498-1.9118 0.62973-2.2251 1.7479 0.95717-0.27836 1.8723-0.34659 2.6674 0.18533z"/>
		</g>
	</g>
	<g style="display:none">
		<g id="tete34face" transform="translate(43.438 -430.35)" style="display:inline">
			<path d="m351.23 564.7c-4.1383-1.1728-4.1101-7.2309-5.5742-11.539-2.1514 3.9709-3.6572 5.9835-2.4754 12.797 3.2396 4.8285 6.3649 4.8452 9.498 5.1849 0.0817-3.0395 0.14887-6.0562-1.4484-6.443z" style="display:inline;fill:#520"/>
			<path d="m364.61 578.65c6.0621-9.2307 13.057-14.861 15.623-12.577 2.5664 2.2848-0.26738 11.62-6.3295 20.851-6.0621 9.2307 0.2168-3.9361-2.3496-6.2209-2.5664-2.2848-13.006 7.1776-6.9442-2.0531z" style="display:inline;fill-rule:evenodd;fill:#1a1a1a"/>
			<path d="m349.72 579.24c3.3205 4.0125-4.9178-0.59017-7.0624 1.5564-2.1446 2.1466 8.9383 9.4822-0.70401 6.217-10.414-3.5265-13.507-12.223-10.917-14.874 2.1202-2.1708 12.193-0.74188 18.683 7.101z" style="display:inline;fill-rule:evenodd"/>
			<path d="m365.22 579.69c2.8986-4.4137 5.3989-9.9244 8.6687-9.84 2.6752 0.0691 4.0887-2.1914 5.1279-1.2662 1.3 1.1573-0.0172 0.0727-1.4933 4.1345-1.0973 3.0195-1.8134 10.802-4.0961 14.278-5.3533 8.1514 3.3966-12.399 1.1302-14.416-2.2664-2.0177-14.691 15.261-9.3374 7.1097z" style="display:inline;fill-rule:evenodd;fill:#a40"/>
			<path d="m343.12 576.76c0.7406 0.88382-1.8578 4.3434-2.6002 2.8109-1.4252-2.9421-3.0582 1.8666-3.4841 0.64109-1.0858-3.1247-6.1352-1.4536-6.1546-3.325-0.0194-1.8714 3.0322-1.0936 6.0843-3.452 2.6745-2.0665 4.5158 1.3692 6.1546 3.325z" style="display:inline;fill-rule:evenodd;fill:#803300"/>
			<path d="m351.23 564.7c7.7312-0.42803 14.051-0.1322 16.551 2.1239l10.716 15.04c9.3201-1.4993 18.737 6.3144 28.113 10.268-2.1915 19.285-4.7702 38.391-29.813 47.141l-11.696-20.999c-8.1719 2.7109-14.283 1.1915-18.86-3.4773-0.50096 2.7574-5.3619 3.2251-10.062 3.7774-4.4715-2.6011-11.271-1.8991-9.0407-10.204l11.988-15.538c-1.8587-12.383 2.9446-16.962 9.8759-21.682 1.7591-2.1503 2.1167-4.3006 2.2287-6.4509z" style="display:inline;fill:#a40;stroke-width:1px;stroke:#a40"/>
			<path d="m335.07 612.72c-1.7089 1.5276 0.40846 3.5268-1.8835 3.5506-2.292 0.0238-5.4337-1.3937-6.4165-3.4644-2.4868-5.2395 1.6066-4.4187 4.107-4.1931 2.2829 0.20596 4.6841 3.6681 4.1931 4.107z" style="display:inline;fill-rule:evenodd"/>
			<path d="m343.42 610.6c0.70661 0.88318-0.29944 3.3286-2.6153 5.1815-2.3159 1.8529-5.0646 2.4116-5.7712 1.5284-0.7066-0.88317 2.2897-0.84108 4.6056-2.694 2.3159-1.8529 3.0744-4.8991 3.781-4.0159z" style="display:inline;fill-rule:evenodd"/>
			<path d="m361.2 570.7c-0.73737 2.7259-1.6266 5.4681-3.2317 7.8287-4.8512 1.8341-5.4832 9.5359-0.99199 12.119 2.6228 1.3122 3.7309 4.8063 2.5069 7.4158 0.29752 2.2377 3.184 2.3408 4.7087 1.2542 1.2966-1.8962 4.1837-1.3831 4.6082 0.99358 0.43555 2.1937 0.4223 4.4331 1.5153 6.4848 1.0486 2.4262 0.0551 5.4124 1.8572 7.5785 1.1878 1.77 4.5971 1.5229 4.839-0.8458-1.3601-9.5971-0.33746-4.3358 5.9579-4.7114 2.8176-0.60555 3.9576-4.1924 2.4544-6.4916-1.1807-2.1092-2.5881-4.6693-1.2364-7.0353 1.1481-2.4762 4.2462-4.0119 4.1674-7.0166-0.0579-2.2428-3.1465-3.8928-4.8448-2.144-6.3242 9.8872 1.0978 5.3142-6.1799-0.47393-2.0248-1.0854-4.9431-1.6103-5.4786-4.2324-0.81336-2.3778-1.7862-4.8871-3.9599-6.372-1.9819-1.7855-4.2482-3.262-6.6919-4.3513z" style="display:inline;fill:#d38d5f;stroke-width:.63889px;stroke:#d38d5f"/>
			<path transform="matrix(.96884 -.010053 .0086035 .82916 -42.414 353.28)" d="m402.53 297.2c-0.31492 1.1992-2.0698-3.0553-4.9643-1.3603-3.6028 2.1098-6.7899-0.44457-6.475-1.6437 0.31492-1.1992 3.131-1.4989 6.2899-0.66933 3.1589 0.82954 5.4644 2.4742 5.1495 3.6734z" style="display:inline;fill-rule:evenodd;fill:#803300;filter:url(#filter12162-0)"/>
			<path d="m359.73 565.57c4.1383-1.1728 4.1101-7.2309 5.5742-11.539 2.1514 3.9709 3.6572 5.9835 2.4754 12.797-3.2396 4.8285-6.3649 4.8452-9.498 5.1849-0.0817-3.0395-0.14887-6.0562 1.4484-6.443z" style="display:inline;fill:#520"/>
			<path d="m373.19 585.29c0 4.6097-3.6137 8.3466-8.0715 8.3466-4.4578 0-12.499-7.0634-8.0715-8.3466 2.2058-0.63931 6.2902-3.529 8.0715-8.3466 1.5459-4.1811 8.0715 3.7369 8.0715 8.3466z" style="fill:#a40;opacity:.96"/>
			<path d="m357.74 585.84s1.0083-3.8683 3.6055-5.0372c2.5972-1.1688 6.0684-2.3454 5.9007-1.0157-0.41311 3.2753-0.45236 5.2334-4.8189 6.7561-2.6892 0.93781 0 0-4.6874-0.70327z" style="fill:#fff;opacity:.96;stroke-dashoffset:1.5142;stroke-linecap:round;stroke-width:1.1325;stroke:#520"/>
			<path d="m364.98 583.99c-0.23025 1.0794-1.1799 1.8536-2.2834 1.8617-1.1036 8e-3 -2.0645-0.752-2.3106-1.8279-0.24612-1.0758 0.28867-2.1781 1.286-2.6507 0.99735-0.47255 2.1891-0.18821 2.8658 0.68363-0.94784 0.32498-1.9118 0.62973-2.2251 1.7479 0.95717-0.27836 1.8723-0.34659 2.6674 0.18533z" style="display:inline"/>
		</g>
	</g>
	<g style="display:none">
		<g id="teteMeuh" transform="rotate(15.044 1603.5 549.84)" style="display:inline">
			<g transform="matrix(1.387 0 0 1.387 -692.48 -34.231)">
				<path d="m744.2 369.33c1.0217-1.7358 1.2016-3.8713 2.486-5.4697 1.2573-1.9312 3.0017-3.5597 5.0645-4.5992 2.635-0.38223 4.6195-1.2542 7.1022-0.79347 1.0433 0.30851 2.248 0.66227 2.9872 1.4941 0.15746 0.80186-0.96595 1.0224-1.0833 1.7846-0.22417 1.8229 1.0017 3.3637-0.19425 4.9241-1.2572 2.9782-4.3109 4.7747-6.3663 5.7422-0.91659-0.12854-1.974 0.0103-2.5853 0.77987-0.88054 0.73179-2.1093 0.97121-3.2177 0.73371-0.62972 0.0573-1.2229 0.29986-1.8458 0.39467" style="fill:#a40;stroke-width:.625;stroke:#000"/>
			</g>
			<path d="m349.48 475.64c-5.7399-1.6267-5.7007-10.029-7.7315-16.005-2.9839 5.5076-5.0726 8.2991-3.4333 17.75 4.4932 6.6972 8.8281 6.7203 13.174 7.1915 0.1138-4.2158 0.2064-8.3999-2.0089-8.9365z" style="display:inline;fill:#520"/>
			<path d="m375.68 546.51c-7.6919-8.5501-23.081-7.4264-31.64-5.9174-8.0594-2.6557-13.826-2.4425-20.614 3.7616-10.545-0.17213-18.966-13.113-7.0121-20.496 8.5562-7.8698 10.854-18.653 15.554-28.273 5.7483-3.9373 4.4334-10.964 9.271-14.434 4.7786-0.17823 6.5164-0.20135 10.037 0.52828 9.8418 0.47508 74.741-16.317 85.884-16.041 11.281 26.299-36.787 78.023-61.481 80.872z" style="fill:#a40;stroke-width:.86687;stroke:#a40"/>
			<path id="boucheMeuh" d="m330.12 545.56s1.2079 1.4014 2.9267 0.78128c1.7325-0.30822 3.9004-0.34603 5.3795-1.7585 1.0757-1.2331 2.3305-3.856 4.5111-3.8242 2.152-0.10749 4.9198-4.2475 4.9198-4.2475l-4.2039-2.4236z" style="fill:#a40;stroke-width:.86687;stroke:#a40"/>
			<g transform="matrix(1.387 0 0 1.387 -687.53 -29.772)">
				<path d="m744.2 369.33c1.0217-1.7358 1.2016-3.8713 2.486-5.4697 1.2573-1.9312 3.0017-3.5597 5.0645-4.5992 2.635-0.38223 4.6195-1.2542 7.1022-0.79347 1.0433 0.30851 2.248 0.66227 2.9872 1.4941 0.15746 0.80186-0.96595 1.0224-1.0833 1.7846-0.22417 1.8229 1.0017 3.3637-0.19425 4.9241-1.2572 2.9782-4.3109 4.7747-6.3663 5.7422-0.91659-0.12854-1.974 0.0103-2.5853 0.77987-0.88054 0.73179-2.1093 0.97121-3.2177 0.73371-0.62972 0.0573-1.2229 0.29986-1.8458 0.39467" style="fill:#a40;stroke-width:.625;stroke:#000"/>
				<path d="m747.5 368.3c0.67014-1.1385 0.78815-2.5392 1.6306-3.5877 0.82466-1.2667 1.9689-2.3349 3.3219-3.0167 1.7283-0.25071 3.03-0.82267 4.6585-0.52045 0.68434 0.20236 1.4745 0.4344 1.9593 0.98003 0.10328 0.52595-0.63359 0.6706-0.71057 1.1706-0.14703 1.1957 0.65706 2.2063-0.12741 3.2298-0.82463 1.9535-2.8276 3.1318-4.1758 3.7664-0.6012-0.0843-1.2947 7e-3 -1.6958 0.51153-0.57756 0.47999-1.3835 0.63703-2.1105 0.48125-0.41305 0.0376-0.80213 0.19668-1.2107 0.25887" style="fill:#a40;stroke-width:.40995;stroke:#000"/>
			</g>
			<path d="m341.55 483.82c-4.7292 8.5798-11.299 19.114-4.2836 28.411 1.913 8.7327 14.607 3.8518 15.034 12.547-2.4002 4.8155 4.6424 18.219 7.2987 8.6058 0.14911-7.8908 12.799-0.10978 10.877-9.7336-3.1048-6.7965 11.906-16.957 7.5607-22.301-4.0995-0.076-14.263 15.206-13.9 4.952-2.6546-5.8296-12.847-5.2079-11.606-13.613-2.1215-4.4461-6.6931-6.921-10.982-8.869z" style="display:inline;fill:#d38d5f;stroke-width:.77949px;stroke:#d38d5f"/>
			<path d="m344.12 496.77c0.5892 1.3565-0.5838 4.0534-3.2123 5.4425-2.6285 1.3891-4.7425 1.452-7.1648 0.21327 0.5739-2.2589 0.8755-4.4109 3.504-5.7999 2.6285-1.3891 5.6742-0.85634 6.8731 0.14417z" style="fill:#fff;stroke-dashoffset:1.5142;stroke-linecap:round;stroke-width:1.4728;stroke:#803300"/>
			<path d="m319.27 529.41c0.8404 1.2482 0.677 2.8286-0.365 3.5301-1.0417 0.70144-2.5676 0.25824-3.4079-0.9899-0.8404-1.2482 0.5946-0.94003 1.6363-1.6415 1.0419-0.70144 1.2963-2.1468 2.1366-0.89869z"/>
			<path d="m340.6 500.3c-0.23025 1.0794-1.1799 1.8536-2.2834 1.8617-1.1036 8e-3 -2.0645-0.752-2.3106-1.8279-0.24612-1.0758 0.28867-2.1781 1.286-2.6507 0.99735-0.47255 2.1891-0.18821 2.8658 0.68363-0.94784 0.32498-1.9118 0.62973-2.2251 1.7479 0.95717-0.27836 1.8723-0.34659 2.6674 0.18533z" style="display:inline"/>
		</g>
	</g>
	<g style="display:none">
		<g id="teteBroute" transform="rotate(-44.175 69.873 313.97)" style="display:inline">
			<g transform="matrix(1.387 0 0 1.387 -692.48 -34.231)">
				<path d="m744.2 369.33c1.0217-1.7358 1.2016-3.8713 2.486-5.4697 1.2573-1.9312 3.0017-3.5597 5.0645-4.5992 2.635-0.38223 4.6195-1.2542 7.1022-0.79347 1.0433 0.30851 2.248 0.66227 2.9872 1.4941 0.15746 0.80186-0.96595 1.0224-1.0833 1.7846-0.22417 1.8229 1.0017 3.3637-0.19425 4.9241-1.2572 2.9782-4.3109 4.7747-6.3663 5.7422-0.91659-0.12854-1.974 0.0103-2.5853 0.77987-0.88054 0.73179-2.1093 0.97121-3.2177 0.73371-0.62972 0.0573-1.2229 0.29986-1.8458 0.39467" style="fill:#a40;stroke-width:.625;stroke:#000"/>
			</g>
			<path d="m349.48 475.64c-5.7399-1.6267-5.7007-10.029-7.7315-16.005-2.9839 5.5076-5.0726 8.2991-3.4333 17.75 4.4932 6.6972 8.8281 6.7203 13.174 7.1915 0.1138-4.2158 0.2064-8.3999-2.0089-8.9365z" style="display:inline;fill:#520"/>
			<path d="m382.14 549.01c-7.6919-8.5501-29.541-9.9291-38.1-8.4201-8.0594-2.6557-13.826-2.4425-20.614 3.7616-10.545-0.17213-18.966-13.113-7.0121-20.496 8.5562-7.8698 10.854-18.653 15.554-28.273 5.7483-3.9373 4.4334-10.964 9.271-14.434 4.7786-0.17823 6.5164-0.20135 10.037 0.52828 9.8418 0.47508 79.715-30.509 88.849-24.121 4.5462 3.1798 1.6386 8.5636 3.9184 18.309-30.476 16.896-51.059 66.359-61.904 73.146z" style="fill:#a40;stroke-width:.86687;stroke:#a40"/>
			<path id="boucheBroute" d="m330.12 545.56s1.2079 1.4014 2.9267 0.78128c1.7325-0.30822 3.9004-0.34603 5.3795-1.7585 1.0757-1.2331 2.3305-3.856 4.5111-3.8242 2.152-0.10749 4.9198-4.2475 4.9198-4.2475l-4.2039-2.4236z" style="fill:#a40;stroke-width:.86687;stroke:#a40"/>
			<g transform="matrix(1.387 0 0 1.387 -687.53 -29.772)">
				<path d="m744.2 369.33c1.0217-1.7358 1.2016-3.8713 2.486-5.4697 1.2573-1.9312 3.0017-3.5597 5.0645-4.5992 2.635-0.38223 4.6195-1.2542 7.1022-0.79347 1.0433 0.30851 2.248 0.66227 2.9872 1.4941 0.15746 0.80186-0.96595 1.0224-1.0833 1.7846-0.22417 1.8229 1.0017 3.3637-0.19425 4.9241-1.2572 2.9782-4.3109 4.7747-6.3663 5.7422-0.91659-0.12854-1.974 0.0103-2.5853 0.77987-0.88054 0.73179-2.1093 0.97121-3.2177 0.73371-0.62972 0.0573-1.2229 0.29986-1.8458 0.39467" style="fill:#a40;stroke-width:.625;stroke:#000"/>
				<path d="m747.5 368.3c0.67014-1.1385 0.78815-2.5392 1.6306-3.5877 0.82466-1.2667 1.9689-2.3349 3.3219-3.0167 1.7283-0.25071 3.03-0.82267 4.6585-0.52045 0.68434 0.20236 1.4745 0.4344 1.9593 0.98003 0.10328 0.52595-0.63359 0.6706-0.71057 1.1706-0.14703 1.1957 0.65706 2.2063-0.12741 3.2298-0.82463 1.9535-2.8276 3.1318-4.1758 3.7664-0.6012-0.0843-1.2947 7e-3 -1.6958 0.51153-0.57756 0.47999-1.3835 0.63703-2.1105 0.48125-0.41305 0.0376-0.80213 0.19668-1.2107 0.25887" style="fill:#a40;stroke-width:.40995;stroke:#000"/>
			</g>
			<path d="m338.17 488.5c-3.1048 5.6328-7.418 12.548-2.8123 18.653 1.2559 5.7332 9.5898 2.5288 9.87 8.2377-1.5758 3.1615 3.0478 11.961 4.7918 5.6499 0.0979-5.1805 8.403-0.0721 7.1413-6.3903-2.0383-4.4621 3.0968-9.864 0.24386-13.373-2.6914-0.0499-4.6443 8.7144-4.4055 1.9825-1.7428-3.8273-8.4343-3.4191-7.6195-8.9373-1.3928-2.9189-4.3942-4.5438-7.2097-5.8227z" style="display:inline;fill:#d38d5f;stroke-width:.51175px;stroke:#d38d5f"/>
			<path d="m344.12 496.77c0.5892 1.3565-0.5838 4.0534-3.2123 5.4425-2.6285 1.3891-4.7425 1.452-7.1648 0.21327 0.5739-2.2589 0.8755-4.4109 3.504-5.7999 2.6285-1.3891 5.6742-0.85634 6.8731 0.14417z" style="fill:#fff;stroke-dashoffset:1.5142;stroke-linecap:round;stroke-width:1.4728;stroke:#803300"/>
			<path d="m319.27 529.41c0.8404 1.2482 0.677 2.8286-0.365 3.5301-1.0417 0.70144-2.5676 0.25824-3.4079-0.9899-0.8404-1.2482 0.5946-0.94003 1.6363-1.6415 1.0419-0.70144 1.2963-2.1468 2.1366-0.89869z"/>
			<path d="m340.6 500.3c-0.23025 1.0794-1.1799 1.8536-2.2834 1.8617-1.1036 8e-3 -2.0645-0.752-2.3106-1.8279-0.24612-1.0758 0.28867-2.1781 1.286-2.6507 0.99735-0.47255 2.1891-0.18821 2.8658 0.68363-0.94784 0.32498-1.9118 0.62973-2.2251 1.7479 0.95717-0.27836 1.8723-0.34659 2.6674 0.18533z" style="display:inline"/>
		</g>
	</g>
</svg>
