<?xml version="1.0" encoding="UTF-8" standalone="no"?>
<!-- Created with Inkscape (http://www.inkscape.org/) -->

<svg
   xmlns:dc="http://purl.org/dc/elements/1.1/"
   xmlns:cc="http://creativecommons.org/ns#"
   xmlns:rdf="http://www.w3.org/1999/02/22-rdf-syntax-ns#"
   xmlns:svg="http://www.w3.org/2000/svg"
   xmlns="http://www.w3.org/2000/svg"
   xmlns:sodipodi="http://sodipodi.sourceforge.net/DTD/sodipodi-0.dtd"
   xmlns:inkscape="http://www.inkscape.org/namespaces/inkscape"
   width="102.4734"
   height="227.8114"
   id="svg10994"
   version="1.1"
   inkscape:version="0.92.2 (5c3e80d, 2017-08-06)"
   sodipodi:docname="vache_dos.svg">
  <title
     id="title1139">vache</title>
  <defs
     id="defs10996">
    <linearGradient
       id="linearGradient6421">
      <stop
         style="stop-color:#afafaf;stop-opacity:1"
         offset="0"
         id="stop6423" />
      <stop
         style="stop-color:#ffffff;stop-opacity:1"
         offset="1"
         id="stop6425" />
    </linearGradient>
    <linearGradient
       id="linearGradient5771">
      <stop
         style="stop-color:#dbdfe3;stop-opacity:1;"
         offset="0"
         id="stop5773" />
      <stop
         style="stop-color:#fafbfb;stop-opacity:1;"
         offset="1"
         id="stop5775" />
    </linearGradient>
    <linearGradient
       id="linearGradient5666">
      <stop
         style="stop-color:#ffccaa;stop-opacity:1;"
         offset="0"
         id="stop5668" />
      <stop
         id="stop5674"
         offset="0.5"
         style="stop-color:#ffe2ce;stop-opacity:1;" />
      <stop
         style="stop-color:#ffccaa;stop-opacity:1;"
         offset="1"
         id="stop5670" />
    </linearGradient>
    <linearGradient
       id="linearGradient3861">
      <stop
         style="stop-color:#00ffff;stop-opacity:1;"
         offset="0"
         id="stop3863" />
      <stop
         style="stop-color:#00ffff;stop-opacity:0;"
         offset="1"
         id="stop3865" />
    </linearGradient>
    <linearGradient
       id="linearGradient15922">
      <stop
         style="stop-color:#ffffff;stop-opacity:1;"
         offset="0"
         id="stop15924" />
      <stop
         style="stop-color:#a2ffff;stop-opacity:1;"
         offset="1"
         id="stop15926" />
    </linearGradient>
    <linearGradient
       id="linearGradient15833-1">
      <stop
         style="stop-color:#ffffff;stop-opacity:0.55329949"
         offset="0"
         id="stop15835-7" />
      <stop
         style="stop-color:#ffffff;stop-opacity:0;"
         offset="1"
         id="stop15837-1" />
    </linearGradient>
    <linearGradient
       id="linearGradient3772">
      <stop
         style="stop-color:#ffe680;stop-opacity:1;"
         offset="0"
         id="stop3774" />
      <stop
         style="stop-color:#fff8de;stop-opacity:1;"
         offset="1"
         id="stop3776" />
    </linearGradient>
    <mask
       maskUnits="userSpaceOnUse"
       id="mask3014">
      <ellipse
         inkscape:export-ydpi="100"
         inkscape:export-xdpi="100"
         inkscape:export-filename="C:\Users\Vicky\Documents\pourClePrefaTico\jeuxEnLigne\webidev\path3113.png"
         id="ellipse3016"
         style="fill:#ffff00;fill-rule:evenodd;stroke:#000000;stroke-width:0.35670686px;stroke-linecap:butt;stroke-linejoin:miter;stroke-opacity:1"
         cx="-135.82529"
         cy="32.761463"
         rx="16.575104"
         ry="18.016415"
         transform="rotate(-47.670563)" />
    </mask>
  </defs>
  <sodipodi:namedview
     id="base"
     pagecolor="#ffffff"
     bordercolor="#666666"
     borderopacity="1.0"
     inkscape:pageopacity="0.0"
     inkscape:pageshadow="2"
     inkscape:zoom="1.4"
     inkscape:cx="93.178201"
     inkscape:cy="55.118595"
     inkscape:document-units="px"
     inkscape:current-layer="layer1"
     showgrid="true"
     inkscape:window-width="1366"
     inkscape:window-height="739"
     inkscape:window-x="-9"
     inkscape:window-y="-9"
     inkscape:window-maximized="1"
     inkscape:snap-global="true"
     showguides="true"
     fit-margin-top="0"
     fit-margin-left="0"
     fit-margin-right="0"
     fit-margin-bottom="0"
     inkscape:guide-bbox="true">
    <inkscape:grid
       type="xygrid"
       id="grid5300"
       originx="-42.979511"
       originy="-114.73348" />
  </sodipodi:namedview>
  <metadata
     id="metadata10999">
    <rdf:RDF>
      <cc:Work
         rdf:about="">
        <dc:format>image/svg+xml</dc:format>
        <dc:type
           rdf:resource="http://purl.org/dc/dcmitype/StillImage" />
        <dc:title>vache</dc:title>
        <dc:date>2018-05-29</dc:date>
        <dc:creator>
          <cc:Agent>
            <dc:title>V.Bayon</dc:title>
          </cc:Agent>
        </dc:creator>
        <dc:rights>
          <cc:Agent>
            <dc:title>CC-BY-NC</dc:title>
          </cc:Agent>
        </dc:rights>
      </cc:Work>
    </rdf:RDF>
  </metadata>
  <g
     inkscape:label="Calque 1"
     inkscape:groupmode="layer"
     id="layer1"
     transform="translate(-48.447481,-705.13593)"
     style="display:inline">
    <g
       inkscape:label="#g969"
       transform="matrix(0.80867889,0,0,0.80867889,-548.28135,220.96458)"
       style="stroke:#e9afaf"
       id="pie">
      <path
         sodipodi:nodetypes="cccc"
         inkscape:connector-curvature="0"
         id="path1383"
         d="m 803.71851,786.9352 1.75529,3.8702 c -0.0479,1.46823 -1.63201,1.78572 -2.53197,1.18396 l -1.22024,-3.51841"
         style="opacity:1;fill:#e3beb8;fill-opacity:1;stroke:#e9afaf;stroke-width:1.10000002;stroke-linecap:butt;stroke-linejoin:round;stroke-miterlimit:4;stroke-dasharray:none;paint-order:markers fill stroke" />
      <path
         style="opacity:1;fill:#e3beb8;fill-opacity:1;stroke:#e9afaf;stroke-width:1.10000002;stroke-linecap:butt;stroke-linejoin:round;stroke-miterlimit:4;stroke-dasharray:none;paint-order:markers fill stroke"
         d="m 794.23439,786.68322 -1.75529,3.8702 c 0.0479,1.46823 1.63202,1.78572 2.53197,1.18396 l 1.22024,-3.51841"
         id="path1385"
         inkscape:connector-curvature="0"
         sodipodi:nodetypes="cccc" />
      <path
         style="opacity:1;fill:#e3beb8;fill-opacity:1;stroke:#e9afaf;stroke-width:1.10000002;stroke-linecap:butt;stroke-linejoin:round;stroke-miterlimit:4;stroke-dasharray:none;paint-order:markers fill stroke"
         d="m 824.43008,764.70796 c -3.63257,7.94603 -1.52304,17.57851 -12.7753,23.58772 -8.40108,4.48655 -22.15667,1.2201 -26.86709,-2.76573 -2.88759,-3.89011 -5.20261,-11.91876 -7.11187,-16.29804"
         id="path1387"
         inkscape:connector-curvature="0"
         sodipodi:nodetypes="cscc" />
      <path
         style="opacity:1;fill:#e3beb8;fill-opacity:1;stroke:#e9afaf;stroke-width:1.10000002;stroke-linecap:butt;stroke-linejoin:round;stroke-miterlimit:4;stroke-dasharray:none;paint-order:markers fill stroke"
         d="m 809.79416,787.24543 0.75594,5.24118 c -0.54063,1.74435 -2.48177,1.58361 -3.32613,0.55435 l -0.25198,-4.63642"
         id="path1389"
         inkscape:connector-curvature="0"
         sodipodi:nodetypes="cccc" />
      <path
         sodipodi:nodetypes="cccc"
         inkscape:connector-curvature="0"
         id="path1391"
         d="m 797.90153,787.6486 -0.75594,5.24118 c 0.54063,1.74434 2.48177,1.58361 3.32613,0.55435 l 0.25198,-4.63642"
         style="opacity:1;fill:#e3beb8;fill-opacity:1;stroke:#e9afaf;stroke-width:1.10000002;stroke-linecap:butt;stroke-linejoin:round;stroke-miterlimit:4;stroke-dasharray:none;paint-order:markers fill stroke" />
    </g>
    <path
       style="display:inline;fill:#552200;fill-opacity:1;stroke:none;stroke-width:1.11248446px;stroke-linecap:butt;stroke-linejoin:miter;stroke-opacity:1"
       d="m 108.83682,714.4674 c 3.3466,-0.94845 3.3238,-5.84747 4.5077,-9.33147 1.7398,3.21115 2.9576,4.83871 2.0019,10.34889 -2.6198,3.90474 -5.1472,3.91822 -7.6809,4.19293 -0.066,-2.45798 -0.1204,-4.8975 1.1713,-5.21035 z"
       id="path1401"
       inkscape:connector-curvature="0"
       sodipodi:nodetypes="ccccc"
       inkscape:transform-center-x="-4.6334487"
       inkscape:transform-center-y="-6.4640926" />
    <path
       inkscape:transform-center-y="-6.4640926"
       inkscape:transform-center-x="4.63342"
       sodipodi:nodetypes="ccccc"
       inkscape:connector-curvature="0"
       id="path1404"
       d="m 87.91182,714.90063 c -3.3466,-0.94845 -3.3238,-5.84748 -4.5078,-9.33148 -1.7398,3.21116 -2.9576,4.83872 -2.0018,10.34889 2.6198,3.90474 5.1472,3.91822 7.6808,4.19294 0.066,-2.45799 0.1205,-4.8975 -1.1712,-5.21035 z"
       style="display:inline;fill:#552200;fill-opacity:1;stroke:none;stroke-width:1.11248446px;stroke-linecap:butt;stroke-linejoin:miter;stroke-opacity:1" />
    <g
       id="tete"
       inkscape:label="#g1179">
      <ellipse
         style="opacity:1;fill:#843500;fill-opacity:1;stroke:#aa4400;stroke-width:1.61735773;stroke-linecap:round;stroke-miterlimit:4;stroke-dasharray:none;stroke-dashoffset:1.51419175;stroke-opacity:1"
         id="ellipse1381"
         cx="98.374336"
         cy="736.81158"
         rx="23.10511"
         ry="22.816298" />
      <path
         sodipodi:nodetypes="ccsc"
         inkscape:connector-curvature="0"
         id="path1406"
         d="m 87.75512,719.3309 c -9.3433,1.48124 -0.7474,8.09814 -6.3454,6.22069 -8.3916,-2.93907 -10.8194,-9.99691 -8.7028,-12.11958 1.7327,-1.73757 9.8657,-0.49759 15.0482,5.89889 z"
         style="display:inline;fill:#803300;fill-opacity:1;fill-rule:evenodd;stroke:none;stroke-width:0.47396725" />
      <path
         style="display:inline;fill:#803300;fill-opacity:1;fill-rule:evenodd;stroke:none;stroke-width:0.47396725"
         d="m 109.24152,718.17564 c 9.3433,1.48124 0.7474,8.09814 6.3454,6.2207 8.3916,-2.93907 10.8194,-9.99691 8.7028,-12.11958 -1.7327,-1.73757 -9.8657,-0.4976 -15.0482,5.89888 z"
         id="path1408"
         inkscape:connector-curvature="0"
         sodipodi:nodetypes="ccsc" />
    </g>
    <g
       id="patteArriereGauche"
       inkscape:label="#g1166">
      <path
         sodipodi:nodetypes="ccscscccccc"
         inkscape:connector-curvature="0"
         id="path1158"
         d="m 58.50542,838.29919 c 1.8133,20.2482 4.5971,52.28577 6.0145,54.73745 2.0038,3.46575 0,15.00739 0,18.47323 0,3.46575 -6.3936,13.29269 -6.3936,13.29269 0,0 13.6535,2.88092 17.2602,2.88092 3.6068,0 1.9965,-6.92431 1.9965,-6.92431 l -1.5921,-12.71142 3.6138,-13.26739 -2.426,-10.41174 3.4465,-36.73495 z"
         style="fill:#aa4400;fill-opacity:1;stroke:#aa4400;stroke-width:0.80867887;stroke-miterlimit:4;stroke-dasharray:none;stroke-opacity:1" />
      <path
         style="display:inline;fill:#552200;fill-opacity:1;stroke:#000000;stroke-width:0.97717297px;stroke-linecap:butt;stroke-linejoin:miter;stroke-opacity:1"
         d="m 58.57562,923.30152 c -5.205,1.80866 -8.2213,4.27366 -8.8831,7.44446 6.6565,1.32786 14.9277,0.983 23.6129,0.20913 l 5.5746,-4.43057 -0.8777,-2.91823 c -3.0484,0.37977 -6.0888,0.5393 -9.1514,1.30861 1.3611,2.13014 -7.4605,-0.22525 -10.2753,-1.6134 z"
         id="path1411"
         inkscape:connector-curvature="0"
         sodipodi:nodetypes="ccccccc" />
    </g>
    <g
       id="patteArriereDroite"
       inkscape:label="#g1170">
      <path
         sodipodi:nodetypes="cccccscsccc"
         inkscape:connector-curvature="0"
         id="path1162"
         d="m 120.74212,846.67237 2.0569,40.57716 -2.4261,10.41174 3.6138,13.29263 -1.5921,12.68618 c 0,0 -0.9976,4.29474 2.6091,4.29474 3.6068,0 17.2252,-0.25134 17.2252,-0.25134 0,0 -6.3936,-9.80163 -6.3936,-13.26738 0,-3.46576 -2.0038,-15.03282 0,-18.49854 1.6757,-2.89834 5.2841,-47.42353 6.8991,-64.41633 z"
         style="fill:#aa4400;fill-opacity:1;stroke:#aa4400;stroke-width:0.80867887;stroke-miterlimit:4;stroke-dasharray:none;stroke-opacity:1" />
      <path
         sodipodi:nodetypes="ccccccc"
         inkscape:connector-curvature="0"
         id="path1413"
         d="m 141.64972,924.11311 c 5.098,1.81097 8.0522,4.27911 8.7003,7.45395 -6.5196,1.32956 -14.6205,0.98427 -23.127,0.20941 l -5.4599,-4.43624 0.8597,-2.92195 c 2.9856,0.38025 5.9635,0.53999 8.9631,1.31028 -1.3333,2.13287 7.3069,-0.22554 10.0638,-1.61545 z"
         style="display:inline;fill:#552200;fill-opacity:1;stroke:#000000;stroke-width:0.96768409px;stroke-linecap:butt;stroke-linejoin:miter;stroke-opacity:1" />
    </g>
    <g
       id="corp"
       inkscape:label="#g1174">
      <path
         sodipodi:nodetypes="cscscsccscc"
         inkscape:connector-curvature="0"
         id="path1396"
         d="m 142.73442,831.50123 c 4.0277,-9.48509 6.3178,-20.40963 6.3178,-32.0439 0,-18.18385 -5.3166,-35.08126 -14.0914,-51.47611 -8.7749,-16.39485 -20.4303,-10.33727 -34.2633,-10.33727 -13.833,0 -25.4948,-3.74707 -34.8535,12.64778 -9.3588,16.39484 -16.9922,30.98175 -16.9922,49.1656 0,14.52862 3.5909,27.95177 9.6536,38.84186 l 21.9198,9.33448 c 8.2007,7.70244 8.1519,1.74811 18.9992,1.74811 12.2111,0 12.6256,6.83452 21.3177,-2.70941 z"
         style="fill:#aa4400;fill-opacity:1;stroke:#aa4400;stroke-width:0.80867887;stroke-miterlimit:4;stroke-dasharray:none;stroke-opacity:1" />
      <path
         sodipodi:nodetypes="ccccccc"
         inkscape:connector-curvature="0"
         id="path1368"
         d="m 120.97832,795.76608 c 0.2441,-14.07148 1.7963,-28.59924 -1.4438,-42.27122 -4.5563,-20.84684 -16.542,-3.0618 -33.5303,-10.85134 -3.1125,3.11906 -5.3641,11.07284 -3.3429,15.96346 -3.8024,12.94901 -12.7578,18.70462 -0.7264,26.65674 11.2603,-9.66738 20.3051,-13.78189 16.5572,10.54789 10.076,8.8204 11.1106,-20.09428 22.4857,-0.0454"
         style="fill:#d38d5f;fill-opacity:1;fill-rule:nonzero;stroke:none;stroke-width:1.26766026" />
    </g>
    <path
       d="m 100.31207,802.49219 c 0.0725,-1.19117 -0.459446,-6.78542 -0.968892,-9.05848 -0.352138,-2.60815 0.280944,-4.733 0.431179,-7.42083 0.366903,-2.94066 0.470253,-13.20203 0.873453,-14.5053 0.20695,-1.52176 -0.54753,-24.64323 -0.92171,-28.25023 -0.555888,-3.37617 -4.222298,-5.58563 -4.222298,-5.58563 0,0 1.786515,19.80525 1.517598,25.87409 -0.04306,5.86557 1.163025,13.27769 -0.08017,18.1828 -1.240178,4.99591 -0.855249,6.03545 -0.276661,12.1292 0.511273,5.79493 1.384213,11.02692 1.403863,12.07433 0,0 0.04874,1.05454 -0.518931,4.7303 -0.605266,3.37601 -1.753408,0.43194 0.197594,6.05363 1.929876,5.82473 1.79971,7.23221 1.023663,10.74004 -0.757901,3.20592 -0.899234,3.39604 -0.899234,3.39604 0,0 3.111316,-5.89863 3.034026,-10.19909 0,0 0.0295,-2.53641 -0.43507,-3.01584 -0.27045,-0.5487 2.47155,2.86927 2.23733,6.6604 0,0 -0.80758,7.28968 0.63257,9.06947 1.13821,1.9933 2.12759,3.29728 2.12759,3.29728 0,0 -1.4086,-3.39447 -1.18458,-5.34807 0.35143,-1.92241 1.19168,-4.75227 1.19168,-4.75227 0,0 0.37985,2.61398 0.12064,3.69943 -0.36102,1.39011 -0.23748,3.03779 -0.23748,3.03779 0,0 0.99605,0.41999 1.27933,-2.06175 0.60781,-2.45665 1.22467,-3.74333 1.22467,-3.74333 l 0.39109,1.67058 c 0,0 1.75402,-1.70254 1.58288,-3.08168 -0.27102,-1.41156 0.45683,-5.99484 -2.02174,-10.3708 -2.723,-4.57203 -3.19134,-4.94593 -3.19134,-4.94593 0,0 3.15884,2.21558 3.4618,2.91707 0.45434,1.02684 -0.17389,-2.10895 -1.09663,-2.65757 -0.87438,-0.79598 -1.76766,-1.29305 -3.462,-2.91708 -1.92367,-1.76401 -3.03178,-3.48224 -3.21332,-5.61856"
       style="fill:#000000;fill-opacity:1;fill-rule:nonzero;stroke:none;stroke-width:1.40204632"
       id="queue"
       inkscape:connector-curvature="0"
       inkscape:label="#path1398"
       inkscape:transform-center-x="-6.6347809"
       inkscape:transform-center-y="47.303762" />
  </g>
</svg>
