<?xml version="1.0" encoding="UTF-8" standalone="no"?>
<!-- Created with Inkscape (http://www.inkscape.org/) -->

<svg
   xmlns:dc="http://purl.org/dc/elements/1.1/"
   xmlns:cc="http://creativecommons.org/ns#"
   xmlns:rdf="http://www.w3.org/1999/02/22-rdf-syntax-ns#"
   xmlns:svg="http://www.w3.org/2000/svg"
   xmlns="http://www.w3.org/2000/svg"
   xmlns:sodipodi="http://sodipodi.sourceforge.net/DTD/sodipodi-0.dtd"
   xmlns:inkscape="http://www.inkscape.org/namespaces/inkscape"
   width="784.3703"
   height="624.02386"
   id="svg10994"
   version="1.1"
   inkscape:version="0.92.2 (5c3e80d, 2017-08-06)"
   sodipodi:docname="vache_profile.svg">
  <title
     id="title1139">vache</title>
  <defs
     id="defs10996">
    <filter
       inkscape:collect="always"
       id="filter12162-0"
       x="-0.10181596"
       width="1.2036319"
       y="-0.25689492"
       height="1.5137898"
       style="color-interpolation-filters:sRGB">
      <feGaussianBlur
         inkscape:collect="always"
         stdDeviation="0.48732764"
         id="feGaussianBlur12164-0" />
    </filter>
  </defs>
  <sodipodi:namedview
     id="base"
     pagecolor="#ffffff"
     bordercolor="#666666"
     borderopacity="1.0"
     inkscape:pageopacity="0.0"
     inkscape:pageshadow="2"
     inkscape:zoom="1.4"
     inkscape:cx="491.63088"
     inkscape:cy="400.85524"
     inkscape:document-units="px"
     inkscape:current-layer="layer9"
     showgrid="true"
     inkscape:window-width="1366"
     inkscape:window-height="739"
     inkscape:window-x="-9"
     inkscape:window-y="-9"
     inkscape:window-maximized="1"
     inkscape:snap-global="true"
     showguides="true"
     fit-margin-top="0"
     fit-margin-left="0"
     fit-margin-right="0"
     fit-margin-bottom="0"
     inkscape:guide-bbox="true">
    <inkscape:grid
       type="xygrid"
       id="grid5300"
       originx="-467.37442"
       originy="-55.911884" />
  </sodipodi:namedview>
  <metadata
     id="metadata10999">
    <rdf:RDF>
      <cc:Work
         rdf:about="">
        <dc:format>image/svg+xml</dc:format>
        <dc:type
           rdf:resource="http://purl.org/dc/dcmitype/StillImage" />
        <dc:title>vache</dc:title>
        <dc:date>2018-05-29</dc:date>
        <dc:creator>
          <cc:Agent>
            <dc:title>V.Bayon</dc:title>
          </cc:Agent>
        </dc:creator>
        <dc:rights>
          <cc:Agent>
            <dc:title>CC-BY-NC</dc:title>
          </cc:Agent>
        </dc:rights>
      </cc:Work>
    </rdf:RDF>
  </metadata>
  <g
     inkscape:groupmode="layer"
     id="layer2"
     inkscape:label="pattesDroites"
     sodipodi:insensitive="true">
    <g
       transform="translate(-472.84239,-367.74508)"
       style="display:inline"
       id="patteArriereDroite"
       inkscape:label="#g1230">
      <path
         inkscape:connector-curvature="0"
         id="path1211"
         style="fill:#803300;stroke:#803300;stroke-width:0.62499899;stroke-linecap:butt;stroke-linejoin:miter;stroke-miterlimit:4;stroke-dasharray:none;stroke-opacity:1"
         d="m 1081.1625,681.35891 c 0.6171,-2.3674 0.6198,-5.7372 0.6198,-5.7372 0,0 3.3767,-2.6565 3.434,-3.4724 -0.1492,-1.0568 -1.5192,-3.4923 -0.8196,-4.4652 0.4563,-0.961 7.2323,-17.7977 7.1353,-19.8733 -1.1739,-9.2031 -1.7011,-22.4436 -1.7011,-22.4436 -26.3394,-14.76009 -21.6101,-4.97916 -21.2598,1.3428 0,0 11.7893,5.8175 12.124,26.7383 0.1901,6.4625 -2.0842,13.5809 -3.431,15.787 0,0 -1.377,6.0618 -3.2431,7.3676 0,0 -1.045,1.9461 -2.2061,4.0129 z"
         sodipodi:nodetypes="cccccccccccc" />
      <path
         sodipodi:nodetypes="ccccc"
         inkscape:connector-curvature="0"
         id="path1277"
         d="m 1071.6999,678.33121 c -2.5378,1.128 -4.1092,3.1367 -4.7022,6.0369 4.1091,2.3784 8.112,1.6116 12.1486,1.8411 l 1.4802,-3.9751 c 0.4032,-2.0533 -6.2634,-2.0095 -8.9266,-3.9029 z"
         style="display:inline;fill:#552200;fill-opacity:1;stroke:#000000;stroke-width:0.77238601px;stroke-linecap:butt;stroke-linejoin:miter;stroke-opacity:1" />
    </g>
    <g
       transform="translate(-472.84239,-367.74508)"
       style="display:inline"
       id="g1222">
      <path
         inkscape:connector-curvature="0"
         id="patteAvantDroite"
         style="fill:#803300;stroke:#803300;stroke-width:0.66539609;stroke-linecap:butt;stroke-linejoin:miter;stroke-miterlimit:4;stroke-dasharray:none;stroke-opacity:1"
         d="m 963.88527,656.07261 3.5437,13.5765 c 0,0 -1.693,1.6756 3.5029,6.2238 1.6292,1.6389 5.26222,7.79 4.72572,11.5999 -0.5322,4.3031 -3.44582,10.0008 -2.37062,10.349 2.48992,0.7973 11.07682,0.375 11.45302,-1.2011 0.9312,-3.0972 -2.4175,-3.6787 -1.8453,-5.0258 0.6126,-1.2155 2.3754,-0.3901 1.7889,-2.646 -0.3973,-2.345 -2.7685,-2.2738 -3.4559,-5.2667 -0.7547,-2.8572 -1.1381,-8.4844 -1.1073,-9.5389 -0.095,-1.0484 -0.1147,-4.4012 -0.6162,-6.0456 -0.6471,-1.4772 -3.137,-5.2823 -3.137,-5.2823 l -3.10272,-24.1507 c -5.48813,-2.6156 -11.11519,-9.75803 -16.0816,4.6258 z"
         sodipodi:nodetypes="ccccccccccccccc"
         inkscape:label="#path1229" />
      <path
         style="display:inline;fill:#552200;fill-opacity:1;stroke:#000000;stroke-width:0.85169882px;stroke-linecap:butt;stroke-linejoin:miter;stroke-opacity:1"
         d="m 973.83309,692.01071 c -3.11932,1.1158 -5.05092,3.1028 -5.77982,5.9717 5.0509,2.3527 9.97132,1.5941 14.93302,1.8212 l 1.8194,-3.9322 c 0.4957,-2.0311 -7.6989,-1.9878 -10.9726,-3.8607 z"
         id="path1275"
         inkscape:connector-curvature="0"
         sodipodi:nodetypes="ccccc" />
    </g>
  </g>
  <g
     inkscape:groupmode="layer"
     id="layer3"
     inkscape:label="pie"
     sodipodi:insensitive="true">
    <g
       inkscape:label="#g969"
       transform="matrix(1.3869994,0,0,1.3869994,-516.01032,-816.98845)"
       style="display:inline;stroke:#e9afaf"
       id="pie">
      <path
         sodipodi:nodetypes="cccc"
         inkscape:connector-curvature="0"
         id="path1213"
         d="m 803.71851,786.9352 1.75529,3.8702 c -0.0479,1.46823 -1.63201,1.78572 -2.53197,1.18396 l -1.22024,-3.51841"
         style="opacity:1;fill:#e3beb8;fill-opacity:1;stroke:#e9afaf;stroke-width:1.10000002;stroke-linecap:butt;stroke-linejoin:round;stroke-miterlimit:4;stroke-dasharray:none;paint-order:markers fill stroke" />
      <path
         style="opacity:1;fill:#e3beb8;fill-opacity:1;stroke:#e9afaf;stroke-width:1.10000002;stroke-linecap:butt;stroke-linejoin:round;stroke-miterlimit:4;stroke-dasharray:none;paint-order:markers fill stroke"
         d="m 794.23439,786.68322 -1.75529,3.8702 c 0.0479,1.46823 1.63202,1.78572 2.53197,1.18396 l 1.22024,-3.51841"
         id="path1215"
         inkscape:connector-curvature="0"
         sodipodi:nodetypes="cccc" />
      <path
         style="opacity:1;fill:#e3beb8;fill-opacity:1;stroke:#e9afaf;stroke-width:1.10000002;stroke-linecap:butt;stroke-linejoin:round;stroke-miterlimit:4;stroke-dasharray:none;paint-order:markers fill stroke"
         d="m 824.43008,764.70796 c -3.63257,7.94603 -1.52304,17.57851 -12.7753,23.58772 -8.40108,4.48655 -22.15667,1.2201 -26.86709,-2.76573 -2.88759,-3.89011 -5.20261,-11.91876 -7.11187,-16.29804"
         id="path1217"
         inkscape:connector-curvature="0"
         sodipodi:nodetypes="cscc" />
      <path
         style="opacity:1;fill:#e3beb8;fill-opacity:1;stroke:#e9afaf;stroke-width:1.10000002;stroke-linecap:butt;stroke-linejoin:round;stroke-miterlimit:4;stroke-dasharray:none;paint-order:markers fill stroke"
         d="m 809.79416,787.24543 0.75594,5.24118 c -0.54063,1.74435 -2.48177,1.58361 -3.32613,0.55435 l -0.25198,-4.63642"
         id="path1219"
         inkscape:connector-curvature="0"
         sodipodi:nodetypes="cccc" />
      <path
         sodipodi:nodetypes="cccc"
         inkscape:connector-curvature="0"
         id="path1221"
         d="m 797.90153,787.6486 -0.75594,5.24118 c 0.54063,1.74434 2.48177,1.58361 3.32613,0.55435 l 0.25198,-4.63642"
         style="opacity:1;fill:#e3beb8;fill-opacity:1;stroke:#e9afaf;stroke-width:1.10000002;stroke-linecap:butt;stroke-linejoin:round;stroke-miterlimit:4;stroke-dasharray:none;paint-order:markers fill stroke" />
    </g>
  </g>
  <g
     inkscape:groupmode="layer"
     id="layer4"
     inkscape:label="pattesGauche"
     sodipodi:insensitive="true">
    <g
       transform="translate(-472.84239,-367.74508)"
       style="display:inline"
       id="patteAvantGauche"
       inkscape:label="#g1218">
      <path
         sodipodi:nodetypes="cccccccc"
         inkscape:transform-center-y="29.336951"
         inkscape:transform-center-x="-2.7677278"
         inkscape:connector-curvature="0"
         id="path1225"
         d="m 962.44827,648.05221 c -9.7485,9.9609 -4.6328,22.852 -6.1481,34.8559 -6.4398,8.9903 -1.1652,21.5669 -4.2463,28.22473 5.1347,7.7111 -4.1701,3.9445 -8.9747,3.9007 -12.3541,-0.2249 0.4456,-11.81283 -0.5981,-18.40853 2.6073,-13.1622 -3.9542,-26.1605 -1.7144,-39.5963 -0.2848,-6.6957 -3.9731,-11.018 -8.4494,-14.8614 -8.5872,-50.471 38.582,-35.692 30.131,5.8849 z"
         style="fill:#aa4400;fill-opacity:1;stroke:#aa4400;stroke-width:0.8668732;stroke-linecap:butt;stroke-linejoin:miter;stroke-miterlimit:4;stroke-dasharray:none;stroke-opacity:1" />
      <path
         sodipodi:nodetypes="ccccc"
         inkscape:connector-curvature="0"
         id="path1273"
         d="m 939.22877,706.51751 c -4.0906,1.46323 -6.6236,4.06873 -7.5794,7.83083 6.6235,3.0852 13.0757,2.0904 19.5822,2.3882 4.4683,-0.9695 2.0363,-2.7508 1.1002,-4.3561 0.65,-2.6634 -8.8102,-3.407 -13.103,-5.86293 z"
         style="display:inline;fill:#552200;fill-opacity:1;stroke:#000000;stroke-width:1.11685908px;stroke-linecap:butt;stroke-linejoin:miter;stroke-opacity:1" />
    </g>
    <g
       transform="translate(-472.84239,-367.74508)"
       style="display:inline"
       id="patteArriereGauche"
       inkscape:label="#g1226">
      <path
         inkscape:transform-center-y="38.195639"
         inkscape:transform-center-x="-0.80414203"
         sodipodi:nodetypes="ccccccccc"
         inkscape:connector-curvature="0"
         id="path1227"
         d="m 1122.827,615.15201 c -11.7037,5.8197 -10.9012,23.6863 -7.9163,34.4462 3.9723,11.1282 -2.3662,25.2371 -0.9271,37.7286 0.7972,6.2471 2.6965,11.3533 -1.5045,12.9629 4.8698,10.16263 -4.8825,4.4734 -10.1047,3.6446 -3.9237,-3.244 7.9983,-14.1634 3.7007,-21.6167 0.5004,-13.4133 -1.8697,-27.3126 -13.2414,-35.8353 -5.5059,-8.8605 -5.9071,-19.2609 -18.8172,-19.4659 -8.1584,-58.0998 46.7426,-57.8172 48.8105,-11.8644 z"
         style="fill:#aa4400;stroke:#aa4400;stroke-width:0.8668732;stroke-linecap:butt;stroke-linejoin:miter;stroke-miterlimit:4;stroke-dasharray:none;stroke-opacity:1" />
      <path
         style="display:inline;fill:#552200;fill-opacity:1;stroke:#000000;stroke-width:1.06260419px;stroke-linecap:butt;stroke-linejoin:miter;stroke-opacity:1"
         d="m 1101.9684,700.47521 c -3.8919,1.3921 -6.3018,3.8711 -7.2112,7.45043 6.3017,2.9353 12.4405,1.9889 18.631,2.2722 4.2511,-0.9224 1.9373,-2.6172 1.0467,-4.14463 0.6185,-2.5339 -8.3822,-3.2414 -12.4665,-5.578 z"
         id="path1279"
         inkscape:connector-curvature="0"
         sodipodi:nodetypes="ccccc"
         inkscape:transform-center-x="137.86538"
         inkscape:transform-center-y="-0.93670518" />
    </g>
  </g>
  <g
     inkscape:label="corp1"
     inkscape:groupmode="layer"
     id="layer1"
     transform="translate(-472.84239,-367.74508)"
     style="display:inline"
     sodipodi:insensitive="true">
    <path
       d="m 1142.4336,621.65121 c 0.066,-1.4743 -0.7055,-8.3804 -1.3814,-11.1805 -0.4882,-3.2176 0.2515,-5.8577 0.3829,-9.184 0.3941,-3.6433 0.314,-16.3327 0.7862,-17.9523 0.225,-1.8857 -1.176,-30.4583 -1.7117,-34.9105 -0.7557,-4.1631 -5.3337,-6.8206 -5.3337,-6.8206 0,0 2.61,24.4514 2.4004,31.9604 0.065,7.2532 1.7068,16.3933 0.2691,22.4832 -1.4323,6.2022 -0.9352,7.4797 -0.097,15.0024 0.7495,7.1546 1.9348,13.6059 1.9803,14.9005 0,0 0.082,1.3029 -0.5459,5.8592 -0.6799,4.1864 -2.1591,0.5695 0.3669,7.4808 2.5042,7.1627 2.3717,8.9056 1.4832,13.2584 -0.8721,3.9792 -1.043,4.2172 -1.043,4.2172 0,0 3.7274,-7.3562 3.5448,-12.6718 0,0 -0.015,-3.1367 -0.5991,-3.72 -0.3455,-0.673 3.114,3.4975 2.9012,8.1897 0,0 -0.8509,9.0294 0.9658,11.2008 1.4477,2.4416 2.6973,4.0338 2.6973,4.0338 0,0 -1.8103,-4.1685 -1.5729,-6.5885 0.3956,-2.384 1.3772,-5.8999 1.3772,-5.8999 0,0 0.5226,3.2243 0.2241,4.5716 -0.4182,1.7261 -0.2322,3.7608 -0.2322,3.7608 0,0 1.2401,0.4991 1.5401,-2.5751 0.7017,-3.0498 1.4384,-4.6531 1.4384,-4.6531 l 0.5174,2.0576 c 0,0 2.1342,-2.1406 1.8947,-3.8423 -0.3637,-1.7398 0.4434,-7.4214 -2.7098,-12.7817 -3.4593,-5.5978 -4.046,-6.0507 -4.046,-6.0507 0,0 3.9506,2.6755 4.3394,3.5367 0.5825,1.2604 -0.2577,-2.6041 -1.4098,-3.2637 -1.0972,-0.9665 -2.2117,-1.563 -4.3395,-3.5366 -2.4142,-2.1421 -3.8191,-4.2441 -4.0868,-6.8818"
       style="fill:#000000;fill-opacity:1;fill-rule:nonzero;stroke:none;stroke-width:1.73374915"
       id="queue"
       inkscape:connector-curvature="0"
       inkscape:label="#path1233" />
    <g
       id="corp1"
       inkscape:label="#g1235">
      <path
         sodipodi:nodetypes="ccccccccccccccc"
         inkscape:connector-curvature="0"
         id="path1231"
         d="m 1073.8391,626.66371 c -9.9105,-0.8204 -19.3212,5.3883 -27.8745,9.7567 -13.1467,4.6568 -26.4093,3.9372 -40.1987,2.3879 -15.03411,-1.256 -31.11931,1.1116 -43.78103,9.6452 l -30.0016,-6.5122 c -6.2388,-5.5872 -14.0849,-10.2428 -15.9456,-19.2285 -2.8217,-13.5566 -22.0304,-18.1847 -27.0956,-30.8378 4.6861,-34.2504 1.885,-39.1877 18.2553,-62.9236 19.7044,6.5736 43.9711,0.8219 64.1288,3.7963 15.00392,1.9552 29.88083,5.0995 45.10723,4.1923 16.4131,0.2128 33.0495,1.3313 49.0425,-3.1591 18.6976,-2.3332 38.4489,-8.3562 56.9175,-1.9652 15.6506,5.1471 16.8933,22.5352 15.2239,36.3175 -1.4304,16.3762 -4.3164,33.7853 -14.7913,47.0215 z"
         style="fill:#aa4400;fill-opacity:1;stroke:#aa4400;stroke-width:0.8668732;stroke-linecap:butt;stroke-linejoin:miter;stroke-miterlimit:4;stroke-dasharray:none;stroke-opacity:1" />
      <path
         sodipodi:nodetypes="ccccccc"
         inkscape:connector-curvature="0"
         id="path1235"
         d="m 1125.3494,604.12821 c 3.8532,-15.9522 9.8704,-31.9803 8.1618,-48.6598 -2.003,-25.3022 -25.1832,-9.103 -49.9001,-23.745 -5.65,2.498 -11.1422,10.7975 -9.1789,17.0566 -9.1563,13.4654 -24.618,16.9849 -7.7138,30.1299 20.0409,-7.1949 35.2381,-8.8139 23.3608,17.6389 13.624,13.4708 22.3777,-19.1276 35.2695,7.5794"
         style="fill:#deaa87;fill-opacity:1;fill-rule:nonzero;stroke:none;stroke-width:1.73374915" />
      <path
         style="fill:#deaa87;fill-opacity:1;fill-rule:nonzero;stroke:none;stroke-width:1.73374915"
         d="m 999.08029,560.00771 c 3.85331,15.9522 9.87041,31.9804 8.16191,48.6598 -2.003,25.3022 -25.18331,9.103 -49.90013,23.745 -5.6501,-2.498 -11.1423,-10.7975 -9.179,-17.0565 -9.1563,-13.4655 -24.618,-16.985 -7.7138,-30.13 20.041,7.1949 35.23812,8.814 23.3609,-17.6389 13.62392,-13.4708 22.37762,19.1276 35.26942,-7.5794"
         id="path1237"
         inkscape:connector-curvature="0"
         sodipodi:nodetypes="ccccccc" />
    </g>
  </g>
  <g
     inkscape:groupmode="layer"
     id="layer5"
     inkscape:label="corp2"
     sodipodi:insensitive="true"
     style="display:none">
    <g
       style="display:inline"
       id="corp2"
       inkscape:label="#g1240"
       transform="translate(-501.07412,-621.63803)">
      <path
         sodipodi:nodetypes="ccccccccccccccc"
         inkscape:connector-curvature="0"
         id="path1309"
         d="m 1100.8204,879.32759 c -9.9105,-0.82041 -19.3212,5.38825 -27.8745,9.75673 -13.1467,4.6568 -26.4093,3.93715 -40.1987,2.38783 -15.0341,-1.25598 -31.1193,1.11159 -43.78111,9.64523 l -30.0015,-6.51223 c -6.2388,-5.58715 -14.0849,-10.24275 -15.9456,-19.22846 -2.8217,-13.55664 -12.939,-23.7405 -18.0042,-36.3936 -22.588,-36.27071 -2.6607,-61.41112 12.6994,-57.87284 19.7044,6.57355 40.4356,1.32697 60.5932,4.30129 15.00401,1.95527 29.88091,5.09957 45.10731,4.19238 16.4131,0.21279 33.0495,1.33131 49.0425,-3.15912 18.6976,-2.33322 38.4489,-8.3562 56.9175,-1.96519 15.6505,5.14703 16.8932,22.53514 15.2238,36.31746 -1.4304,16.37622 -4.3163,33.78527 -14.7912,47.02149 z"
         style="fill:#aa4400;fill-opacity:1;stroke:#aa4400;stroke-width:0.8668732;stroke-linecap:butt;stroke-linejoin:miter;stroke-miterlimit:4;stroke-dasharray:none;stroke-opacity:1" />
      <path
         sodipodi:nodetypes="ccccccc"
         inkscape:connector-curvature="0"
         id="path1869"
         d="m 1152.3307,856.79213 c 3.8532,-15.95221 9.8703,-31.98039 8.1618,-48.65984 -2.003,-25.30217 -25.1832,-9.10302 -49.9001,-23.745 -5.65,2.49797 -11.1422,10.79748 -9.1789,17.05655 -9.1563,13.46545 -24.618,16.98495 -7.7138,30.12994 20.0409,-7.19489 35.2381,-8.81394 23.3608,17.63893 13.624,13.47079 22.3777,-19.12759 35.2695,7.57938"
         style="fill:#ffccaa;fill-opacity:1;fill-rule:nonzero;stroke:none;stroke-width:1.73374915" />
      <path
         style="fill:#ffccaa;fill-opacity:1;fill-rule:nonzero;stroke:none;stroke-width:1.73374915"
         d="m 1026.0616,812.67156 c 3.8532,15.95221 9.8703,31.98039 8.1618,48.65984 -2.003,25.30217 -25.1832,9.10302 -49.90008,23.745 -5.65,-2.49797 -11.1422,-10.79748 -9.1789,-17.05655 -9.1563,-13.46545 -24.618,-16.98495 -7.7138,-30.12994 20.0409,7.19489 35.23808,8.81394 23.3608,-17.63893 13.62398,-13.47079 22.37768,19.12759 35.26948,-7.57938"
         id="path1894"
         inkscape:connector-curvature="0"
         sodipodi:nodetypes="ccccccc" />
    </g>
  </g>
  <g
     inkscape:groupmode="layer"
     id="layer6"
     inkscape:label="tete"
     sodipodi:insensitive="true"
     style="display:none">
    <g
       style="display:inline"
       id="tete"
       transform="translate(-500.67521,-621.19823)"
       inkscape:label="#g1152">
      <g
         transform="matrix(1.3869994,0,0,1.3869994,-139.45514,258.00566)"
         id="g1761">
        <path
           sodipodi:nodetypes="ccccccccccc"
           inkscape:connector-curvature="0"
           id="path1757"
           d="m 744.20251,369.3297 c 1.02168,-1.73577 1.20159,-3.87129 2.48605,-5.46974 1.25727,-1.93121 3.00169,-3.55971 5.06453,-4.59919 2.63498,-0.38223 4.61952,-1.25424 7.10225,-0.79347 1.04333,0.30851 2.24795,0.66227 2.98715,1.49413 0.15746,0.80186 -0.96595,1.02239 -1.08331,1.78463 -0.22417,1.82292 1.00174,3.36373 -0.19425,4.92412 -1.25722,2.97825 -4.31092,4.77466 -6.36633,5.74222 -0.91659,-0.12854 -1.97395,0.0103 -2.58531,0.77987 -0.88054,0.73179 -2.10926,0.97121 -3.2177,0.73371 -0.62972,0.0573 -1.22291,0.29986 -1.84577,0.39467"
           style="fill:#aa4400;stroke:#000000;stroke-width:0.62499899;stroke-linecap:butt;stroke-linejoin:miter;stroke-miterlimit:4;stroke-dasharray:none;stroke-opacity:1" />
      </g>
      <path
         inkscape:transform-center-y="-8.9656923"
         inkscape:transform-center-x="6.4266131"
         sodipodi:nodetypes="ccccc"
         inkscape:connector-curvature="0"
         id="path1394-2"
         d="m 902.50529,767.8714 c -5.7399,-1.62673 -5.7007,-10.02926 -7.7315,-16.00481 -2.9839,5.50758 -5.0726,8.29908 -3.4333,17.74982 4.4932,6.69718 8.8281,6.7203 13.1737,7.19148 0.1138,-4.2158 0.2064,-8.39992 -2.0089,-8.93649 z"
         style="display:inline;fill:#552200;fill-opacity:1;stroke:none;stroke-width:1.90806901px;stroke-linecap:butt;stroke-linejoin:miter;stroke-opacity:1" />
      <path
         inkscape:transform-center-y="-9.1243334"
         inkscape:transform-center-x="32.940391"
         sodipodi:nodetypes="ccccccccc"
         inkscape:connector-curvature="0"
         id="path1314"
         d="m 925.30119,839.15597 c -7.6919,-8.55012 -19.6781,-7.8396 -28.2364,-6.33059 -8.0594,-2.65571 -13.826,-2.44246 -20.6139,3.76159 -10.5448,-0.17213 -18.9656,-13.11288 -7.0121,-20.49583 8.5562,-7.86984 10.8543,-18.65344 15.5544,-28.27346 5.7483,-3.93731 4.4334,-10.96377 9.271,-14.4345 4.7786,-0.17823 6.5164,-0.20135 10.0373,0.52828 9.8418,0.47508 21.856,6.94681 32.9993,7.22252 25.0799,15.00076 6.5616,57.48694 -11.9996,58.02193 z"
         style="fill:#aa4400;stroke:#aa4400;stroke-width:0.8668732;stroke-linecap:butt;stroke-linejoin:miter;stroke-miterlimit:4;stroke-dasharray:none;stroke-opacity:1" />
      <path
         inkscape:transform-center-y="3.1722078"
         inkscape:transform-center-x="1.9810546"
         d="m 883.14849,837.79711 c 0,0 1.2079,1.40138 2.9267,0.78128 1.7325,-0.30822 3.9004,-0.34603 5.3795,-1.75849 1.0757,-1.23313 2.3305,-3.85604 4.5111,-3.82415 2.152,-0.10749 4.9198,-4.24747 4.9198,-4.24747 l -4.2039,-2.42362 z"
         style="fill:#aa4400;stroke:#aa4400;stroke-width:0.8668732;stroke-linecap:butt;stroke-linejoin:miter;stroke-miterlimit:4;stroke-dasharray:none;stroke-opacity:1"
         id="path1118-2"
         inkscape:connector-curvature="0" />
      <g
         transform="matrix(1.3869994,0,0,1.3869994,-134.50158,262.46388)"
         id="g1755">
        <path
           style="fill:#aa4400;stroke:#000000;stroke-width:0.62499899;stroke-linecap:butt;stroke-linejoin:miter;stroke-miterlimit:4;stroke-dasharray:none;stroke-opacity:1"
           d="m 744.20251,369.3297 c 1.02168,-1.73577 1.20159,-3.87129 2.48605,-5.46974 1.25727,-1.93121 3.00169,-3.55971 5.06453,-4.59919 2.63498,-0.38223 4.61952,-1.25424 7.10225,-0.79347 1.04333,0.30851 2.24795,0.66227 2.98715,1.49413 0.15746,0.80186 -0.96595,1.02239 -1.08331,1.78463 -0.22417,1.82292 1.00174,3.36373 -0.19425,4.92412 -1.25722,2.97825 -4.31092,4.77466 -6.36633,5.74222 -0.91659,-0.12854 -1.97395,0.0103 -2.58531,0.77987 -0.88054,0.73179 -2.10926,0.97121 -3.2177,0.73371 -0.62972,0.0573 -1.22291,0.29986 -1.84577,0.39467"
           id="path1384"
           inkscape:connector-curvature="0"
           sodipodi:nodetypes="ccccccccccc" />
        <path
           sodipodi:nodetypes="ccccccccccc"
           inkscape:connector-curvature="0"
           id="path1395"
           d="m 747.5027,368.29616 c 0.67014,-1.13852 0.78815,-2.53925 1.63065,-3.5877 0.82466,-1.26671 1.96886,-2.33487 3.32191,-3.01669 1.72833,-0.25071 3.03003,-0.82267 4.65849,-0.52045 0.68434,0.20236 1.47447,0.4344 1.95933,0.98003 0.10328,0.52595 -0.63359,0.6706 -0.71057,1.17057 -0.14703,1.19568 0.65706,2.20633 -0.12741,3.22981 -0.82463,1.95349 -2.82761,3.13179 -4.17579,3.76643 -0.6012,-0.0843 -1.29474,0.007 -1.69575,0.51153 -0.57756,0.47999 -1.3835,0.63703 -2.11054,0.48125 -0.41305,0.0376 -0.80213,0.19668 -1.21067,0.25887"
           style="fill:#aa4400;stroke:#000000;stroke-width:0.40994772;stroke-linecap:butt;stroke-linejoin:miter;stroke-miterlimit:4;stroke-dasharray:none;stroke-opacity:1" />
      </g>
      <path
         inkscape:connector-curvature="0"
         id="path1835-7"
         d="m 891.1988,780.73578 c -3.10482,5.63278 -7.41799,12.54842 -2.81227,18.65267 1.25591,5.73316 9.58983,2.5288 9.87002,8.23767 -1.5758,3.16148 3.04779,11.9609 4.79176,5.6499 0.0979,-5.18049 8.40304,-0.0721 7.14129,-6.39029 -2.03834,-4.46206 3.09685,-9.86398 0.24386,-13.37251 -2.69139,-0.0499 -4.64427,8.71437 -4.40546,1.98253 -1.74284,-3.82727 -8.43431,-3.4191 -7.61946,-8.93729 -1.39278,-2.91893 -4.39416,-4.54377 -7.20974,-5.82268 z"
         style="display:inline;fill:#d38d5f;stroke:#d38d5f;stroke-width:0.51174796px;stroke-linecap:butt;stroke-linejoin:miter;stroke-opacity:1" />
      <path
         sodipodi:nodetypes="cscsc"
         inkscape:connector-curvature="0"
         id="path1403"
         d="m 897.14079,789.00895 c 0.5892,1.35648 -0.5838,4.05342 -3.2123,5.4425 -2.6285,1.38912 -4.7425,1.45197 -7.1648,0.21327 0.5739,-2.25888 0.8755,-4.41086 3.504,-5.79994 2.6285,-1.38909 5.6742,-0.85634 6.8731,0.14417 z"
         style="opacity:1;fill:#ffffff;fill-opacity:1;stroke:#803300;stroke-width:1.47276616;stroke-linecap:round;stroke-miterlimit:4;stroke-dasharray:none;stroke-dashoffset:1.51419175;stroke-opacity:1" />
      <path
         style="opacity:1;fill:#000000;fill-opacity:1;stroke:none;stroke-width:1.71580851;stroke-linecap:round;stroke-miterlimit:4;stroke-dasharray:none;stroke-dashoffset:1.51419175;stroke-opacity:1"
         d="m 874.67297,824.89019 c 0.8404,1.24815 0.677,2.82862 -0.365,3.53007 -1.0417,0.70144 -2.5676,0.25824 -3.4079,-0.9899 -0.8404,-1.24816 0.5946,-0.94003 1.6363,-1.64148 1.0419,-0.70144 1.2963,-2.14685 2.1366,-0.89869 z"
         id="path1708"
         inkscape:connector-curvature="0"
         sodipodi:nodetypes="sssss" />
      <path
         style="display:inline;opacity:1;fill:#000000;fill-opacity:1;stroke:none;stroke-width:0.7791326;stroke-linecap:round;stroke-linejoin:bevel;stroke-miterlimit:4;stroke-dasharray:none;stroke-dashoffset:0;stroke-opacity:1"
         d="m 893.64475,792.72346 c -0.23025,1.07936 -1.17986,1.85356 -2.28343,1.86168 -1.10361,0.008 -2.06449,-0.752 -2.31061,-1.82786 -0.24612,-1.07583 0.28867,-2.17813 1.28602,-2.65066 0.99735,-0.47255 2.1891,-0.18821 2.86575,0.68363 -0.94784,0.32498 -1.91185,0.62973 -2.22513,1.7479 0.95717,-0.27836 1.87229,-0.34659 2.6674,0.18533 z"
         id="path1929"
         inkscape:connector-curvature="0"
         sodipodi:nodetypes="csssccc" />
    </g>
  </g>
  <g
     inkscape:groupmode="layer"
     id="layer7"
     inkscape:label="tet34face"
     style="display:none"
     sodipodi:insensitive="true">
    <g
       style="display:inline"
       id="tete34face"
       inkscape:transform-center-x="29.878569"
       inkscape:transform-center-y="-21.518574"
       transform="translate(43.43818,-430.35465)"
       inkscape:label="#g2190">
      <path
         inkscape:transform-center-y="-6.4640926"
         inkscape:transform-center-x="4.6334462"
         sodipodi:nodetypes="ccccc"
         inkscape:connector-curvature="0"
         id="path12034"
         d="m 351.22528,564.70415 c -4.13834,-1.17284 -4.11007,-7.2309 -5.57423,-11.53916 -2.15139,3.97086 -3.65725,5.98348 -2.47538,12.79728 3.23957,4.82854 6.36494,4.84521 9.498,5.18492 0.0817,-3.03951 0.14887,-6.05618 -1.44838,-6.44304 z"
         style="display:inline;fill:#552200;fill-opacity:1;stroke:none;stroke-width:1.37568128px;stroke-linecap:butt;stroke-linejoin:miter;stroke-opacity:1" />
      <path
         sodipodi:nodetypes="sssss"
         inkscape:connector-curvature="0"
         id="path11890-6-6"
         d="m 364.6074,578.64777 c 6.06207,-9.23067 13.05686,-14.86143 15.62327,-12.57664 2.56642,2.28479 -0.26738,11.61992 -6.32946,20.85059 -6.06207,9.23068 0.2168,-3.93606 -2.34961,-6.22086 -2.56641,-2.28477 -13.00628,7.1776 -6.9442,-2.05309 z"
         style="display:inline;fill:#1a1a1a;fill-opacity:1;fill-rule:evenodd;stroke:none" />
      <path
         sodipodi:nodetypes="sssss"
         inkscape:connector-curvature="0"
         id="path11890"
         d="m 349.7236,579.2385 c 3.32051,4.01249 -4.91778,-0.59017 -7.06242,1.5564 -2.14465,2.14657 8.93827,9.48223 -0.70401,6.21702 -10.41407,-3.52654 -13.50668,-12.22254 -10.91667,-14.87441 2.12015,-2.17076 12.19276,-0.74188 18.6831,7.10099 z"
         style="display:inline;fill:#000000;fill-opacity:1;fill-rule:evenodd;stroke:none" />
      <path
         sodipodi:nodetypes="sssssss"
         inkscape:connector-curvature="0"
         id="path11890-6"
         d="m 365.22113,579.6874 c 2.89861,-4.41368 5.39893,-9.92441 8.66871,-9.83999 2.67518,0.0691 4.08867,-2.19136 5.12788,-1.26619 1.29998,1.15732 -0.0172,0.0727 -1.49333,4.13449 -1.0973,3.01947 -1.81344,10.80248 -4.09608,14.27824 -5.3533,8.15142 3.39658,-12.3986 1.13023,-14.41624 -2.26635,-2.01766 -14.6907,15.2611 -9.33741,7.10969 z"
         style="display:inline;fill:#aa4400;fill-opacity:1;fill-rule:evenodd;stroke:none" />
      <path
         sodipodi:nodetypes="ssssss"
         inkscape:connector-curvature="0"
         id="path12138"
         d="m 343.12315,576.75684 c 0.7406,0.88382 -1.85776,4.34339 -2.60017,2.81087 -1.42525,-2.94209 -3.05823,1.86661 -3.4841,0.64109 -1.08583,-3.12466 -6.1352,-1.45357 -6.15462,-3.32496 -0.0194,-1.87139 3.0322,-1.09364 6.0843,-3.45196 2.67447,-2.06654 4.51575,1.36921 6.15459,3.32496 z"
         style="display:inline;fill:#803300;fill-opacity:1;fill-rule:evenodd;stroke:none" />
      <path
         sodipodi:nodetypes="cccccccccccc"
         inkscape:connector-curvature="0"
         id="path11120"
         d="m 351.22528,564.70415 c 7.73116,-0.42803 14.05141,-0.1322 16.55071,2.12391 l 10.71605,15.04011 c 9.32009,-1.49928 18.73681,6.31445 28.11347,10.26828 -2.19149,19.2849 -4.77022,38.39129 -29.81343,47.14059 l -11.69613,-20.99861 c -8.17186,2.71087 -14.28321,1.19154 -18.86042,-3.47734 -0.50096,2.75737 -5.36186,3.22509 -10.06166,3.77744 -4.47153,-2.60111 -11.27065,-1.89909 -9.04072,-10.20361 l 11.98753,-15.53824 c -1.85871,-12.38316 2.94459,-16.96246 9.87589,-21.68159 1.7591,-2.15031 2.11667,-4.30063 2.22871,-6.45094 z"
         style="display:inline;fill:#aa4400;stroke:#aa4400;stroke-width:1px;stroke-linecap:butt;stroke-linejoin:miter;stroke-opacity:1" />
      <path
         sodipodi:nodetypes="sssss"
         inkscape:connector-curvature="0"
         id="path12040"
         d="m 335.073,612.72387 c -1.70891,1.52758 0.40846,3.52679 -1.88354,3.55057 -2.29201,0.0238 -5.43371,-1.39372 -6.41654,-3.46444 -2.48684,-5.23947 1.60658,-4.41869 4.10697,-4.1931 2.28286,0.20596 4.68413,3.66806 4.19311,4.10697 z"
         style="display:inline;fill:#000000;fill-opacity:1;fill-rule:evenodd;stroke:none" />
      <path
         sodipodi:nodetypes="sssss"
         inkscape:connector-curvature="0"
         id="path12043"
         d="m 343.41996,610.59972 c 0.70661,0.88318 -0.29944,3.32862 -2.61533,5.18152 -2.31588,1.85288 -5.06464,2.41156 -5.77125,1.52838 -0.7066,-0.88317 2.28967,-0.84108 4.60555,-2.69397 2.31589,-1.85289 3.07443,-4.8991 3.78103,-4.01593 z"
         style="display:inline;fill:#000000;fill-opacity:1;fill-rule:evenodd;stroke:none" />
      <path
         style="display:inline;fill:#d38d5f;stroke:#d38d5f;stroke-width:0.63889444px;stroke-linecap:butt;stroke-linejoin:miter;stroke-opacity:1"
         d="m 361.19975,570.70014 c -0.73737,2.72589 -1.62664,5.46813 -3.23169,7.82874 -4.85121,1.83407 -5.48315,9.53593 -0.99199,12.11868 2.62277,1.31225 3.73087,4.80631 2.50688,7.41577 0.29752,2.23768 3.184,2.34078 4.70866,1.25423 1.29659,-1.89624 4.18373,-1.38313 4.60824,0.99358 0.43555,2.19366 0.4223,4.43313 1.5153,6.4848 1.04858,2.42619 0.0551,5.41235 1.85723,7.57854 1.18779,1.76999 4.59712,1.52288 4.83904,-0.8458 -1.36008,-9.59711 -0.33746,-4.33577 5.95792,-4.71144 2.81756,-0.60555 3.95759,-4.19241 2.45443,-6.49157 -1.18072,-2.10918 -2.58813,-4.66926 -1.23637,-7.03527 1.14809,-2.47623 4.24624,-4.01186 4.16744,-7.01662 -0.0579,-2.24276 -3.14654,-3.89284 -4.84483,-2.14402 -6.3242,9.8872 1.09781,5.3142 -6.17991,-0.47393 -2.02484,-1.0854 -4.94307,-1.61032 -5.47857,-4.2324 -0.81336,-2.37783 -1.78615,-4.88713 -3.95988,-6.372 -1.98192,-1.78554 -4.24818,-3.26203 -6.6919,-4.35129 z"
         id="path12136"
         inkscape:connector-curvature="0"
         sodipodi:nodetypes="cccccccccccccccccc" />
      <path
         transform="matrix(0.96883983,-0.01005282,0.00860348,0.82915973,-42.413949,353.27629)"
         sodipodi:nodetypes="sssss"
         inkscape:connector-curvature="0"
         id="path12159"
         d="m 402.53239,297.19851 c -0.31492,1.19921 -2.0698,-3.05533 -4.96431,-1.36032 -3.60281,2.10979 -6.78994,-0.44457 -6.47503,-1.64373 0.31492,-1.1992 3.131,-1.49888 6.28988,-0.66933 3.15888,0.82954 5.46438,2.47418 5.14946,3.67338 z"
         style="display:inline;fill:#803300;fill-opacity:1;fill-rule:evenodd;stroke:none;filter:url(#filter12162-0)" />
      <path
         style="display:inline;fill:#552200;fill-opacity:1;stroke:none;stroke-width:1.37568128px;stroke-linecap:butt;stroke-linejoin:miter;stroke-opacity:1"
         d="m 359.72638,565.56994 c 4.13834,-1.17284 4.11007,-7.2309 5.57423,-11.53916 2.15139,3.97086 3.65725,5.98348 2.47538,12.79728 -3.23957,4.82854 -6.36494,4.84521 -9.498,5.18492 -0.0817,-3.03951 -0.14887,-6.05618 1.44838,-6.44304 z"
         id="path1394"
         inkscape:connector-curvature="0"
         sodipodi:nodetypes="ccccc"
         inkscape:transform-center-x="-4.6334487"
         inkscape:transform-center-y="-6.4640926" />
      <path
         sodipodi:nodetypes="sssss"
         inkscape:connector-curvature="0"
         id="path1400"
         d="m 373.1874,585.2904 c 0,4.60973 -3.61373,8.34665 -8.07148,8.34665 -4.45776,0 -12.49899,-7.06339 -8.07148,-8.34665 2.20578,-0.63931 6.29021,-3.52896 8.07148,-8.34664 1.54591,-4.18111 8.07148,3.73692 8.07148,8.34664 z"
         style="opacity:0.95999995;fill:#aa4400;fill-opacity:1;stroke:none;stroke-width:1.45279229;stroke-linecap:round;stroke-miterlimit:4;stroke-dasharray:none;stroke-dashoffset:1.51419175;stroke-opacity:1" />
      <path
         sodipodi:nodetypes="csssc"
         inkscape:connector-curvature="0"
         id="path1407"
         d="m 357.73588,585.8441 c 0,0 1.00834,-3.86831 3.6055,-5.03716 2.59715,-1.16885 6.06845,-2.34541 5.90073,-1.01568 -0.41311,3.27534 -0.45236,5.2334 -4.81888,6.75611 -2.68921,0.93781 0,0 -4.68735,-0.70327 z"
         style="opacity:0.95999995;fill:#ffffff;fill-opacity:1;stroke:#552200;stroke-width:1.13248599;stroke-linecap:round;stroke-miterlimit:4;stroke-dasharray:none;stroke-dashoffset:1.51419175;stroke-opacity:1" />
      <path
         style="display:inline;opacity:1;fill:#000000;fill-opacity:1;stroke:none;stroke-width:0.7791326;stroke-linecap:round;stroke-linejoin:bevel;stroke-miterlimit:4;stroke-dasharray:none;stroke-dashoffset:0;stroke-opacity:1"
         d="m 364.97777,583.98533 c -0.23025,1.07936 -1.17986,1.85356 -2.28343,1.86168 -1.10361,0.008 -2.06449,-0.752 -2.31061,-1.82786 -0.24612,-1.07583 0.28867,-2.17813 1.28602,-2.65066 0.99735,-0.47255 2.1891,-0.18821 2.86575,0.68363 -0.94784,0.32498 -1.91185,0.62973 -2.22513,1.7479 0.95717,-0.27836 1.87229,-0.34659 2.6674,0.18533 z"
         id="path1410"
         inkscape:connector-curvature="0"
         sodipodi:nodetypes="csssccc" />
    </g>
  </g>
  <g
     inkscape:groupmode="layer"
     id="layer8"
     inkscape:label="teteMeuh"
     sodipodi:insensitive="true"
     style="display:none">
    <g
       style="display:inline"
       transform="rotate(15.04355,1603.5023,549.84417)"
       inkscape:transform-center-y="-12.170564"
       inkscape:transform-center-x="33.890056"
       id="teteMeuh"
       inkscape:label="#g1263">
      <g
         transform="matrix(1.3869994,0,0,1.3869994,-692.47915,-34.230638)"
         id="g1241">
        <path
           sodipodi:nodetypes="ccccccccccc"
           inkscape:connector-curvature="0"
           id="path1239"
           d="m 744.20251,369.3297 c 1.02168,-1.73577 1.20159,-3.87129 2.48605,-5.46974 1.25727,-1.93121 3.00169,-3.55971 5.06453,-4.59919 2.63498,-0.38223 4.61952,-1.25424 7.10225,-0.79347 1.04333,0.30851 2.24795,0.66227 2.98715,1.49413 0.15746,0.80186 -0.96595,1.02239 -1.08331,1.78463 -0.22417,1.82292 1.00174,3.36373 -0.19425,4.92412 -1.25722,2.97825 -4.31092,4.77466 -6.36633,5.74222 -0.91659,-0.12854 -1.97395,0.0103 -2.58531,0.77987 -0.88054,0.73179 -2.10926,0.97121 -3.2177,0.73371 -0.62972,0.0573 -1.22291,0.29986 -1.84577,0.39467"
           style="fill:#aa4400;stroke:#000000;stroke-width:0.62499899;stroke-linecap:butt;stroke-linejoin:miter;stroke-miterlimit:4;stroke-dasharray:none;stroke-opacity:1" />
      </g>
      <path
         inkscape:transform-center-y="-8.9656923"
         inkscape:transform-center-x="6.4266131"
         sodipodi:nodetypes="ccccc"
         inkscape:connector-curvature="0"
         id="path1243"
         d="m 349.48128,475.6351 c -5.7399,-1.62673 -5.7007,-10.02926 -7.7315,-16.00481 -2.9839,5.50758 -5.0726,8.29908 -3.4333,17.74982 4.4932,6.69718 8.8281,6.7203 13.1737,7.19148 0.1138,-4.2158 0.2064,-8.39992 -2.0089,-8.93649 z"
         style="display:inline;fill:#552200;fill-opacity:1;stroke:none;stroke-width:1.90806901px;stroke-linecap:butt;stroke-linejoin:miter;stroke-opacity:1" />
      <path
         inkscape:transform-center-y="-9.1243334"
         inkscape:transform-center-x="32.940391"
         sodipodi:nodetypes="ccccccccc"
         inkscape:connector-curvature="0"
         id="path1245"
         d="m 375.68035,546.50643 c -7.6919,-8.55012 -23.08127,-7.42636 -31.63957,-5.91735 -8.0594,-2.65571 -13.826,-2.44246 -20.6139,3.76159 -10.5448,-0.17213 -18.9656,-13.11288 -7.0121,-20.49583 8.5562,-7.86984 10.8543,-18.65344 15.5544,-28.27346 5.7483,-3.93731 4.4334,-10.96377 9.271,-14.4345 4.7786,-0.17823 6.5164,-0.20135 10.0373,0.52828 9.8418,0.47508 74.74097,-16.31669 85.88427,-16.04098 11.28122,26.29948 -36.78712,78.02291 -61.4814,80.87225 z"
         style="fill:#aa4400;stroke:#aa4400;stroke-width:0.8668732;stroke-linecap:butt;stroke-linejoin:miter;stroke-miterlimit:4;stroke-dasharray:none;stroke-opacity:1" />
      <path
         inkscape:transform-center-y="3.1722078"
         inkscape:transform-center-x="1.9810546"
         d="m 330.12448,545.56081 c 0,0 1.2079,1.40138 2.9267,0.78128 1.7325,-0.30822 3.9004,-0.34603 5.3795,-1.75849 1.0757,-1.23313 2.3305,-3.85604 4.5111,-3.82415 2.152,-0.10749 4.9198,-4.24747 4.9198,-4.24747 l -4.2039,-2.42362 z"
         style="fill:#aa4400;stroke:#aa4400;stroke-width:0.8668732;stroke-linecap:butt;stroke-linejoin:miter;stroke-miterlimit:4;stroke-dasharray:none;stroke-opacity:1"
         id="boucheMeuh"
         inkscape:connector-curvature="0"
         inkscape:label="#path1247" />
      <g
         transform="matrix(1.3869994,0,0,1.3869994,-687.52559,-29.772418)"
         id="g1253">
        <path
           style="fill:#aa4400;stroke:#000000;stroke-width:0.62499899;stroke-linecap:butt;stroke-linejoin:miter;stroke-miterlimit:4;stroke-dasharray:none;stroke-opacity:1"
           d="m 744.20251,369.3297 c 1.02168,-1.73577 1.20159,-3.87129 2.48605,-5.46974 1.25727,-1.93121 3.00169,-3.55971 5.06453,-4.59919 2.63498,-0.38223 4.61952,-1.25424 7.10225,-0.79347 1.04333,0.30851 2.24795,0.66227 2.98715,1.49413 0.15746,0.80186 -0.96595,1.02239 -1.08331,1.78463 -0.22417,1.82292 1.00174,3.36373 -0.19425,4.92412 -1.25722,2.97825 -4.31092,4.77466 -6.36633,5.74222 -0.91659,-0.12854 -1.97395,0.0103 -2.58531,0.77987 -0.88054,0.73179 -2.10926,0.97121 -3.2177,0.73371 -0.62972,0.0573 -1.22291,0.29986 -1.84577,0.39467"
           id="path1249"
           inkscape:connector-curvature="0"
           sodipodi:nodetypes="ccccccccccc" />
        <path
           sodipodi:nodetypes="ccccccccccc"
           inkscape:connector-curvature="0"
           id="path1251"
           d="m 747.5027,368.29616 c 0.67014,-1.13852 0.78815,-2.53925 1.63065,-3.5877 0.82466,-1.26671 1.96886,-2.33487 3.32191,-3.01669 1.72833,-0.25071 3.03003,-0.82267 4.65849,-0.52045 0.68434,0.20236 1.47447,0.4344 1.95933,0.98003 0.10328,0.52595 -0.63359,0.6706 -0.71057,1.17057 -0.14703,1.19568 0.65706,2.20633 -0.12741,3.22981 -0.82463,1.95349 -2.82761,3.13179 -4.17579,3.76643 -0.6012,-0.0843 -1.29474,0.007 -1.69575,0.51153 -0.57756,0.47999 -1.3835,0.63703 -2.11054,0.48125 -0.41305,0.0376 -0.80213,0.19668 -1.21067,0.25887"
           style="fill:#aa4400;stroke:#000000;stroke-width:0.40994772;stroke-linecap:butt;stroke-linejoin:miter;stroke-miterlimit:4;stroke-dasharray:none;stroke-opacity:1" />
      </g>
      <path
         inkscape:connector-curvature="0"
         id="path1255"
         d="m 341.55266,483.81617 c -4.7292,8.57975 -11.29895,19.11354 -4.2836,28.41141 1.91298,8.73266 14.60706,3.85183 15.03384,12.54749 -2.40023,4.81551 4.64235,18.21862 7.29873,8.60582 0.14911,-7.89083 12.79936,-0.10978 10.87748,-9.73357 -3.10476,-6.79654 11.90629,-16.95685 7.56066,-22.30098 -4.09946,-0.076 -14.26329,15.20578 -13.89954,4.95196 -2.65465,-5.82963 -12.84698,-5.20792 -11.60582,-13.61313 -2.12146,-4.44606 -6.69311,-6.92098 -10.98175,-8.869 z"
         style="display:inline;fill:#d38d5f;stroke:#d38d5f;stroke-width:0.77948552px;stroke-linecap:butt;stroke-linejoin:miter;stroke-opacity:1"
         sodipodi:nodetypes="ccccccccc" />
      <path
         sodipodi:nodetypes="cscsc"
         inkscape:connector-curvature="0"
         id="path1257"
         d="m 344.11678,496.77265 c 0.5892,1.35648 -0.5838,4.05342 -3.2123,5.4425 -2.6285,1.38912 -4.7425,1.45197 -7.1648,0.21327 0.5739,-2.25888 0.8755,-4.41086 3.504,-5.79994 2.6285,-1.38909 5.6742,-0.85634 6.8731,0.14417 z"
         style="opacity:1;fill:#ffffff;fill-opacity:1;stroke:#803300;stroke-width:1.47276616;stroke-linecap:round;stroke-miterlimit:4;stroke-dasharray:none;stroke-dashoffset:1.51419175;stroke-opacity:1" />
      <path
         sodipodi:nodetypes="sssss"
         inkscape:connector-curvature="0"
         id="path1259"
         d="m 319.27248,529.40877 c 0.8404,1.24815 0.677,2.82862 -0.365,3.53007 -1.0417,0.70144 -2.5676,0.25824 -3.4079,-0.9899 -0.8404,-1.24816 0.5946,-0.94003 1.6363,-1.64148 1.0419,-0.70144 1.2963,-2.14685 2.1366,-0.89869 z"
         style="opacity:1;fill:#000000;fill-opacity:1;stroke:none;stroke-width:1.71580851;stroke-linecap:round;stroke-miterlimit:4;stroke-dasharray:none;stroke-dashoffset:1.51419175;stroke-opacity:1" />
      <path
         sodipodi:nodetypes="csssccc"
         inkscape:connector-curvature="0"
         id="path1261"
         d="m 340.6016,500.29965 c -0.23025,1.07936 -1.17986,1.85356 -2.28343,1.86168 -1.10361,0.008 -2.06449,-0.752 -2.31061,-1.82786 -0.24612,-1.07583 0.28867,-2.17813 1.28602,-2.65066 0.99735,-0.47255 2.1891,-0.18821 2.86575,0.68363 -0.94784,0.32498 -1.91185,0.62973 -2.22513,1.7479 0.95717,-0.27836 1.87229,-0.34659 2.6674,0.18533 z"
         style="display:inline;opacity:1;fill:#000000;fill-opacity:1;stroke:none;stroke-width:0.7791326;stroke-linecap:round;stroke-linejoin:bevel;stroke-miterlimit:4;stroke-dasharray:none;stroke-dashoffset:0;stroke-opacity:1" />
    </g>
  </g>
  <g
     inkscape:groupmode="layer"
     id="layer9"
     inkscape:label="teteBroute"
     sodipodi:insensitive="true"
     style="display:inline">
    <g
       style="display:inline"
       id="teteBroute"
       inkscape:transform-center-x="15.072592"
       inkscape:transform-center-y="19.524176"
       transform="rotate(-44.175405,69.873301,313.96664)"
       inkscape:label="#g2078">
      <g
         id="g2020"
         transform="matrix(1.3869994,0,0,1.3869994,-692.47915,-34.230638)">
        <path
           style="fill:#aa4400;stroke:#000000;stroke-width:0.62499899;stroke-linecap:butt;stroke-linejoin:miter;stroke-miterlimit:4;stroke-dasharray:none;stroke-opacity:1"
           d="m 744.20251,369.3297 c 1.02168,-1.73577 1.20159,-3.87129 2.48605,-5.46974 1.25727,-1.93121 3.00169,-3.55971 5.06453,-4.59919 2.63498,-0.38223 4.61952,-1.25424 7.10225,-0.79347 1.04333,0.30851 2.24795,0.66227 2.98715,1.49413 0.15746,0.80186 -0.96595,1.02239 -1.08331,1.78463 -0.22417,1.82292 1.00174,3.36373 -0.19425,4.92412 -1.25722,2.97825 -4.31092,4.77466 -6.36633,5.74222 -0.91659,-0.12854 -1.97395,0.0103 -2.58531,0.77987 -0.88054,0.73179 -2.10926,0.97121 -3.2177,0.73371 -0.62972,0.0573 -1.22291,0.29986 -1.84577,0.39467"
           id="path2018"
           inkscape:connector-curvature="0"
           sodipodi:nodetypes="ccccccccccc" />
      </g>
      <path
         style="display:inline;fill:#552200;fill-opacity:1;stroke:none;stroke-width:1.90806901px;stroke-linecap:butt;stroke-linejoin:miter;stroke-opacity:1"
         d="m 349.48128,475.6351 c -5.7399,-1.62673 -5.7007,-10.02926 -7.7315,-16.00481 -2.9839,5.50758 -5.0726,8.29908 -3.4333,17.74982 4.4932,6.69718 8.8281,6.7203 13.1737,7.19148 0.1138,-4.2158 0.2064,-8.39992 -2.0089,-8.93649 z"
         id="path2022"
         inkscape:connector-curvature="0"
         sodipodi:nodetypes="ccccc"
         inkscape:transform-center-x="6.4266131"
         inkscape:transform-center-y="-8.9656923" />
      <path
         style="fill:#aa4400;stroke:#aa4400;stroke-width:0.8668732;stroke-linecap:butt;stroke-linejoin:miter;stroke-miterlimit:4;stroke-dasharray:none;stroke-opacity:1"
         d="m 382.14057,549.00921 c -7.6919,-8.55012 -29.54149,-9.92914 -38.09979,-8.42013 -8.0594,-2.65571 -13.826,-2.44246 -20.6139,3.76159 -10.5448,-0.17213 -18.9656,-13.11288 -7.0121,-20.49583 8.5562,-7.86984 10.8543,-18.65344 15.5544,-28.27346 5.7483,-3.93731 4.4334,-10.96377 9.271,-14.4345 4.7786,-0.17823 6.5164,-0.20135 10.0373,0.52828 9.8418,0.47508 79.71478,-30.50944 88.84889,-24.12061 4.5462,3.17983 1.63864,8.56361 3.91844,18.30878 -30.47572,16.89618 -51.05935,66.35917 -61.90424,73.14588 z"
         id="path2036"
         inkscape:connector-curvature="0"
         sodipodi:nodetypes="cccccccscc"
         inkscape:transform-center-x="32.940391"
         inkscape:transform-center-y="-9.1243334" />
      <path
         inkscape:connector-curvature="0"
         id="boucheBroute"
         style="fill:#aa4400;stroke:#aa4400;stroke-width:0.8668732;stroke-linecap:butt;stroke-linejoin:miter;stroke-miterlimit:4;stroke-dasharray:none;stroke-opacity:1"
         d="m 330.12448,545.56081 c 0,0 1.2079,1.40138 2.9267,0.78128 1.7325,-0.30822 3.9004,-0.34603 5.3795,-1.75849 1.0757,-1.23313 2.3305,-3.85604 4.5111,-3.82415 2.152,-0.10749 4.9198,-4.24747 4.9198,-4.24747 l -4.2039,-2.42362 z"
         inkscape:transform-center-x="1.9810546"
         inkscape:transform-center-y="3.1722078"
         inkscape:label="#path2044" />
      <g
         id="g2050"
         transform="matrix(1.3869994,0,0,1.3869994,-687.52559,-29.772418)">
        <path
           sodipodi:nodetypes="ccccccccccc"
           inkscape:connector-curvature="0"
           id="path2046"
           d="m 744.20251,369.3297 c 1.02168,-1.73577 1.20159,-3.87129 2.48605,-5.46974 1.25727,-1.93121 3.00169,-3.55971 5.06453,-4.59919 2.63498,-0.38223 4.61952,-1.25424 7.10225,-0.79347 1.04333,0.30851 2.24795,0.66227 2.98715,1.49413 0.15746,0.80186 -0.96595,1.02239 -1.08331,1.78463 -0.22417,1.82292 1.00174,3.36373 -0.19425,4.92412 -1.25722,2.97825 -4.31092,4.77466 -6.36633,5.74222 -0.91659,-0.12854 -1.97395,0.0103 -2.58531,0.77987 -0.88054,0.73179 -2.10926,0.97121 -3.2177,0.73371 -0.62972,0.0573 -1.22291,0.29986 -1.84577,0.39467"
           style="fill:#aa4400;stroke:#000000;stroke-width:0.62499899;stroke-linecap:butt;stroke-linejoin:miter;stroke-miterlimit:4;stroke-dasharray:none;stroke-opacity:1" />
        <path
           style="fill:#aa4400;stroke:#000000;stroke-width:0.40994772;stroke-linecap:butt;stroke-linejoin:miter;stroke-miterlimit:4;stroke-dasharray:none;stroke-opacity:1"
           d="m 747.5027,368.29616 c 0.67014,-1.13852 0.78815,-2.53925 1.63065,-3.5877 0.82466,-1.26671 1.96886,-2.33487 3.32191,-3.01669 1.72833,-0.25071 3.03003,-0.82267 4.65849,-0.52045 0.68434,0.20236 1.47447,0.4344 1.95933,0.98003 0.10328,0.52595 -0.63359,0.6706 -0.71057,1.17057 -0.14703,1.19568 0.65706,2.20633 -0.12741,3.22981 -0.82463,1.95349 -2.82761,3.13179 -4.17579,3.76643 -0.6012,-0.0843 -1.29474,0.007 -1.69575,0.51153 -0.57756,0.47999 -1.3835,0.63703 -2.11054,0.48125 -0.41305,0.0376 -0.80213,0.19668 -1.21067,0.25887"
           id="path2048"
           inkscape:connector-curvature="0"
           sodipodi:nodetypes="ccccccccccc" />
      </g>
      <path
         style="display:inline;fill:#d38d5f;stroke:#d38d5f;stroke-width:0.51174796px;stroke-linecap:butt;stroke-linejoin:miter;stroke-opacity:1"
         d="m 338.17479,488.49948 c -3.10482,5.63278 -7.41799,12.54842 -2.81227,18.65267 1.25591,5.73316 9.58983,2.5288 9.87002,8.23767 -1.5758,3.16148 3.04779,11.9609 4.79176,5.6499 0.0979,-5.18049 8.40304,-0.0721 7.14129,-6.39029 -2.03834,-4.46206 3.09685,-9.86398 0.24386,-13.37251 -2.69139,-0.0499 -4.64427,8.71437 -4.40546,1.98253 -1.74284,-3.82727 -8.43431,-3.4191 -7.61946,-8.93729 -1.39278,-2.91893 -4.39416,-4.54377 -7.20974,-5.82268 z"
         id="path2052"
         inkscape:connector-curvature="0" />
      <path
         style="opacity:1;fill:#ffffff;fill-opacity:1;stroke:#803300;stroke-width:1.47276616;stroke-linecap:round;stroke-miterlimit:4;stroke-dasharray:none;stroke-dashoffset:1.51419175;stroke-opacity:1"
         d="m 344.11678,496.77265 c 0.5892,1.35648 -0.5838,4.05342 -3.2123,5.4425 -2.6285,1.38912 -4.7425,1.45197 -7.1648,0.21327 0.5739,-2.25888 0.8755,-4.41086 3.504,-5.79994 2.6285,-1.38909 5.6742,-0.85634 6.8731,0.14417 z"
         id="path2054"
         inkscape:connector-curvature="0"
         sodipodi:nodetypes="cscsc" />
      <path
         style="opacity:1;fill:#000000;fill-opacity:1;stroke:none;stroke-width:1.71580851;stroke-linecap:round;stroke-miterlimit:4;stroke-dasharray:none;stroke-dashoffset:1.51419175;stroke-opacity:1"
         d="m 319.27248,529.40877 c 0.8404,1.24815 0.677,2.82862 -0.365,3.53007 -1.0417,0.70144 -2.5676,0.25824 -3.4079,-0.9899 -0.8404,-1.24816 0.5946,-0.94003 1.6363,-1.64148 1.0419,-0.70144 1.2963,-2.14685 2.1366,-0.89869 z"
         id="path2056"
         inkscape:connector-curvature="0"
         sodipodi:nodetypes="sssss" />
      <path
         style="display:inline;opacity:1;fill:#000000;fill-opacity:1;stroke:none;stroke-width:0.7791326;stroke-linecap:round;stroke-linejoin:bevel;stroke-miterlimit:4;stroke-dasharray:none;stroke-dashoffset:0;stroke-opacity:1"
         d="m 340.6016,500.29965 c -0.23025,1.07936 -1.17986,1.85356 -2.28343,1.86168 -1.10361,0.008 -2.06449,-0.752 -2.31061,-1.82786 -0.24612,-1.07583 0.28867,-2.17813 1.28602,-2.65066 0.99735,-0.47255 2.1891,-0.18821 2.86575,0.68363 -0.94784,0.32498 -1.91185,0.62973 -2.22513,1.7479 0.95717,-0.27836 1.87229,-0.34659 2.6674,0.18533 z"
         id="path2064"
         inkscape:connector-curvature="0"
         sodipodi:nodetypes="csssccc" />
    </g>
  </g>
</svg>
