<?xml version="1.0" encoding="UTF-8" standalone="no"?>
<!-- Created with Inkscape (http://www.inkscape.org/) -->

<svg
   xmlns:dc="http://purl.org/dc/elements/1.1/"
   xmlns:cc="http://creativecommons.org/ns#"
   xmlns:rdf="http://www.w3.org/1999/02/22-rdf-syntax-ns#"
   xmlns:svg="http://www.w3.org/2000/svg"
   xmlns="http://www.w3.org/2000/svg"
   xmlns:sodipodi="http://sodipodi.sourceforge.net/DTD/sodipodi-0.dtd"
   xmlns:inkscape="http://www.inkscape.org/namespaces/inkscape"
   width="784.3703"
   height="624.02386"
   id="svg10994"
   version="1.1"
   inkscape:version="0.92.3 (2405546, 2018-03-11)"
   sodipodi:docname="vache_tete.svg">
  <title
     id="title1139">vache</title>
  <defs
     id="defs10996">
    <filter
       inkscape:collect="always"
       id="filter12162-0"
       x="-0.10181596"
       width="1.2036319"
       y="-0.25689492"
       height="1.5137898"
       style="color-interpolation-filters:sRGB">
      <feGaussianBlur
         inkscape:collect="always"
         stdDeviation="0.48732764"
         id="feGaussianBlur12164-0" />
    </filter>
  </defs>
  <sodipodi:namedview
     id="base"
     pagecolor="#ffffff"
     bordercolor="#666666"
     borderopacity="1.0"
     inkscape:pageopacity="0.0"
     inkscape:pageshadow="2"
     inkscape:zoom="1.4"
     inkscape:cx="389.26852"
     inkscape:cy="343.71238"
     inkscape:document-units="px"
     inkscape:current-layer="layer8"
     showgrid="true"
     inkscape:window-width="1366"
     inkscape:window-height="689"
     inkscape:window-x="-9"
     inkscape:window-y="-9"
     inkscape:window-maximized="1"
     inkscape:snap-global="true"
     showguides="true"
     fit-margin-top="0"
     fit-margin-left="0"
     fit-margin-right="0"
     fit-margin-bottom="0"
     inkscape:guide-bbox="true">
    <inkscape:grid
       type="xygrid"
       id="grid5300"
       originx="-467.37442"
       originy="-55.911884" />
  </sodipodi:namedview>
  <metadata
     id="metadata10999">
    <rdf:RDF>
      <cc:Work
         rdf:about="">
        <dc:format>image/svg+xml</dc:format>
        <dc:type
           rdf:resource="http://purl.org/dc/dcmitype/StillImage" />
        <dc:title>vache</dc:title>
        <dc:date>2018-05-29</dc:date>
        <dc:creator>
          <cc:Agent>
            <dc:title>V.Bayon</dc:title>
          </cc:Agent>
        </dc:creator>
        <dc:rights>
          <cc:Agent>
            <dc:title>CC-BY-NC</dc:title>
          </cc:Agent>
        </dc:rights>
      </cc:Work>
    </rdf:RDF>
  </metadata>
  <g
     inkscape:groupmode="layer"
     id="layer6"
     inkscape:label="tete"
     style="display:inline">
    <g
       style="display:inline"
       id="tete"
       transform="translate(-500.67521,-621.19823)"
       inkscape:label="#g1152">
      <g
         transform="matrix(1.3869994,0,0,1.3869994,-139.45514,258.00566)"
         id="g1761">
        <path
           sodipodi:nodetypes="ccccccccccc"
           inkscape:connector-curvature="0"
           id="path1757"
           d="m 744.20251,369.3297 c 1.02168,-1.73577 1.20159,-3.87129 2.48605,-5.46974 1.25727,-1.93121 3.00169,-3.55971 5.06453,-4.59919 2.63498,-0.38223 4.61952,-1.25424 7.10225,-0.79347 1.04333,0.30851 2.24795,0.66227 2.98715,1.49413 0.15746,0.80186 -0.96595,1.02239 -1.08331,1.78463 -0.22417,1.82292 1.00174,3.36373 -0.19425,4.92412 -1.25722,2.97825 -4.31092,4.77466 -6.36633,5.74222 -0.91659,-0.12854 -1.97395,0.0103 -2.58531,0.77987 -0.88054,0.73179 -2.10926,0.97121 -3.2177,0.73371 -0.62972,0.0573 -1.22291,0.29986 -1.84577,0.39467"
           style="fill:#aa4400;stroke:#000000;stroke-width:0.62499899;stroke-linecap:butt;stroke-linejoin:miter;stroke-miterlimit:4;stroke-dasharray:none;stroke-opacity:1" />
      </g>
      <path
         inkscape:transform-center-y="-8.9656923"
         inkscape:transform-center-x="6.4266131"
         sodipodi:nodetypes="ccccc"
         inkscape:connector-curvature="0"
         id="path1394-2"
         d="m 902.50529,767.8714 c -5.7399,-1.62673 -5.7007,-10.02926 -7.7315,-16.00481 -2.9839,5.50758 -5.0726,8.29908 -3.4333,17.74982 4.4932,6.69718 8.8281,6.7203 13.1737,7.19148 0.1138,-4.2158 0.2064,-8.39992 -2.0089,-8.93649 z"
         style="display:inline;fill:#552200;fill-opacity:1;stroke:none;stroke-width:1.90806901px;stroke-linecap:butt;stroke-linejoin:miter;stroke-opacity:1" />
      <path
         inkscape:transform-center-y="-9.1243334"
         inkscape:transform-center-x="32.940391"
         sodipodi:nodetypes="ccccccccc"
         inkscape:connector-curvature="0"
         id="path1314"
         d="m 925.30119,839.15597 c -7.6919,-8.55012 -19.6781,-7.8396 -28.2364,-6.33059 -8.0594,-2.65571 -13.826,-2.44246 -20.6139,3.76159 -10.5448,-0.17213 -18.9656,-13.11288 -7.0121,-20.49583 8.5562,-7.86984 10.8543,-18.65344 15.5544,-28.27346 5.7483,-3.93731 4.4334,-10.96377 9.271,-14.4345 4.7786,-0.17823 6.5164,-0.20135 10.0373,0.52828 9.8418,0.47508 21.856,6.94681 32.9993,7.22252 25.0799,15.00076 6.5616,57.48694 -11.9996,58.02193 z"
         style="fill:#aa4400;stroke:#aa4400;stroke-width:0.8668732;stroke-linecap:butt;stroke-linejoin:miter;stroke-miterlimit:4;stroke-dasharray:none;stroke-opacity:1" />
      <path
         inkscape:transform-center-y="3.1722078"
         inkscape:transform-center-x="1.9810546"
         d="m 883.14849,837.79711 c 0,0 1.2079,1.40138 2.9267,0.78128 1.7325,-0.30822 3.9004,-0.34603 5.3795,-1.75849 1.0757,-1.23313 2.3305,-3.85604 4.5111,-3.82415 2.152,-0.10749 4.9198,-4.24747 4.9198,-4.24747 l -4.2039,-2.42362 z"
         style="fill:#aa4400;stroke:#aa4400;stroke-width:0.8668732;stroke-linecap:butt;stroke-linejoin:miter;stroke-miterlimit:4;stroke-dasharray:none;stroke-opacity:1"
         id="path1118-2"
         inkscape:connector-curvature="0" />
      <g
         transform="matrix(1.3869994,0,0,1.3869994,-134.50158,262.46388)"
         id="g1755">
        <path
           style="fill:#aa4400;stroke:#000000;stroke-width:0.62499899;stroke-linecap:butt;stroke-linejoin:miter;stroke-miterlimit:4;stroke-dasharray:none;stroke-opacity:1"
           d="m 744.20251,369.3297 c 1.02168,-1.73577 1.20159,-3.87129 2.48605,-5.46974 1.25727,-1.93121 3.00169,-3.55971 5.06453,-4.59919 2.63498,-0.38223 4.61952,-1.25424 7.10225,-0.79347 1.04333,0.30851 2.24795,0.66227 2.98715,1.49413 0.15746,0.80186 -0.96595,1.02239 -1.08331,1.78463 -0.22417,1.82292 1.00174,3.36373 -0.19425,4.92412 -1.25722,2.97825 -4.31092,4.77466 -6.36633,5.74222 -0.91659,-0.12854 -1.97395,0.0103 -2.58531,0.77987 -0.88054,0.73179 -2.10926,0.97121 -3.2177,0.73371 -0.62972,0.0573 -1.22291,0.29986 -1.84577,0.39467"
           id="path1384"
           inkscape:connector-curvature="0"
           sodipodi:nodetypes="ccccccccccc" />
        <path
           sodipodi:nodetypes="ccccccccccc"
           inkscape:connector-curvature="0"
           id="path1395"
           d="m 747.5027,368.29616 c 0.67014,-1.13852 0.78815,-2.53925 1.63065,-3.5877 0.82466,-1.26671 1.96886,-2.33487 3.32191,-3.01669 1.72833,-0.25071 3.03003,-0.82267 4.65849,-0.52045 0.68434,0.20236 1.47447,0.4344 1.95933,0.98003 0.10328,0.52595 -0.63359,0.6706 -0.71057,1.17057 -0.14703,1.19568 0.65706,2.20633 -0.12741,3.22981 -0.82463,1.95349 -2.82761,3.13179 -4.17579,3.76643 -0.6012,-0.0843 -1.29474,0.007 -1.69575,0.51153 -0.57756,0.47999 -1.3835,0.63703 -2.11054,0.48125 -0.41305,0.0376 -0.80213,0.19668 -1.21067,0.25887"
           style="fill:#aa4400;stroke:#000000;stroke-width:0.40994772;stroke-linecap:butt;stroke-linejoin:miter;stroke-miterlimit:4;stroke-dasharray:none;stroke-opacity:1" />
      </g>
      <path
         inkscape:connector-curvature="0"
         id="path1835-7"
         d="m 891.1988,780.73578 c -3.10482,5.63278 -7.41799,12.54842 -2.81227,18.65267 1.25591,5.73316 9.58983,2.5288 9.87002,8.23767 -1.5758,3.16148 3.04779,11.9609 4.79176,5.6499 0.0979,-5.18049 8.40304,-0.0721 7.14129,-6.39029 -2.03834,-4.46206 3.09685,-9.86398 0.24386,-13.37251 -2.69139,-0.0499 -4.64427,8.71437 -4.40546,1.98253 -1.74284,-3.82727 -8.43431,-3.4191 -7.61946,-8.93729 -1.39278,-2.91893 -4.39416,-4.54377 -7.20974,-5.82268 z"
         style="display:inline;fill:#d38d5f;stroke:#d38d5f;stroke-width:0.51174796px;stroke-linecap:butt;stroke-linejoin:miter;stroke-opacity:1" />
      <path
         sodipodi:nodetypes="cscsc"
         inkscape:connector-curvature="0"
         id="path1403"
         d="m 897.14079,789.00895 c 0.5892,1.35648 -0.5838,4.05342 -3.2123,5.4425 -2.6285,1.38912 -4.7425,1.45197 -7.1648,0.21327 0.5739,-2.25888 0.8755,-4.41086 3.504,-5.79994 2.6285,-1.38909 5.6742,-0.85634 6.8731,0.14417 z"
         style="opacity:1;fill:#ffffff;fill-opacity:1;stroke:#803300;stroke-width:1.47276616;stroke-linecap:round;stroke-miterlimit:4;stroke-dasharray:none;stroke-dashoffset:1.51419175;stroke-opacity:1" />
      <path
         style="opacity:1;fill:#000000;fill-opacity:1;stroke:none;stroke-width:1.71580851;stroke-linecap:round;stroke-miterlimit:4;stroke-dasharray:none;stroke-dashoffset:1.51419175;stroke-opacity:1"
         d="m 874.67297,824.89019 c 0.8404,1.24815 0.677,2.82862 -0.365,3.53007 -1.0417,0.70144 -2.5676,0.25824 -3.4079,-0.9899 -0.8404,-1.24816 0.5946,-0.94003 1.6363,-1.64148 1.0419,-0.70144 1.2963,-2.14685 2.1366,-0.89869 z"
         id="path1708"
         inkscape:connector-curvature="0"
         sodipodi:nodetypes="sssss" />
      <path
         style="display:inline;opacity:1;fill:#000000;fill-opacity:1;stroke:none;stroke-width:0.7791326;stroke-linecap:round;stroke-linejoin:bevel;stroke-miterlimit:4;stroke-dasharray:none;stroke-dashoffset:0;stroke-opacity:1"
         d="m 893.64475,792.72346 c -0.23025,1.07936 -1.17986,1.85356 -2.28343,1.86168 -1.10361,0.008 -2.06449,-0.752 -2.31061,-1.82786 -0.24612,-1.07583 0.28867,-2.17813 1.28602,-2.65066 0.99735,-0.47255 2.1891,-0.18821 2.86575,0.68363 -0.94784,0.32498 -1.91185,0.62973 -2.22513,1.7479 0.95717,-0.27836 1.87229,-0.34659 2.6674,0.18533 z"
         id="path1929"
         inkscape:connector-curvature="0"
         sodipodi:nodetypes="csssccc" />
    </g>
  </g>
  <g
     inkscape:groupmode="layer"
     id="layer7"
     inkscape:label="tet34face"
     style="display:none"
     sodipodi:insensitive="true">
    <g
       style="display:inline"
       id="tete34face"
       inkscape:transform-center-x="29.878569"
       inkscape:transform-center-y="-21.518574"
       transform="translate(43.43818,-430.35465)"
       inkscape:label="#g2190">
      <path
         inkscape:transform-center-y="-6.4640926"
         inkscape:transform-center-x="4.6334462"
         sodipodi:nodetypes="ccccc"
         inkscape:connector-curvature="0"
         id="path12034"
         d="m 351.22528,564.70415 c -4.13834,-1.17284 -4.11007,-7.2309 -5.57423,-11.53916 -2.15139,3.97086 -3.65725,5.98348 -2.47538,12.79728 3.23957,4.82854 6.36494,4.84521 9.498,5.18492 0.0817,-3.03951 0.14887,-6.05618 -1.44838,-6.44304 z"
         style="display:inline;fill:#552200;fill-opacity:1;stroke:none;stroke-width:1.37568128px;stroke-linecap:butt;stroke-linejoin:miter;stroke-opacity:1" />
      <path
         sodipodi:nodetypes="sssss"
         inkscape:connector-curvature="0"
         id="path11890-6-6"
         d="m 364.6074,578.64777 c 6.06207,-9.23067 13.05686,-14.86143 15.62327,-12.57664 2.56642,2.28479 -0.26738,11.61992 -6.32946,20.85059 -6.06207,9.23068 0.2168,-3.93606 -2.34961,-6.22086 -2.56641,-2.28477 -13.00628,7.1776 -6.9442,-2.05309 z"
         style="display:inline;fill:#1a1a1a;fill-opacity:1;fill-rule:evenodd;stroke:none" />
      <path
         sodipodi:nodetypes="sssss"
         inkscape:connector-curvature="0"
         id="path11890"
         d="m 349.7236,579.2385 c 3.32051,4.01249 -4.91778,-0.59017 -7.06242,1.5564 -2.14465,2.14657 8.93827,9.48223 -0.70401,6.21702 -10.41407,-3.52654 -13.50668,-12.22254 -10.91667,-14.87441 2.12015,-2.17076 12.19276,-0.74188 18.6831,7.10099 z"
         style="display:inline;fill:#000000;fill-opacity:1;fill-rule:evenodd;stroke:none" />
      <path
         sodipodi:nodetypes="sssssss"
         inkscape:connector-curvature="0"
         id="path11890-6"
         d="m 365.22113,579.6874 c 2.89861,-4.41368 5.39893,-9.92441 8.66871,-9.83999 2.67518,0.0691 4.08867,-2.19136 5.12788,-1.26619 1.29998,1.15732 -0.0172,0.0727 -1.49333,4.13449 -1.0973,3.01947 -1.81344,10.80248 -4.09608,14.27824 -5.3533,8.15142 3.39658,-12.3986 1.13023,-14.41624 -2.26635,-2.01766 -14.6907,15.2611 -9.33741,7.10969 z"
         style="display:inline;fill:#aa4400;fill-opacity:1;fill-rule:evenodd;stroke:none" />
      <path
         sodipodi:nodetypes="ssssss"
         inkscape:connector-curvature="0"
         id="path12138"
         d="m 343.12315,576.75684 c 0.7406,0.88382 -1.85776,4.34339 -2.60017,2.81087 -1.42525,-2.94209 -3.05823,1.86661 -3.4841,0.64109 -1.08583,-3.12466 -6.1352,-1.45357 -6.15462,-3.32496 -0.0194,-1.87139 3.0322,-1.09364 6.0843,-3.45196 2.67447,-2.06654 4.51575,1.36921 6.15459,3.32496 z"
         style="display:inline;fill:#803300;fill-opacity:1;fill-rule:evenodd;stroke:none" />
      <path
         sodipodi:nodetypes="cccccccccccc"
         inkscape:connector-curvature="0"
         id="path11120"
         d="m 351.22528,564.70415 c 7.73116,-0.42803 14.05141,-0.1322 16.55071,2.12391 l 10.71605,15.04011 c 9.32009,-1.49928 18.73681,6.31445 28.11347,10.26828 -2.19149,19.2849 -4.77022,38.39129 -29.81343,47.14059 l -11.69613,-20.99861 c -8.17186,2.71087 -14.28321,1.19154 -18.86042,-3.47734 -0.50096,2.75737 -5.36186,3.22509 -10.06166,3.77744 -4.47153,-2.60111 -11.27065,-1.89909 -9.04072,-10.20361 l 11.98753,-15.53824 c -1.85871,-12.38316 2.94459,-16.96246 9.87589,-21.68159 1.7591,-2.15031 2.11667,-4.30063 2.22871,-6.45094 z"
         style="display:inline;fill:#aa4400;stroke:#aa4400;stroke-width:1px;stroke-linecap:butt;stroke-linejoin:miter;stroke-opacity:1" />
      <path
         sodipodi:nodetypes="sssss"
         inkscape:connector-curvature="0"
         id="path12040"
         d="m 335.073,612.72387 c -1.70891,1.52758 0.40846,3.52679 -1.88354,3.55057 -2.29201,0.0238 -5.43371,-1.39372 -6.41654,-3.46444 -2.48684,-5.23947 1.60658,-4.41869 4.10697,-4.1931 2.28286,0.20596 4.68413,3.66806 4.19311,4.10697 z"
         style="display:inline;fill:#000000;fill-opacity:1;fill-rule:evenodd;stroke:none" />
      <path
         sodipodi:nodetypes="sssss"
         inkscape:connector-curvature="0"
         id="path12043"
         d="m 343.41996,610.59972 c 0.70661,0.88318 -0.29944,3.32862 -2.61533,5.18152 -2.31588,1.85288 -5.06464,2.41156 -5.77125,1.52838 -0.7066,-0.88317 2.28967,-0.84108 4.60555,-2.69397 2.31589,-1.85289 3.07443,-4.8991 3.78103,-4.01593 z"
         style="display:inline;fill:#000000;fill-opacity:1;fill-rule:evenodd;stroke:none" />
      <path
         style="display:inline;fill:#d38d5f;stroke:#d38d5f;stroke-width:0.63889444px;stroke-linecap:butt;stroke-linejoin:miter;stroke-opacity:1"
         d="m 361.19975,570.70014 c -0.73737,2.72589 -1.62664,5.46813 -3.23169,7.82874 -4.85121,1.83407 -5.48315,9.53593 -0.99199,12.11868 2.62277,1.31225 3.73087,4.80631 2.50688,7.41577 0.29752,2.23768 3.184,2.34078 4.70866,1.25423 1.29659,-1.89624 4.18373,-1.38313 4.60824,0.99358 0.43555,2.19366 0.4223,4.43313 1.5153,6.4848 1.04858,2.42619 0.0551,5.41235 1.85723,7.57854 1.18779,1.76999 4.59712,1.52288 4.83904,-0.8458 -1.36008,-9.59711 -0.33746,-4.33577 5.95792,-4.71144 2.81756,-0.60555 3.95759,-4.19241 2.45443,-6.49157 -1.18072,-2.10918 -2.58813,-4.66926 -1.23637,-7.03527 1.14809,-2.47623 4.24624,-4.01186 4.16744,-7.01662 -0.0579,-2.24276 -3.14654,-3.89284 -4.84483,-2.14402 -6.3242,9.8872 1.09781,5.3142 -6.17991,-0.47393 -2.02484,-1.0854 -4.94307,-1.61032 -5.47857,-4.2324 -0.81336,-2.37783 -1.78615,-4.88713 -3.95988,-6.372 -1.98192,-1.78554 -4.24818,-3.26203 -6.6919,-4.35129 z"
         id="path12136"
         inkscape:connector-curvature="0"
         sodipodi:nodetypes="cccccccccccccccccc" />
      <path
         transform="matrix(0.96883983,-0.01005282,0.00860348,0.82915973,-42.413949,353.27629)"
         sodipodi:nodetypes="sssss"
         inkscape:connector-curvature="0"
         id="path12159"
         d="m 402.53239,297.19851 c -0.31492,1.19921 -2.0698,-3.05533 -4.96431,-1.36032 -3.60281,2.10979 -6.78994,-0.44457 -6.47503,-1.64373 0.31492,-1.1992 3.131,-1.49888 6.28988,-0.66933 3.15888,0.82954 5.46438,2.47418 5.14946,3.67338 z"
         style="display:inline;fill:#803300;fill-opacity:1;fill-rule:evenodd;stroke:none;filter:url(#filter12162-0)" />
      <path
         style="display:inline;fill:#552200;fill-opacity:1;stroke:none;stroke-width:1.37568128px;stroke-linecap:butt;stroke-linejoin:miter;stroke-opacity:1"
         d="m 359.72638,565.56994 c 4.13834,-1.17284 4.11007,-7.2309 5.57423,-11.53916 2.15139,3.97086 3.65725,5.98348 2.47538,12.79728 -3.23957,4.82854 -6.36494,4.84521 -9.498,5.18492 -0.0817,-3.03951 -0.14887,-6.05618 1.44838,-6.44304 z"
         id="path1394"
         inkscape:connector-curvature="0"
         sodipodi:nodetypes="ccccc"
         inkscape:transform-center-x="-4.6334487"
         inkscape:transform-center-y="-6.4640926" />
      <path
         sodipodi:nodetypes="sssss"
         inkscape:connector-curvature="0"
         id="path1400"
         d="m 373.1874,585.2904 c 0,4.60973 -3.61373,8.34665 -8.07148,8.34665 -4.45776,0 -12.49899,-7.06339 -8.07148,-8.34665 2.20578,-0.63931 6.29021,-3.52896 8.07148,-8.34664 1.54591,-4.18111 8.07148,3.73692 8.07148,8.34664 z"
         style="opacity:0.95999995;fill:#aa4400;fill-opacity:1;stroke:none;stroke-width:1.45279229;stroke-linecap:round;stroke-miterlimit:4;stroke-dasharray:none;stroke-dashoffset:1.51419175;stroke-opacity:1" />
      <path
         sodipodi:nodetypes="csssc"
         inkscape:connector-curvature="0"
         id="path1407"
         d="m 357.73588,585.8441 c 0,0 1.00834,-3.86831 3.6055,-5.03716 2.59715,-1.16885 6.06845,-2.34541 5.90073,-1.01568 -0.41311,3.27534 -0.45236,5.2334 -4.81888,6.75611 -2.68921,0.93781 0,0 -4.68735,-0.70327 z"
         style="opacity:0.95999995;fill:#ffffff;fill-opacity:1;stroke:#552200;stroke-width:1.13248599;stroke-linecap:round;stroke-miterlimit:4;stroke-dasharray:none;stroke-dashoffset:1.51419175;stroke-opacity:1" />
      <path
         style="display:inline;opacity:1;fill:#000000;fill-opacity:1;stroke:none;stroke-width:0.7791326;stroke-linecap:round;stroke-linejoin:bevel;stroke-miterlimit:4;stroke-dasharray:none;stroke-dashoffset:0;stroke-opacity:1"
         d="m 364.97777,583.98533 c -0.23025,1.07936 -1.17986,1.85356 -2.28343,1.86168 -1.10361,0.008 -2.06449,-0.752 -2.31061,-1.82786 -0.24612,-1.07583 0.28867,-2.17813 1.28602,-2.65066 0.99735,-0.47255 2.1891,-0.18821 2.86575,0.68363 -0.94784,0.32498 -1.91185,0.62973 -2.22513,1.7479 0.95717,-0.27836 1.87229,-0.34659 2.6674,0.18533 z"
         id="path1410"
         inkscape:connector-curvature="0"
         sodipodi:nodetypes="csssccc" />
    </g>
  </g>
  <g
     inkscape:groupmode="layer"
     id="layer8"
     inkscape:label="teteMeuh"
     sodipodi:insensitive="true"
     style="display:none">
    <g
       style="display:inline"
       transform="rotate(15.04355,1603.5023,549.84417)"
       inkscape:transform-center-y="-12.170564"
       inkscape:transform-center-x="33.890056"
       id="teteMeuh"
       inkscape:label="#g1263">
      <g
         transform="matrix(1.3869994,0,0,1.3869994,-692.47915,-34.230638)"
         id="g1241">
        <path
           sodipodi:nodetypes="ccccccccccc"
           inkscape:connector-curvature="0"
           id="path1239"
           d="m 744.20251,369.3297 c 1.02168,-1.73577 1.20159,-3.87129 2.48605,-5.46974 1.25727,-1.93121 3.00169,-3.55971 5.06453,-4.59919 2.63498,-0.38223 4.61952,-1.25424 7.10225,-0.79347 1.04333,0.30851 2.24795,0.66227 2.98715,1.49413 0.15746,0.80186 -0.96595,1.02239 -1.08331,1.78463 -0.22417,1.82292 1.00174,3.36373 -0.19425,4.92412 -1.25722,2.97825 -4.31092,4.77466 -6.36633,5.74222 -0.91659,-0.12854 -1.97395,0.0103 -2.58531,0.77987 -0.88054,0.73179 -2.10926,0.97121 -3.2177,0.73371 -0.62972,0.0573 -1.22291,0.29986 -1.84577,0.39467"
           style="fill:#aa4400;stroke:#000000;stroke-width:0.62499899;stroke-linecap:butt;stroke-linejoin:miter;stroke-miterlimit:4;stroke-dasharray:none;stroke-opacity:1" />
      </g>
      <path
         inkscape:transform-center-y="-8.9656923"
         inkscape:transform-center-x="6.4266131"
         sodipodi:nodetypes="ccccc"
         inkscape:connector-curvature="0"
         id="path1243"
         d="m 349.48128,475.6351 c -5.7399,-1.62673 -5.7007,-10.02926 -7.7315,-16.00481 -2.9839,5.50758 -5.0726,8.29908 -3.4333,17.74982 4.4932,6.69718 8.8281,6.7203 13.1737,7.19148 0.1138,-4.2158 0.2064,-8.39992 -2.0089,-8.93649 z"
         style="display:inline;fill:#552200;fill-opacity:1;stroke:none;stroke-width:1.90806901px;stroke-linecap:butt;stroke-linejoin:miter;stroke-opacity:1" />
      <path
         inkscape:transform-center-y="-9.1243334"
         inkscape:transform-center-x="32.940391"
         sodipodi:nodetypes="ccccccccc"
         inkscape:connector-curvature="0"
         id="path1245"
         d="m 375.68035,546.50643 c -7.6919,-8.55012 -23.08127,-7.42636 -31.63957,-5.91735 -8.0594,-2.65571 -13.826,-2.44246 -20.6139,3.76159 -10.5448,-0.17213 -18.9656,-13.11288 -7.0121,-20.49583 8.5562,-7.86984 10.8543,-18.65344 15.5544,-28.27346 5.7483,-3.93731 4.4334,-10.96377 9.271,-14.4345 4.7786,-0.17823 6.5164,-0.20135 10.0373,0.52828 9.8418,0.47508 74.74097,-16.31669 85.88427,-16.04098 11.28122,26.29948 -36.78712,78.02291 -61.4814,80.87225 z"
         style="fill:#aa4400;stroke:#aa4400;stroke-width:0.8668732;stroke-linecap:butt;stroke-linejoin:miter;stroke-miterlimit:4;stroke-dasharray:none;stroke-opacity:1" />
      <path
         inkscape:transform-center-y="3.1722078"
         inkscape:transform-center-x="1.9810546"
         d="m 330.12448,545.56081 c 0,0 1.2079,1.40138 2.9267,0.78128 1.7325,-0.30822 3.9004,-0.34603 5.3795,-1.75849 1.0757,-1.23313 2.3305,-3.85604 4.5111,-3.82415 2.152,-0.10749 4.9198,-4.24747 4.9198,-4.24747 l -4.2039,-2.42362 z"
         style="fill:#aa4400;stroke:#aa4400;stroke-width:0.8668732;stroke-linecap:butt;stroke-linejoin:miter;stroke-miterlimit:4;stroke-dasharray:none;stroke-opacity:1"
         id="boucheMeuh"
         inkscape:connector-curvature="0"
         inkscape:label="#path1247" />
      <g
         transform="matrix(1.3869994,0,0,1.3869994,-687.52559,-29.772418)"
         id="g1253">
        <path
           style="fill:#aa4400;stroke:#000000;stroke-width:0.62499899;stroke-linecap:butt;stroke-linejoin:miter;stroke-miterlimit:4;stroke-dasharray:none;stroke-opacity:1"
           d="m 744.20251,369.3297 c 1.02168,-1.73577 1.20159,-3.87129 2.48605,-5.46974 1.25727,-1.93121 3.00169,-3.55971 5.06453,-4.59919 2.63498,-0.38223 4.61952,-1.25424 7.10225,-0.79347 1.04333,0.30851 2.24795,0.66227 2.98715,1.49413 0.15746,0.80186 -0.96595,1.02239 -1.08331,1.78463 -0.22417,1.82292 1.00174,3.36373 -0.19425,4.92412 -1.25722,2.97825 -4.31092,4.77466 -6.36633,5.74222 -0.91659,-0.12854 -1.97395,0.0103 -2.58531,0.77987 -0.88054,0.73179 -2.10926,0.97121 -3.2177,0.73371 -0.62972,0.0573 -1.22291,0.29986 -1.84577,0.39467"
           id="path1249"
           inkscape:connector-curvature="0"
           sodipodi:nodetypes="ccccccccccc" />
        <path
           sodipodi:nodetypes="ccccccccccc"
           inkscape:connector-curvature="0"
           id="path1251"
           d="m 747.5027,368.29616 c 0.67014,-1.13852 0.78815,-2.53925 1.63065,-3.5877 0.82466,-1.26671 1.96886,-2.33487 3.32191,-3.01669 1.72833,-0.25071 3.03003,-0.82267 4.65849,-0.52045 0.68434,0.20236 1.47447,0.4344 1.95933,0.98003 0.10328,0.52595 -0.63359,0.6706 -0.71057,1.17057 -0.14703,1.19568 0.65706,2.20633 -0.12741,3.22981 -0.82463,1.95349 -2.82761,3.13179 -4.17579,3.76643 -0.6012,-0.0843 -1.29474,0.007 -1.69575,0.51153 -0.57756,0.47999 -1.3835,0.63703 -2.11054,0.48125 -0.41305,0.0376 -0.80213,0.19668 -1.21067,0.25887"
           style="fill:#aa4400;stroke:#000000;stroke-width:0.40994772;stroke-linecap:butt;stroke-linejoin:miter;stroke-miterlimit:4;stroke-dasharray:none;stroke-opacity:1" />
      </g>
      <path
         inkscape:connector-curvature="0"
         id="path1255"
         d="m 341.55266,483.81617 c -4.7292,8.57975 -11.29895,19.11354 -4.2836,28.41141 1.91298,8.73266 14.60706,3.85183 15.03384,12.54749 -2.40023,4.81551 4.64235,18.21862 7.29873,8.60582 0.14911,-7.89083 12.79936,-0.10978 10.87748,-9.73357 -3.10476,-6.79654 11.90629,-16.95685 7.56066,-22.30098 -4.09946,-0.076 -14.26329,15.20578 -13.89954,4.95196 -2.65465,-5.82963 -12.84698,-5.20792 -11.60582,-13.61313 -2.12146,-4.44606 -6.69311,-6.92098 -10.98175,-8.869 z"
         style="display:inline;fill:#d38d5f;stroke:#d38d5f;stroke-width:0.77948552px;stroke-linecap:butt;stroke-linejoin:miter;stroke-opacity:1"
         sodipodi:nodetypes="ccccccccc" />
      <path
         sodipodi:nodetypes="cscsc"
         inkscape:connector-curvature="0"
         id="path1257"
         d="m 344.11678,496.77265 c 0.5892,1.35648 -0.5838,4.05342 -3.2123,5.4425 -2.6285,1.38912 -4.7425,1.45197 -7.1648,0.21327 0.5739,-2.25888 0.8755,-4.41086 3.504,-5.79994 2.6285,-1.38909 5.6742,-0.85634 6.8731,0.14417 z"
         style="opacity:1;fill:#ffffff;fill-opacity:1;stroke:#803300;stroke-width:1.47276616;stroke-linecap:round;stroke-miterlimit:4;stroke-dasharray:none;stroke-dashoffset:1.51419175;stroke-opacity:1" />
      <path
         sodipodi:nodetypes="sssss"
         inkscape:connector-curvature="0"
         id="path1259"
         d="m 319.27248,529.40877 c 0.8404,1.24815 0.677,2.82862 -0.365,3.53007 -1.0417,0.70144 -2.5676,0.25824 -3.4079,-0.9899 -0.8404,-1.24816 0.5946,-0.94003 1.6363,-1.64148 1.0419,-0.70144 1.2963,-2.14685 2.1366,-0.89869 z"
         style="opacity:1;fill:#000000;fill-opacity:1;stroke:none;stroke-width:1.71580851;stroke-linecap:round;stroke-miterlimit:4;stroke-dasharray:none;stroke-dashoffset:1.51419175;stroke-opacity:1" />
      <path
         sodipodi:nodetypes="csssccc"
         inkscape:connector-curvature="0"
         id="path1261"
         d="m 340.6016,500.29965 c -0.23025,1.07936 -1.17986,1.85356 -2.28343,1.86168 -1.10361,0.008 -2.06449,-0.752 -2.31061,-1.82786 -0.24612,-1.07583 0.28867,-2.17813 1.28602,-2.65066 0.99735,-0.47255 2.1891,-0.18821 2.86575,0.68363 -0.94784,0.32498 -1.91185,0.62973 -2.22513,1.7479 0.95717,-0.27836 1.87229,-0.34659 2.6674,0.18533 z"
         style="display:inline;opacity:1;fill:#000000;fill-opacity:1;stroke:none;stroke-width:0.7791326;stroke-linecap:round;stroke-linejoin:bevel;stroke-miterlimit:4;stroke-dasharray:none;stroke-dashoffset:0;stroke-opacity:1" />
    </g>
  </g>
  <g
     inkscape:groupmode="layer"
     id="layer9"
     inkscape:label="teteBroute"
     sodipodi:insensitive="true"
     style="display:none">
    <g
       style="display:inline"
       id="teteBroute"
       inkscape:transform-center-x="15.072592"
       inkscape:transform-center-y="19.524176"
       transform="rotate(-44.175405,69.873301,313.96664)"
       inkscape:label="#g2078">
      <g
         id="g2020"
         transform="matrix(1.3869994,0,0,1.3869994,-692.47915,-34.230638)">
        <path
           style="fill:#aa4400;stroke:#000000;stroke-width:0.62499899;stroke-linecap:butt;stroke-linejoin:miter;stroke-miterlimit:4;stroke-dasharray:none;stroke-opacity:1"
           d="m 744.20251,369.3297 c 1.02168,-1.73577 1.20159,-3.87129 2.48605,-5.46974 1.25727,-1.93121 3.00169,-3.55971 5.06453,-4.59919 2.63498,-0.38223 4.61952,-1.25424 7.10225,-0.79347 1.04333,0.30851 2.24795,0.66227 2.98715,1.49413 0.15746,0.80186 -0.96595,1.02239 -1.08331,1.78463 -0.22417,1.82292 1.00174,3.36373 -0.19425,4.92412 -1.25722,2.97825 -4.31092,4.77466 -6.36633,5.74222 -0.91659,-0.12854 -1.97395,0.0103 -2.58531,0.77987 -0.88054,0.73179 -2.10926,0.97121 -3.2177,0.73371 -0.62972,0.0573 -1.22291,0.29986 -1.84577,0.39467"
           id="path2018"
           inkscape:connector-curvature="0"
           sodipodi:nodetypes="ccccccccccc" />
      </g>
      <path
         style="display:inline;fill:#552200;fill-opacity:1;stroke:none;stroke-width:1.90806901px;stroke-linecap:butt;stroke-linejoin:miter;stroke-opacity:1"
         d="m 349.48128,475.6351 c -5.7399,-1.62673 -5.7007,-10.02926 -7.7315,-16.00481 -2.9839,5.50758 -5.0726,8.29908 -3.4333,17.74982 4.4932,6.69718 8.8281,6.7203 13.1737,7.19148 0.1138,-4.2158 0.2064,-8.39992 -2.0089,-8.93649 z"
         id="path2022"
         inkscape:connector-curvature="0"
         sodipodi:nodetypes="ccccc"
         inkscape:transform-center-x="6.4266131"
         inkscape:transform-center-y="-8.9656923" />
      <path
         style="fill:#aa4400;stroke:#aa4400;stroke-width:0.8668732;stroke-linecap:butt;stroke-linejoin:miter;stroke-miterlimit:4;stroke-dasharray:none;stroke-opacity:1"
         d="m 382.14057,549.00921 c -7.6919,-8.55012 -29.54149,-9.92914 -38.09979,-8.42013 -8.0594,-2.65571 -13.826,-2.44246 -20.6139,3.76159 -10.5448,-0.17213 -18.9656,-13.11288 -7.0121,-20.49583 8.5562,-7.86984 10.8543,-18.65344 15.5544,-28.27346 5.7483,-3.93731 4.4334,-10.96377 9.271,-14.4345 4.7786,-0.17823 6.5164,-0.20135 10.0373,0.52828 9.8418,0.47508 79.71478,-30.50944 88.84889,-24.12061 4.5462,3.17983 1.63864,8.56361 3.91844,18.30878 -30.47572,16.89618 -51.05935,66.35917 -61.90424,73.14588 z"
         id="path2036"
         inkscape:connector-curvature="0"
         sodipodi:nodetypes="cccccccscc"
         inkscape:transform-center-x="32.940391"
         inkscape:transform-center-y="-9.1243334" />
      <path
         inkscape:connector-curvature="0"
         id="boucheBroute"
         style="fill:#aa4400;stroke:#aa4400;stroke-width:0.8668732;stroke-linecap:butt;stroke-linejoin:miter;stroke-miterlimit:4;stroke-dasharray:none;stroke-opacity:1"
         d="m 330.12448,545.56081 c 0,0 1.2079,1.40138 2.9267,0.78128 1.7325,-0.30822 3.9004,-0.34603 5.3795,-1.75849 1.0757,-1.23313 2.3305,-3.85604 4.5111,-3.82415 2.152,-0.10749 4.9198,-4.24747 4.9198,-4.24747 l -4.2039,-2.42362 z"
         inkscape:transform-center-x="1.9810546"
         inkscape:transform-center-y="3.1722078"
         inkscape:label="#path2044" />
      <g
         id="g2050"
         transform="matrix(1.3869994,0,0,1.3869994,-687.52559,-29.772418)">
        <path
           sodipodi:nodetypes="ccccccccccc"
           inkscape:connector-curvature="0"
           id="path2046"
           d="m 744.20251,369.3297 c 1.02168,-1.73577 1.20159,-3.87129 2.48605,-5.46974 1.25727,-1.93121 3.00169,-3.55971 5.06453,-4.59919 2.63498,-0.38223 4.61952,-1.25424 7.10225,-0.79347 1.04333,0.30851 2.24795,0.66227 2.98715,1.49413 0.15746,0.80186 -0.96595,1.02239 -1.08331,1.78463 -0.22417,1.82292 1.00174,3.36373 -0.19425,4.92412 -1.25722,2.97825 -4.31092,4.77466 -6.36633,5.74222 -0.91659,-0.12854 -1.97395,0.0103 -2.58531,0.77987 -0.88054,0.73179 -2.10926,0.97121 -3.2177,0.73371 -0.62972,0.0573 -1.22291,0.29986 -1.84577,0.39467"
           style="fill:#aa4400;stroke:#000000;stroke-width:0.62499899;stroke-linecap:butt;stroke-linejoin:miter;stroke-miterlimit:4;stroke-dasharray:none;stroke-opacity:1" />
        <path
           style="fill:#aa4400;stroke:#000000;stroke-width:0.40994772;stroke-linecap:butt;stroke-linejoin:miter;stroke-miterlimit:4;stroke-dasharray:none;stroke-opacity:1"
           d="m 747.5027,368.29616 c 0.67014,-1.13852 0.78815,-2.53925 1.63065,-3.5877 0.82466,-1.26671 1.96886,-2.33487 3.32191,-3.01669 1.72833,-0.25071 3.03003,-0.82267 4.65849,-0.52045 0.68434,0.20236 1.47447,0.4344 1.95933,0.98003 0.10328,0.52595 -0.63359,0.6706 -0.71057,1.17057 -0.14703,1.19568 0.65706,2.20633 -0.12741,3.22981 -0.82463,1.95349 -2.82761,3.13179 -4.17579,3.76643 -0.6012,-0.0843 -1.29474,0.007 -1.69575,0.51153 -0.57756,0.47999 -1.3835,0.63703 -2.11054,0.48125 -0.41305,0.0376 -0.80213,0.19668 -1.21067,0.25887"
           id="path2048"
           inkscape:connector-curvature="0"
           sodipodi:nodetypes="ccccccccccc" />
      </g>
      <path
         style="display:inline;fill:#d38d5f;stroke:#d38d5f;stroke-width:0.51174796px;stroke-linecap:butt;stroke-linejoin:miter;stroke-opacity:1"
         d="m 338.17479,488.49948 c -3.10482,5.63278 -7.41799,12.54842 -2.81227,18.65267 1.25591,5.73316 9.58983,2.5288 9.87002,8.23767 -1.5758,3.16148 3.04779,11.9609 4.79176,5.6499 0.0979,-5.18049 8.40304,-0.0721 7.14129,-6.39029 -2.03834,-4.46206 3.09685,-9.86398 0.24386,-13.37251 -2.69139,-0.0499 -4.64427,8.71437 -4.40546,1.98253 -1.74284,-3.82727 -8.43431,-3.4191 -7.61946,-8.93729 -1.39278,-2.91893 -4.39416,-4.54377 -7.20974,-5.82268 z"
         id="path2052"
         inkscape:connector-curvature="0" />
      <path
         style="opacity:1;fill:#ffffff;fill-opacity:1;stroke:#803300;stroke-width:1.47276616;stroke-linecap:round;stroke-miterlimit:4;stroke-dasharray:none;stroke-dashoffset:1.51419175;stroke-opacity:1"
         d="m 344.11678,496.77265 c 0.5892,1.35648 -0.5838,4.05342 -3.2123,5.4425 -2.6285,1.38912 -4.7425,1.45197 -7.1648,0.21327 0.5739,-2.25888 0.8755,-4.41086 3.504,-5.79994 2.6285,-1.38909 5.6742,-0.85634 6.8731,0.14417 z"
         id="path2054"
         inkscape:connector-curvature="0"
         sodipodi:nodetypes="cscsc" />
      <path
         style="opacity:1;fill:#000000;fill-opacity:1;stroke:none;stroke-width:1.71580851;stroke-linecap:round;stroke-miterlimit:4;stroke-dasharray:none;stroke-dashoffset:1.51419175;stroke-opacity:1"
         d="m 319.27248,529.40877 c 0.8404,1.24815 0.677,2.82862 -0.365,3.53007 -1.0417,0.70144 -2.5676,0.25824 -3.4079,-0.9899 -0.8404,-1.24816 0.5946,-0.94003 1.6363,-1.64148 1.0419,-0.70144 1.2963,-2.14685 2.1366,-0.89869 z"
         id="path2056"
         inkscape:connector-curvature="0"
         sodipodi:nodetypes="sssss" />
      <path
         style="display:inline;opacity:1;fill:#000000;fill-opacity:1;stroke:none;stroke-width:0.7791326;stroke-linecap:round;stroke-linejoin:bevel;stroke-miterlimit:4;stroke-dasharray:none;stroke-dashoffset:0;stroke-opacity:1"
         d="m 340.6016,500.29965 c -0.23025,1.07936 -1.17986,1.85356 -2.28343,1.86168 -1.10361,0.008 -2.06449,-0.752 -2.31061,-1.82786 -0.24612,-1.07583 0.28867,-2.17813 1.28602,-2.65066 0.99735,-0.47255 2.1891,-0.18821 2.86575,0.68363 -0.94784,0.32498 -1.91185,0.62973 -2.22513,1.7479 0.95717,-0.27836 1.87229,-0.34659 2.6674,0.18533 z"
         id="path2064"
         inkscape:connector-curvature="0"
         sodipodi:nodetypes="csssccc" />
    </g>
  </g>
</svg>
