<?xml version="1.0" encoding="UTF-8" standalone="no"?>
<!-- Created with Inkscape (http://www.inkscape.org/) -->

<svg
   xmlns:dc="http://purl.org/dc/elements/1.1/"
   xmlns:cc="http://creativecommons.org/ns#"
   xmlns:rdf="http://www.w3.org/1999/02/22-rdf-syntax-ns#"
   xmlns:svg="http://www.w3.org/2000/svg"
   xmlns="http://www.w3.org/2000/svg"
   xmlns:sodipodi="http://sodipodi.sourceforge.net/DTD/sodipodi-0.dtd"
   xmlns:inkscape="http://www.inkscape.org/namespaces/inkscape"
   width="80.250114"
   height="184.28674"
   id="svg10994"
   version="1.1"
   inkscape:version="0.92.2 (5c3e80d, 2017-08-06)"
   sodipodi:docname="vache_face.svg">
  <title
     id="title1139">vache_face</title>
  <defs
     id="defs10996">
    <linearGradient
       id="linearGradient6421">
      <stop
         style="stop-color:#afafaf;stop-opacity:1"
         offset="0"
         id="stop6423" />
      <stop
         style="stop-color:#ffffff;stop-opacity:1"
         offset="1"
         id="stop6425" />
    </linearGradient>
    <linearGradient
       id="linearGradient5771">
      <stop
         style="stop-color:#dbdfe3;stop-opacity:1;"
         offset="0"
         id="stop5773" />
      <stop
         style="stop-color:#fafbfb;stop-opacity:1;"
         offset="1"
         id="stop5775" />
    </linearGradient>
    <linearGradient
       id="linearGradient5666">
      <stop
         style="stop-color:#ffccaa;stop-opacity:1;"
         offset="0"
         id="stop5668" />
      <stop
         id="stop5674"
         offset="0.5"
         style="stop-color:#ffe2ce;stop-opacity:1;" />
      <stop
         style="stop-color:#ffccaa;stop-opacity:1;"
         offset="1"
         id="stop5670" />
    </linearGradient>
    <linearGradient
       id="linearGradient3861">
      <stop
         style="stop-color:#00ffff;stop-opacity:1;"
         offset="0"
         id="stop3863" />
      <stop
         style="stop-color:#00ffff;stop-opacity:0;"
         offset="1"
         id="stop3865" />
    </linearGradient>
    <linearGradient
       id="linearGradient15922">
      <stop
         style="stop-color:#ffffff;stop-opacity:1;"
         offset="0"
         id="stop15924" />
      <stop
         style="stop-color:#a2ffff;stop-opacity:1;"
         offset="1"
         id="stop15926" />
    </linearGradient>
    <linearGradient
       id="linearGradient15833-1">
      <stop
         style="stop-color:#ffffff;stop-opacity:0.55329949"
         offset="0"
         id="stop15835-7" />
      <stop
         style="stop-color:#ffffff;stop-opacity:0;"
         offset="1"
         id="stop15837-1" />
    </linearGradient>
    <linearGradient
       id="linearGradient3772">
      <stop
         style="stop-color:#ffe680;stop-opacity:1;"
         offset="0"
         id="stop3774" />
      <stop
         style="stop-color:#fff8de;stop-opacity:1;"
         offset="1"
         id="stop3776" />
    </linearGradient>
    <mask
       maskUnits="userSpaceOnUse"
       id="mask3014">
      <ellipse
         inkscape:export-ydpi="100"
         inkscape:export-xdpi="100"
         inkscape:export-filename="C:\Users\Vicky\Documents\pourClePrefaTico\jeuxEnLigne\webidev\path3113.png"
         id="ellipse3016"
         style="fill:#ffff00;fill-rule:evenodd;stroke:#000000;stroke-width:0.35670686px;stroke-linecap:butt;stroke-linejoin:miter;stroke-opacity:1"
         cx="-135.82529"
         cy="32.761463"
         rx="16.575104"
         ry="18.016415"
         transform="rotate(-47.670563)" />
    </mask>
  </defs>
  <sodipodi:namedview
     id="base"
     pagecolor="#ffffff"
     bordercolor="#666666"
     borderopacity="1.0"
     inkscape:pageopacity="0.0"
     inkscape:pageshadow="2"
     inkscape:zoom="1.4"
     inkscape:cx="234.64286"
     inkscape:cy="67.314046"
     inkscape:document-units="px"
     inkscape:current-layer="layer1"
     showgrid="true"
     inkscape:window-width="1366"
     inkscape:window-height="739"
     inkscape:window-x="-9"
     inkscape:window-y="-9"
     inkscape:window-maximized="1"
     inkscape:snap-global="true"
     showguides="true"
     fit-margin-top="0"
     fit-margin-left="0"
     fit-margin-right="0"
     fit-margin-bottom="0"
     inkscape:guide-bbox="true">
    <inkscape:grid
       type="xygrid"
       id="grid5300"
       originx="71.41352"
       originy="-510.50038" />
  </sodipodi:namedview>
  <metadata
     id="metadata10999">
    <rdf:RDF>
      <cc:Work
         rdf:about="">
        <dc:format>image/svg+xml</dc:format>
        <dc:type
           rdf:resource="http://purl.org/dc/dcmitype/StillImage" />
        <dc:title>vache_face</dc:title>
        <dc:date>2018-05-29</dc:date>
        <dc:creator>
          <cc:Agent>
            <dc:title>V.Bayon</dc:title>
          </cc:Agent>
        </dc:creator>
        <dc:rights>
          <cc:Agent>
            <dc:title>CC-BY-NC</dc:title>
          </cc:Agent>
        </dc:rights>
      </cc:Work>
    </rdf:RDF>
  </metadata>
  <g
     inkscape:label="Calque 1"
     inkscape:groupmode="layer"
     id="layer1"
     transform="translate(65.945551,-352.89369)"
     style="display:inline">
    <g
       inkscape:label="#g969"
       transform="matrix(0.63330121,0,0,0.63330121,-535.22941,-16.96707)"
       style="stroke:#e9afaf"
       id="pie">
      <path
         sodipodi:nodetypes="cccc"
         inkscape:connector-curvature="0"
         id="path1144"
         d="m 803.71851,786.9352 1.75529,3.8702 c -0.0479,1.46823 -1.63201,1.78572 -2.53197,1.18396 l -1.22024,-3.51841"
         style="opacity:1;fill:#e3beb8;fill-opacity:1;stroke:#e9afaf;stroke-width:1.10000002;stroke-linecap:butt;stroke-linejoin:round;stroke-miterlimit:4;stroke-dasharray:none;paint-order:markers fill stroke" />
      <path
         style="opacity:1;fill:#e3beb8;fill-opacity:1;stroke:#e9afaf;stroke-width:1.10000002;stroke-linecap:butt;stroke-linejoin:round;stroke-miterlimit:4;stroke-dasharray:none;paint-order:markers fill stroke"
         d="m 794.23439,786.68322 -1.75529,3.8702 c 0.0479,1.46823 1.63202,1.78572 2.53197,1.18396 l 1.22024,-3.51841"
         id="path1146"
         inkscape:connector-curvature="0"
         sodipodi:nodetypes="cccc" />
      <path
         style="opacity:1;fill:#e3beb8;fill-opacity:1;stroke:#e9afaf;stroke-width:1.10000002;stroke-linecap:butt;stroke-linejoin:round;stroke-miterlimit:4;stroke-dasharray:none;paint-order:markers fill stroke"
         d="m 824.43008,764.70796 c -3.63257,7.94603 -1.52304,17.57851 -12.7753,23.58772 -8.40108,4.48655 -22.15667,1.2201 -26.86709,-2.76573 -2.88759,-3.89011 -5.20261,-11.91876 -7.11187,-16.29804"
         id="path1148"
         inkscape:connector-curvature="0"
         sodipodi:nodetypes="cscc" />
      <path
         style="opacity:1;fill:#e3beb8;fill-opacity:1;stroke:#e9afaf;stroke-width:1.10000002;stroke-linecap:butt;stroke-linejoin:round;stroke-miterlimit:4;stroke-dasharray:none;paint-order:markers fill stroke"
         d="m 809.79416,787.24543 0.75594,5.24118 c -0.54063,1.74435 -2.48177,1.58361 -3.32613,0.55435 l -0.25198,-4.63642"
         id="path1150"
         inkscape:connector-curvature="0"
         sodipodi:nodetypes="cccc" />
      <path
         sodipodi:nodetypes="cccc"
         inkscape:connector-curvature="0"
         id="path1152"
         d="m 797.90153,787.6486 -0.75594,5.24118 c 0.54063,1.74434 2.48177,1.58361 3.32613,0.55435 l 0.25198,-4.63642"
         style="opacity:1;fill:#e3beb8;fill-opacity:1;stroke:#e9afaf;stroke-width:1.10000002;stroke-linecap:butt;stroke-linejoin:round;stroke-miterlimit:4;stroke-dasharray:none;paint-order:markers fill stroke" />
    </g>
    <g
       id="corp"
       inkscape:label="#g1218">
      <path
         sodipodi:nodetypes="cscscsccscc"
         inkscape:connector-curvature="0"
         id="path1156"
         d="m 7.8935,457.73488 c 3.1542,-7.42806 4.9476,-15.9834 4.9476,-25.09456 0,-14.24033 -4.1636,-27.47321 -11.0354,-40.31252 -6.8719,-12.83931 -15.9996,-8.09543 -26.8326,-8.09543 -10.833,0 -19.9657,-2.93445 -27.2949,9.90486 -7.3291,12.83931 -13.3071,24.26276 -13.3071,38.50309 0,11.37781 2.8122,21.88989 7.56,30.41825 l 13.9573,9.8601 c 6.4223,6.03202 6.384,1.369 14.8789,1.369 9.5629,0 9.8875,5.35232 16.6946,-2.12182 z"
         style="fill:#803300;fill-opacity:1;stroke:#803300;stroke-width:0.6333012;stroke-miterlimit:4;stroke-dasharray:none;stroke-opacity:1" />
      <path
         sodipodi:nodetypes="ccccccc"
         inkscape:connector-curvature="0"
         id="path1182"
         d="m -9.3978,420.68214 c 2.4018,9.94318 6.1523,19.93373 5.0873,30.3302 -1.2484,15.77112 -15.6969,5.67402 -31.1033,14.80052 -3.5216,-1.55701 -6.945,-6.73019 -5.7213,-10.63153 -5.7071,-8.39317 -15.3446,-10.58691 -4.808,-18.78032 12.4917,4.48465 21.9643,5.49383 14.561,-10.99453 8.492,-8.39649 13.9483,11.92243 21.9838,-4.72432"
         style="fill:#d38d5f;fill-opacity:1;fill-rule:nonzero;stroke:none;stroke-width:1.08066463" />
    </g>
    <g
       id="patteAvantDroite"
       inkscape:label="#g1222">
      <path
         sodipodi:nodetypes="ccscscccccc"
         inkscape:connector-curvature="0"
         id="path1210"
         d="m -58.0689,463.05857 c 1.4202,15.85699 3.6002,40.94659 4.7102,42.86658 1.5692,2.71413 0,11.75274 0,14.46695 0,2.71414 -5.007,10.40991 -5.007,10.40991 0,0 10.6925,2.25614 13.517,2.25614 2.8246,0 1.5635,-5.42265 1.5635,-5.42265 l -1.2468,-9.95469 2.8301,-10.39011 -1.8999,-8.15375 -0.5098,-26.21828 z"
         style="fill:#803300;fill-opacity:1;stroke:#803300;stroke-width:0.6333012;stroke-miterlimit:4;stroke-dasharray:none;stroke-opacity:1" />
      <path
         style="display:inline;fill:#552200;fill-opacity:1;stroke:#000000;stroke-width:0.76525408px;stroke-linecap:butt;stroke-linejoin:miter;stroke-opacity:1"
         d="m -58.0138,529.6265 c -4.0763,1.41642 -6.4384,3.34683 -6.9567,5.82998 5.2129,1.03989 11.6904,0.76983 18.492,0.16378 l 4.3657,-3.46972 -0.6874,-2.28535 c -2.3873,0.29741 -4.7683,0.42234 -7.1668,1.02481 1.066,1.66818 -5.8425,-0.1764 -8.0468,-1.2635 z"
         id="path1158"
         inkscape:connector-curvature="0"
         sodipodi:nodetypes="ccccccc" />
    </g>
    <g
       id="patteAvantGauche"
       inkscape:label="#g1226">
      <path
         sodipodi:nodetypes="cccccscsccc"
         inkscape:connector-curvature="0"
         id="path1214"
         d="m -12.5381,472.16585 4.8195,29.22724 -1.8999,8.15375 2.8301,10.40986 -1.2468,9.93494 c 0,0 -0.7813,3.36334 2.0432,3.36334 2.8246,0 13.4896,-0.19683 13.4896,-0.19683 0,0 -5.007,-7.67596 -5.007,-10.3901 0,-2.71413 -1.5692,-11.77265 0,-14.48677 1.3123,-2.26977 4.1382,-37.13881 5.4029,-50.4464 z"
         style="fill:#803300;fill-opacity:1;stroke:#803300;stroke-width:0.6333012;stroke-miterlimit:4;stroke-dasharray:none;stroke-opacity:1" />
      <path
         sodipodi:nodetypes="ccccccc"
         inkscape:connector-curvature="0"
         id="path1160"
         d="m 7.044,530.26208 c 3.9924,1.41822 6.3059,3.3511 6.8135,5.83742 -5.1057,1.04122 -11.4498,0.77081 -18.1115,0.16399 l -4.2758,-3.47415 0.6732,-2.28827 c 2.3382,0.29779 4.6703,0.42288 7.0194,1.02612 -1.0442,1.67031 5.7222,-0.17663 7.8812,-1.26511 z"
         style="display:inline;fill:#552200;fill-opacity:1;stroke:#000000;stroke-width:0.75782305px;stroke-linecap:butt;stroke-linejoin:miter;stroke-opacity:1" />
    </g>
    <g
       id="tete"
       inkscape:label="#g1240">
      <path
         style="display:inline;fill:#803300;fill-opacity:1;fill-rule:evenodd;stroke:none;stroke-width:0.51850599"
         d="m -12.1833,367.15874 c 10.2213,1.62044 0.8176,8.85913 6.9417,6.80526 9.1802,-3.21525 11.8362,-10.93632 9.5206,-13.25846 -1.8955,-1.90085 -10.7928,-0.54436 -16.4623,6.4532 z"
         id="path1140"
         inkscape:connector-curvature="0"
         sodipodi:nodetypes="ccsc" />
      <path
         sodipodi:nodetypes="ccsc"
         inkscape:connector-curvature="0"
         id="path1142"
         d="m -35.6887,368.42255 c -10.2213,1.62044 -0.8176,8.85913 -6.9417,6.80526 -9.1802,-3.21525 -11.8361,-10.93632 -9.5206,-13.25846 1.8955,-1.90084 10.7928,-0.54435 16.4623,6.4532 z"
         style="display:inline;fill:#803300;fill-opacity:1;fill-rule:evenodd;stroke:none;stroke-width:0.51850599" />
      <path
         sodipodi:nodetypes="scscs"
         inkscape:connector-curvature="0"
         id="path1162"
         d="m -2.1529,383.86094 c 0,12.19697 -8.4332,29.99232 -22.426,29.99232 -13.9929,0 -19.3908,-17.03774 -19.3908,-29.23471 0,-12.19698 5.9042,-22.08458 19.897,-22.08457 13.9929,-10e-6 21.9198,9.12998 21.9198,21.32696 z"
         style="opacity:1;fill:#aa4400;fill-opacity:1;stroke:#aa4400;stroke-width:1.66626763;stroke-linecap:round;stroke-miterlimit:4;stroke-dasharray:none;stroke-dashoffset:1.51419175;stroke-opacity:1" />
      <path
         inkscape:transform-center-y="-9.0298153"
         inkscape:transform-center-x="-6.4725317"
         sodipodi:nodetypes="ccccc"
         inkscape:connector-curvature="0"
         id="path1164"
         d="m -12.6259,363.10204 c 3.661,-1.03758 3.6361,-6.39696 4.9313,-10.20835 1.9032,3.5129 3.2355,5.29341 2.1899,11.32138 -2.866,4.27166 -5.6308,4.28641 -8.4026,4.58694 -0.073,-2.68897 -0.1317,-5.35772 1.2814,-5.69997 z"
         style="display:inline;fill:#552200;fill-opacity:1;stroke:none;stroke-width:1.21702468px;stroke-linecap:butt;stroke-linejoin:miter;stroke-opacity:1" />
      <path
         style="display:inline;fill:#552200;fill-opacity:1;stroke:none;stroke-width:1.21702468px;stroke-linecap:butt;stroke-linejoin:miter;stroke-opacity:1"
         d="m -35.5173,363.57598 c -3.6611,-1.03758 -3.6361,-6.39697 -4.9313,-10.20836 -1.9034,3.51291 -3.2356,5.29341 -2.19,11.32138 2.866,4.27166 5.6309,4.28641 8.4026,4.58695 0.073,-2.68897 0.1318,-5.35773 -1.2813,-5.69997 z"
         id="path1166"
         inkscape:connector-curvature="0"
         sodipodi:nodetypes="ccccc"
         inkscape:transform-center-x="6.4725156"
         inkscape:transform-center-y="-9.0298127" />
      <path
         style="display:inline;fill:#d45500;fill-opacity:1;fill-rule:evenodd;stroke:none;stroke-width:0.38255483"
         d="m -37.0458,369.84992 c -7.5413,1.19557 -0.6032,6.53629 -5.1216,5.02094 -6.7732,-2.37223 -8.7327,-8.06884 -7.0243,-9.78212 1.3985,-1.40245 7.963,-0.40162 12.1459,4.76118 z"
         id="path1168"
         inkscape:connector-curvature="0"
         sodipodi:nodetypes="ccsc" />
      <path
         sodipodi:nodetypes="ccsc"
         inkscape:connector-curvature="0"
         id="path1170"
         d="m -9.0626,368.04049 c 7.5413,1.19557 0.6033,6.53629 5.1216,5.02094 6.7732,-2.37223 8.7327,-8.06884 7.0243,-9.78212 -1.3984,-1.40245 -7.9629,-0.40162 -12.1459,4.76118 z"
         style="display:inline;fill:#d45500;fill-opacity:1;fill-rule:evenodd;stroke:none;stroke-width:0.38255483" />
      <ellipse
         style="opacity:1;fill:#552200;fill-opacity:1;stroke:#aa4400;stroke-width:0.76042825;stroke-linecap:round;stroke-miterlimit:4;stroke-dasharray:none;stroke-dashoffset:1.51419175;stroke-opacity:1"
         id="ellipse1172"
         cx="-24.698725"
         cy="405.49265"
         rx="11.658009"
         ry="5.6940141" />
      <path
         style="opacity:1;fill:#ffffff;fill-opacity:1;stroke:#803300;stroke-width:1.03978467;stroke-linecap:round;stroke-miterlimit:4;stroke-dasharray:none;stroke-dashoffset:1.51419175;stroke-opacity:1"
         d="m -10.1223,377.86294 c 0.4161,0.95769 -0.412,2.86175 -2.2678,3.84245 -1.8558,0.98073 -3.3482,1.0251 -5.0584,0.15057 0.4052,-1.59478 0.6181,-3.1141 2.4739,-4.0948 1.8557,-0.98071 4.006,-0.60458 4.8523,0.10178 z"
         id="path1174"
         inkscape:connector-curvature="0"
         sodipodi:nodetypes="cscsc" />
      <path
         style="display:inline;opacity:1;fill:#000000;fill-opacity:1;stroke:none;stroke-width:0.55007386;stroke-linecap:round;stroke-linejoin:bevel;stroke-miterlimit:4;stroke-dasharray:none;stroke-dashoffset:0;stroke-opacity:1"
         d="m -12.604,380.35303 c -0.1625,0.76204 -0.8329,1.30864 -1.6121,1.31437 -0.7791,0.006 -1.4575,-0.53092 -1.6313,-1.29049 -0.1737,-0.75954 0.2038,-1.53777 0.9079,-1.87139 0.7042,-0.33362 1.5456,-0.13287 2.0233,0.48265 -0.6691,0.22944 -1.3497,0.4446 -1.571,1.23403 0.6758,-0.19652 1.3219,-0.24469 1.8832,0.13085 z"
         id="path1176"
         inkscape:connector-curvature="0"
         sodipodi:nodetypes="csssccc" />
      <path
         sodipodi:nodetypes="cscsc"
         inkscape:connector-curvature="0"
         id="path1178"
         d="m -39.9718,377.54307 c -0.416,0.95769 0.4121,2.86175 2.2679,3.84246 1.8557,0.98072 3.3482,1.0251 5.0584,0.15056 -0.4052,-1.59478 -0.6182,-3.1141 -2.4739,-4.0948 -1.8557,-0.98071 -4.006,-0.60458 -4.8524,0.10178 z"
         style="opacity:1;fill:#ffffff;fill-opacity:1;stroke:#803300;stroke-width:1.03978467;stroke-linecap:round;stroke-miterlimit:4;stroke-dasharray:none;stroke-dashoffset:1.51419175;stroke-opacity:1" />
      <path
         sodipodi:nodetypes="csssccc"
         inkscape:connector-curvature="0"
         id="path1180"
         d="m -37.49,380.03316 c 0.1625,0.76204 0.8329,1.30864 1.6121,1.31437 0.7791,0.006 1.4575,-0.53092 1.6312,-1.29049 0.1738,-0.75954 -0.2038,-1.53777 -0.9079,-1.87139 -0.7041,-0.33362 -1.5455,-0.13287 -2.0232,0.48265 0.6691,0.22944 1.3497,0.4446 1.571,1.23404 -0.6758,-0.19652 -1.322,-0.24469 -1.8832,0.13084 z"
         style="display:inline;opacity:1;fill:#000000;fill-opacity:1;stroke:none;stroke-width:0.55007386;stroke-linecap:round;stroke-linejoin:bevel;stroke-miterlimit:4;stroke-dasharray:none;stroke-dashoffset:0;stroke-opacity:1" />
    </g>
  </g>
</svg>
