<?xml version="1.0" encoding="UTF-8" standalone="no"?>
<!-- Created with Inkscape (http://www.inkscape.org/) -->

<svg
   xmlns:dc="http://purl.org/dc/elements/1.1/"
   xmlns:cc="http://creativecommons.org/ns#"
   xmlns:rdf="http://www.w3.org/1999/02/22-rdf-syntax-ns#"
   xmlns:svg="http://www.w3.org/2000/svg"
   xmlns="http://www.w3.org/2000/svg"
   xmlns:sodipodi="http://sodipodi.sourceforge.net/DTD/sodipodi-0.dtd"
   xmlns:inkscape="http://www.inkscape.org/namespaces/inkscape"
   width="298.14716"
   height="191.13811"
   id="svg10994"
   version="1.1"
   inkscape:version="0.92.3 (2405546, 2018-03-11)"
   sodipodi:docname="vache_profileTest.svg">
  <title
     id="title1139">vache</title>
  <defs
     id="defs10996" />
  <sodipodi:namedview
     id="base"
     pagecolor="#ffffff"
     bordercolor="#666666"
     borderopacity="1.0"
     inkscape:pageopacity="0.0"
     inkscape:pageshadow="2"
     inkscape:zoom="1.4"
     inkscape:cx="42.317538"
     inkscape:cy="240.66973"
     inkscape:document-units="px"
     inkscape:current-layer="layer9"
     showgrid="true"
     inkscape:window-width="1366"
     inkscape:window-height="689"
     inkscape:window-x="-9"
     inkscape:window-y="-9"
     inkscape:window-maximized="1"
     inkscape:snap-global="true"
     showguides="true"
     fit-margin-top="0"
     fit-margin-left="0"
     fit-margin-right="0"
     fit-margin-bottom="0"
     inkscape:guide-bbox="true">
    <inkscape:grid
       type="xygrid"
       id="grid5300"
       originx="-833.74698"
       originy="-330.38311" />
    <sodipodi:guide
       position="66.253,191.138"
       orientation="0,1"
       id="guide3862"
       inkscape:locked="false"
       inkscape:label=""
       inkscape:color="rgb(0,0,255)" />
    <sodipodi:guide
       position="0,149.61689"
       orientation="1,0"
       id="guide3864"
       inkscape:locked="false"
       inkscape:label=""
       inkscape:color="rgb(0,0,255)" />
  </sodipodi:namedview>
  <metadata
     id="metadata10999">
    <rdf:RDF>
      <cc:Work
         rdf:about="">
        <dc:format>image/svg+xml</dc:format>
        <dc:type
           rdf:resource="http://purl.org/dc/dcmitype/StillImage" />
        <dc:title>vache</dc:title>
        <dc:date>2018-05-29</dc:date>
        <dc:creator>
          <cc:Agent>
            <dc:title>V.Bayon</dc:title>
          </cc:Agent>
        </dc:creator>
        <dc:rights>
          <cc:Agent>
            <dc:title>CC-BY-NC</dc:title>
          </cc:Agent>
        </dc:rights>
      </cc:Work>
    </rdf:RDF>
  </metadata>
  <g
     inkscape:groupmode="layer"
     id="layer2"
     inkscape:label="pattesDroites"
     style="display:inline"
     transform="translate(-366.37256,-158.41453)" />
  <g
     inkscape:groupmode="layer"
     id="layer3"
     inkscape:label="pie"
     style="display:inline"
     transform="translate(-366.37256,-158.41453)" />
  <g
     inkscape:groupmode="layer"
     id="layer4"
     inkscape:label="pattesGauche"
     style="display:inline"
     transform="translate(-366.37256,-158.41453)" />
  <g
     inkscape:groupmode="layer"
     id="layer5"
     inkscape:label="corp"
     style="display:inline"
     transform="translate(-366.37256,-158.41453)" />
  <g
     inkscape:groupmode="layer"
     id="layer9"
     inkscape:label="teteBroute"
     style="display:inline"
     transform="translate(-366.37256,-158.41453)">
    <g
       transform="translate(-632.84239,-547.74508)"
       style="display:inline"
       id="patteArriereDroite"
       inkscape:label="#g1230">
      <path
         inkscape:connector-curvature="0"
         id="path1211"
         style="fill:#803300;stroke:#803300;stroke-width:0.62499899;stroke-linecap:butt;stroke-linejoin:miter;stroke-miterlimit:4;stroke-dasharray:none;stroke-opacity:1"
         d="m 1081.1625,681.35891 c 0.6171,-2.3674 0.6198,-5.7372 0.6198,-5.7372 0,0 3.3767,-2.6565 3.434,-3.4724 -0.1492,-1.0568 -1.5192,-3.4923 -0.8196,-4.4652 0.4563,-0.961 7.2323,-17.7977 7.1353,-19.8733 -1.1739,-9.2031 -1.7011,-22.4436 -1.7011,-22.4436 -26.3394,-14.76009 -21.6101,-4.97916 -21.2598,1.3428 0,0 11.7893,5.8175 12.124,26.7383 0.1901,6.4625 -2.0842,13.5809 -3.431,15.787 0,0 -1.377,6.0618 -3.2431,7.3676 0,0 -1.045,1.9461 -2.2061,4.0129 z"
         sodipodi:nodetypes="cccccccccccc" />
      <path
         sodipodi:nodetypes="ccccc"
         inkscape:connector-curvature="0"
         id="path1277"
         d="m 1071.6999,678.33121 c -2.5378,1.128 -4.1092,3.1367 -4.7022,6.0369 4.1091,2.3784 8.112,1.6116 12.1486,1.8411 l 1.4802,-3.9751 c 0.4032,-2.0533 -6.2634,-2.0095 -8.9266,-3.9029 z"
         style="display:inline;fill:#552200;fill-opacity:1;stroke:#000000;stroke-width:0.77238601px;stroke-linecap:butt;stroke-linejoin:miter;stroke-opacity:1" />
    </g>
    <g
       transform="translate(-632.84239,-547.74508)"
       style="display:inline"
       id="g1222">
      <path
         inkscape:connector-curvature="0"
         id="patteAvantDroite"
         style="fill:#803300;stroke:#803300;stroke-width:0.66539609;stroke-linecap:butt;stroke-linejoin:miter;stroke-miterlimit:4;stroke-dasharray:none;stroke-opacity:1"
         d="m 963.88527,656.07261 3.5437,13.5765 c 0,0 -1.693,1.6756 3.5029,6.2238 1.6292,1.6389 5.26222,7.79 4.72572,11.5999 -0.5322,4.3031 -3.44582,10.0008 -2.37062,10.349 2.48992,0.7973 11.07682,0.375 11.45302,-1.2011 0.9312,-3.0972 -2.4175,-3.6787 -1.8453,-5.0258 0.6126,-1.2155 2.3754,-0.3901 1.7889,-2.646 -0.3973,-2.345 -2.7685,-2.2738 -3.4559,-5.2667 -0.7547,-2.8572 -1.1381,-8.4844 -1.1073,-9.5389 -0.095,-1.0484 -0.1147,-4.4012 -0.6162,-6.0456 -0.6471,-1.4772 -3.137,-5.2823 -3.137,-5.2823 l -3.10272,-24.1507 c -5.48813,-2.6156 -11.11519,-9.75803 -16.0816,4.6258 z"
         sodipodi:nodetypes="ccccccccccccccc"
         inkscape:label="#path1229" />
      <path
         style="display:inline;fill:#552200;fill-opacity:1;stroke:#000000;stroke-width:0.85169882px;stroke-linecap:butt;stroke-linejoin:miter;stroke-opacity:1"
         d="m 973.83309,692.01071 c -3.11932,1.1158 -5.05092,3.1028 -5.77982,5.9717 5.0509,2.3527 9.97132,1.5941 14.93302,1.8212 l 1.8194,-3.9322 c 0.4957,-2.0311 -7.6989,-1.9878 -10.9726,-3.8607 z"
         id="path1275"
         inkscape:connector-curvature="0"
         sodipodi:nodetypes="ccccc" />
    </g>
    <g
       inkscape:label="#g969"
       transform="matrix(1.3869994,0,0,1.3869994,-676.01032,-996.98845)"
       style="display:inline;stroke:#e9afaf"
       id="pie">
      <path
         sodipodi:nodetypes="cccc"
         inkscape:connector-curvature="0"
         id="path1213"
         d="m 803.71851,786.9352 1.75529,3.8702 c -0.0479,1.46823 -1.63201,1.78572 -2.53197,1.18396 l -1.22024,-3.51841"
         style="opacity:1;fill:#e3beb8;fill-opacity:1;stroke:#e9afaf;stroke-width:1.10000002;stroke-linecap:butt;stroke-linejoin:round;stroke-miterlimit:4;stroke-dasharray:none;paint-order:markers fill stroke" />
      <path
         style="opacity:1;fill:#e3beb8;fill-opacity:1;stroke:#e9afaf;stroke-width:1.10000002;stroke-linecap:butt;stroke-linejoin:round;stroke-miterlimit:4;stroke-dasharray:none;paint-order:markers fill stroke"
         d="m 794.23439,786.68322 -1.75529,3.8702 c 0.0479,1.46823 1.63202,1.78572 2.53197,1.18396 l 1.22024,-3.51841"
         id="path1215"
         inkscape:connector-curvature="0"
         sodipodi:nodetypes="cccc" />
      <path
         style="opacity:1;fill:#e3beb8;fill-opacity:1;stroke:#e9afaf;stroke-width:1.10000002;stroke-linecap:butt;stroke-linejoin:round;stroke-miterlimit:4;stroke-dasharray:none;paint-order:markers fill stroke"
         d="m 824.43008,764.70796 c -3.63257,7.94603 -1.52304,17.57851 -12.7753,23.58772 -8.40108,4.48655 -22.15667,1.2201 -26.86709,-2.76573 -2.88759,-3.89011 -5.20261,-11.91876 -7.11187,-16.29804"
         id="path1217"
         inkscape:connector-curvature="0"
         sodipodi:nodetypes="cscc" />
      <path
         style="opacity:1;fill:#e3beb8;fill-opacity:1;stroke:#e9afaf;stroke-width:1.10000002;stroke-linecap:butt;stroke-linejoin:round;stroke-miterlimit:4;stroke-dasharray:none;paint-order:markers fill stroke"
         d="m 809.79416,787.24543 0.75594,5.24118 c -0.54063,1.74435 -2.48177,1.58361 -3.32613,0.55435 l -0.25198,-4.63642"
         id="path1219"
         inkscape:connector-curvature="0"
         sodipodi:nodetypes="cccc" />
      <path
         sodipodi:nodetypes="cccc"
         inkscape:connector-curvature="0"
         id="path1221"
         d="m 797.90153,787.6486 -0.75594,5.24118 c 0.54063,1.74434 2.48177,1.58361 3.32613,0.55435 l 0.25198,-4.63642"
         style="opacity:1;fill:#e3beb8;fill-opacity:1;stroke:#e9afaf;stroke-width:1.10000002;stroke-linecap:butt;stroke-linejoin:round;stroke-miterlimit:4;stroke-dasharray:none;paint-order:markers fill stroke" />
    </g>
    <g
       transform="translate(-632.84239,-547.74508)"
       style="display:inline"
       id="patteAvantGauche"
       inkscape:label="#g1218">
      <path
         sodipodi:nodetypes="cccccccc"
         inkscape:transform-center-y="29.336951"
         inkscape:transform-center-x="-2.7677278"
         inkscape:connector-curvature="0"
         id="path1225"
         d="m 962.44827,648.05221 c -9.7485,9.9609 -4.6328,22.852 -6.1481,34.8559 -6.4398,8.9903 -1.1652,21.5669 -4.2463,28.22473 5.1347,7.7111 -4.1701,3.9445 -8.9747,3.9007 -12.3541,-0.2249 0.4456,-11.81283 -0.5981,-18.40853 2.6073,-13.1622 -3.9542,-26.1605 -1.7144,-39.5963 -0.2848,-6.6957 -3.9731,-11.018 -8.4494,-14.8614 -8.5872,-50.471 38.582,-35.692 30.131,5.8849 z"
         style="fill:#aa4400;fill-opacity:1;stroke:#aa4400;stroke-width:0.8668732;stroke-linecap:butt;stroke-linejoin:miter;stroke-miterlimit:4;stroke-dasharray:none;stroke-opacity:1" />
      <path
         sodipodi:nodetypes="ccccc"
         inkscape:connector-curvature="0"
         id="path1273"
         d="m 939.22877,706.51751 c -4.0906,1.46323 -6.6236,4.06873 -7.5794,7.83083 6.6235,3.0852 13.0757,2.0904 19.5822,2.3882 4.4683,-0.9695 2.0363,-2.7508 1.1002,-4.3561 0.65,-2.6634 -8.8102,-3.407 -13.103,-5.86293 z"
         style="display:inline;fill:#552200;fill-opacity:1;stroke:#000000;stroke-width:1.11685908px;stroke-linecap:butt;stroke-linejoin:miter;stroke-opacity:1" />
    </g>
    <g
       transform="translate(-632.84239,-547.74508)"
       style="display:inline"
       id="patteArriereGauche"
       inkscape:label="#g1226">
      <path
         inkscape:transform-center-y="38.195639"
         inkscape:transform-center-x="-0.80414203"
         sodipodi:nodetypes="ccccccccc"
         inkscape:connector-curvature="0"
         id="path1227"
         d="m 1122.827,615.15201 c -11.7037,5.8197 -10.9012,23.6863 -7.9163,34.4462 3.9723,11.1282 -2.3662,25.2371 -0.9271,37.7286 0.7972,6.2471 2.6965,11.3533 -1.5045,12.9629 4.8698,10.16263 -4.8825,4.4734 -10.1047,3.6446 -3.9237,-3.244 7.9983,-14.1634 3.7007,-21.6167 0.5004,-13.4133 -1.8697,-27.3126 -13.2414,-35.8353 -5.5059,-8.8605 -5.9071,-19.2609 -18.8172,-19.4659 -8.1584,-58.0998 46.7426,-57.8172 48.8105,-11.8644 z"
         style="fill:#aa4400;stroke:#aa4400;stroke-width:0.8668732;stroke-linecap:butt;stroke-linejoin:miter;stroke-miterlimit:4;stroke-dasharray:none;stroke-opacity:1" />
      <path
         style="display:inline;fill:#552200;fill-opacity:1;stroke:#000000;stroke-width:1.06260419px;stroke-linecap:butt;stroke-linejoin:miter;stroke-opacity:1"
         d="m 1101.9684,700.47521 c -3.8919,1.3921 -6.3018,3.8711 -7.2112,7.45043 6.3017,2.9353 12.4405,1.9889 18.631,2.2722 4.2511,-0.9224 1.9373,-2.6172 1.0467,-4.14463 0.6185,-2.5339 -8.3822,-3.2414 -12.4665,-5.578 z"
         id="path1279"
         inkscape:connector-curvature="0"
         sodipodi:nodetypes="ccccc"
         inkscape:transform-center-x="137.86538"
         inkscape:transform-center-y="-0.93670518" />
    </g>
    <g
       style="display:inline"
       id="corp2"
       inkscape:label="#g1240"
       transform="translate(-660.32032,-799.14857)">
      <path
         sodipodi:nodetypes="ccccccccccccccc"
         inkscape:connector-curvature="0"
         id="path1309"
         d="m 1100.8204,879.32759 c -9.9105,-0.82041 -19.3212,5.38825 -27.8745,9.75673 -13.1467,4.6568 -26.4093,3.93715 -40.1987,2.38783 -15.0341,-1.25598 -31.1193,1.11159 -43.78111,9.64523 l -30.0015,-6.51223 c -6.2388,-5.58715 -14.0849,-10.24275 -15.9456,-19.22846 -2.8217,-13.55664 -12.939,-23.7405 -18.0042,-36.3936 -22.588,-36.27071 -2.6607,-61.41112 12.6994,-57.87284 19.7044,6.57355 40.4356,1.32697 60.5932,4.30129 15.00401,1.95527 29.88091,5.09957 45.10731,4.19238 16.4131,0.21279 33.0495,1.33131 49.0425,-3.15912 18.6976,-2.33322 38.4489,-8.3562 56.9175,-1.96519 15.6505,5.14703 16.8932,22.53514 15.2238,36.31746 -1.4304,16.37622 -4.3163,33.78527 -14.7912,47.02149 z"
         style="fill:#aa4400;fill-opacity:1;stroke:#aa4400;stroke-width:0.8668732;stroke-linecap:butt;stroke-linejoin:miter;stroke-miterlimit:4;stroke-dasharray:none;stroke-opacity:1" />
      <path
         sodipodi:nodetypes="ccccccc"
         inkscape:connector-curvature="0"
         id="path1869"
         d="m 1152.3307,856.79213 c 3.8532,-15.95221 9.8703,-31.98039 8.1618,-48.65984 -2.003,-25.30217 -25.1832,-9.10302 -49.9001,-23.745 -5.65,2.49797 -11.1422,10.79748 -9.1789,17.05655 -9.1563,13.46545 -24.618,16.98495 -7.7138,30.12994 20.0409,-7.19489 35.2381,-8.81394 23.3608,17.63893 13.624,13.47079 22.3777,-19.12759 35.2695,7.57938"
         style="fill:#ffccaa;fill-opacity:1;fill-rule:nonzero;stroke:none;stroke-width:1.73374915" />
      <path
         style="fill:#ffccaa;fill-opacity:1;fill-rule:nonzero;stroke:none;stroke-width:1.73374915"
         d="m 1026.0616,812.67156 c 3.8532,15.95221 9.8703,31.98039 8.1618,48.65984 -2.003,25.30217 -25.1832,9.10302 -49.90008,23.745 -5.65,-2.49797 -11.1422,-10.79748 -9.1789,-17.05655 -9.1563,-13.46545 -24.618,-16.98495 -7.7138,-30.12994 20.0409,7.19489 35.23808,8.81394 23.3608,-17.63893 13.62398,-13.47079 22.37768,19.12759 35.26948,-7.57938"
         id="path1894"
         inkscape:connector-curvature="0"
         sodipodi:nodetypes="ccccccc" />
    </g>
    <g
       style="display:inline"
       id="teteBroute"
       inkscape:transform-center-x="15.072592"
       inkscape:transform-center-y="19.524176"
       transform="rotate(-44.175405,-231.90652,421.10425)"
       inkscape:label="#g2078">
      <g
         id="g2020"
         transform="matrix(1.3869994,0,0,1.3869994,-692.47915,-34.230638)">
        <path
           style="fill:#aa4400;stroke:#000000;stroke-width:0.62499899;stroke-linecap:butt;stroke-linejoin:miter;stroke-miterlimit:4;stroke-dasharray:none;stroke-opacity:1"
           d="m 744.20251,369.3297 c 1.02168,-1.73577 1.20159,-3.87129 2.48605,-5.46974 1.25727,-1.93121 3.00169,-3.55971 5.06453,-4.59919 2.63498,-0.38223 4.61952,-1.25424 7.10225,-0.79347 1.04333,0.30851 2.24795,0.66227 2.98715,1.49413 0.15746,0.80186 -0.96595,1.02239 -1.08331,1.78463 -0.22417,1.82292 1.00174,3.36373 -0.19425,4.92412 -1.25722,2.97825 -4.31092,4.77466 -6.36633,5.74222 -0.91659,-0.12854 -1.97395,0.0103 -2.58531,0.77987 -0.88054,0.73179 -2.10926,0.97121 -3.2177,0.73371 -0.62972,0.0573 -1.22291,0.29986 -1.84577,0.39467"
           id="path2018"
           inkscape:connector-curvature="0"
           sodipodi:nodetypes="ccccccccccc" />
      </g>
      <path
         style="display:inline;fill:#552200;fill-opacity:1;stroke:none;stroke-width:1.90806901px;stroke-linecap:butt;stroke-linejoin:miter;stroke-opacity:1"
         d="m 349.48128,475.6351 c -5.7399,-1.62673 -5.7007,-10.02926 -7.7315,-16.00481 -2.9839,5.50758 -5.0726,8.29908 -3.4333,17.74982 4.4932,6.69718 8.8281,6.7203 13.1737,7.19148 0.1138,-4.2158 0.2064,-8.39992 -2.0089,-8.93649 z"
         id="path2022"
         inkscape:connector-curvature="0"
         sodipodi:nodetypes="ccccc"
         inkscape:transform-center-x="6.4266131"
         inkscape:transform-center-y="-8.9656923" />
      <path
         style="fill:#aa4400;stroke:#aa4400;stroke-width:0.8668732;stroke-linecap:butt;stroke-linejoin:miter;stroke-miterlimit:4;stroke-dasharray:none;stroke-opacity:1"
         d="m 382.14057,549.00921 c -7.6919,-8.55012 -29.54149,-9.92914 -38.09979,-8.42013 -8.0594,-2.65571 -13.826,-2.44246 -20.6139,3.76159 -10.5448,-0.17213 -18.9656,-13.11288 -7.0121,-20.49583 8.5562,-7.86984 10.8543,-18.65344 15.5544,-28.27346 5.7483,-3.93731 4.4334,-10.96377 9.271,-14.4345 4.7786,-0.17823 6.5164,-0.20135 10.0373,0.52828 9.8418,0.47508 79.71478,-30.50944 88.84889,-24.12061 4.5462,3.17983 1.63864,8.56361 3.91844,18.30878 -30.47572,16.89618 -51.05935,66.35917 -61.90424,73.14588 z"
         id="path2036"
         inkscape:connector-curvature="0"
         sodipodi:nodetypes="cccccccscc"
         inkscape:transform-center-x="32.940391"
         inkscape:transform-center-y="-9.1243334" />
      <path
         inkscape:connector-curvature="0"
         id="boucheBroute"
         style="fill:#aa4400;stroke:#aa4400;stroke-width:0.8668732;stroke-linecap:butt;stroke-linejoin:miter;stroke-miterlimit:4;stroke-dasharray:none;stroke-opacity:1"
         d="m 330.12448,545.56081 c 0,0 1.2079,1.40138 2.9267,0.78128 1.7325,-0.30822 3.9004,-0.34603 5.3795,-1.75849 1.0757,-1.23313 2.3305,-3.85604 4.5111,-3.82415 2.152,-0.10749 4.9198,-4.24747 4.9198,-4.24747 l -4.2039,-2.42362 z"
         inkscape:transform-center-x="1.9810546"
         inkscape:transform-center-y="3.1722078"
         inkscape:label="#path2044" />
      <g
         id="g2050"
         transform="matrix(1.3869994,0,0,1.3869994,-687.52559,-29.772418)">
        <path
           sodipodi:nodetypes="ccccccccccc"
           inkscape:connector-curvature="0"
           id="path2046"
           d="m 744.20251,369.3297 c 1.02168,-1.73577 1.20159,-3.87129 2.48605,-5.46974 1.25727,-1.93121 3.00169,-3.55971 5.06453,-4.59919 2.63498,-0.38223 4.61952,-1.25424 7.10225,-0.79347 1.04333,0.30851 2.24795,0.66227 2.98715,1.49413 0.15746,0.80186 -0.96595,1.02239 -1.08331,1.78463 -0.22417,1.82292 1.00174,3.36373 -0.19425,4.92412 -1.25722,2.97825 -4.31092,4.77466 -6.36633,5.74222 -0.91659,-0.12854 -1.97395,0.0103 -2.58531,0.77987 -0.88054,0.73179 -2.10926,0.97121 -3.2177,0.73371 -0.62972,0.0573 -1.22291,0.29986 -1.84577,0.39467"
           style="fill:#aa4400;stroke:#000000;stroke-width:0.62499899;stroke-linecap:butt;stroke-linejoin:miter;stroke-miterlimit:4;stroke-dasharray:none;stroke-opacity:1" />
        <path
           style="fill:#aa4400;stroke:#000000;stroke-width:0.40994772;stroke-linecap:butt;stroke-linejoin:miter;stroke-miterlimit:4;stroke-dasharray:none;stroke-opacity:1"
           d="m 747.5027,368.29616 c 0.67014,-1.13852 0.78815,-2.53925 1.63065,-3.5877 0.82466,-1.26671 1.96886,-2.33487 3.32191,-3.01669 1.72833,-0.25071 3.03003,-0.82267 4.65849,-0.52045 0.68434,0.20236 1.47447,0.4344 1.95933,0.98003 0.10328,0.52595 -0.63359,0.6706 -0.71057,1.17057 -0.14703,1.19568 0.65706,2.20633 -0.12741,3.22981 -0.82463,1.95349 -2.82761,3.13179 -4.17579,3.76643 -0.6012,-0.0843 -1.29474,0.007 -1.69575,0.51153 -0.57756,0.47999 -1.3835,0.63703 -2.11054,0.48125 -0.41305,0.0376 -0.80213,0.19668 -1.21067,0.25887"
           id="path2048"
           inkscape:connector-curvature="0"
           sodipodi:nodetypes="ccccccccccc" />
      </g>
      <path
         style="display:inline;fill:#d38d5f;stroke:#d38d5f;stroke-width:0.51174796px;stroke-linecap:butt;stroke-linejoin:miter;stroke-opacity:1"
         d="m 338.17479,488.49948 c -3.10482,5.63278 -7.41799,12.54842 -2.81227,18.65267 1.25591,5.73316 9.58983,2.5288 9.87002,8.23767 -1.5758,3.16148 3.04779,11.9609 4.79176,5.6499 0.0979,-5.18049 8.40304,-0.0721 7.14129,-6.39029 -2.03834,-4.46206 3.09685,-9.86398 0.24386,-13.37251 -2.69139,-0.0499 -4.64427,8.71437 -4.40546,1.98253 -1.74284,-3.82727 -8.43431,-3.4191 -7.61946,-8.93729 -1.39278,-2.91893 -4.39416,-4.54377 -7.20974,-5.82268 z"
         id="path2052"
         inkscape:connector-curvature="0" />
      <path
         style="opacity:1;fill:#ffffff;fill-opacity:1;stroke:#803300;stroke-width:1.47276616;stroke-linecap:round;stroke-miterlimit:4;stroke-dasharray:none;stroke-dashoffset:1.51419175;stroke-opacity:1"
         d="m 344.11678,496.77265 c 0.5892,1.35648 -0.5838,4.05342 -3.2123,5.4425 -2.6285,1.38912 -4.7425,1.45197 -7.1648,0.21327 0.5739,-2.25888 0.8755,-4.41086 3.504,-5.79994 2.6285,-1.38909 5.6742,-0.85634 6.8731,0.14417 z"
         id="path2054"
         inkscape:connector-curvature="0"
         sodipodi:nodetypes="cscsc" />
      <path
         style="opacity:1;fill:#000000;fill-opacity:1;stroke:none;stroke-width:1.71580851;stroke-linecap:round;stroke-miterlimit:4;stroke-dasharray:none;stroke-dashoffset:1.51419175;stroke-opacity:1"
         d="m 319.27248,529.40877 c 0.8404,1.24815 0.677,2.82862 -0.365,3.53007 -1.0417,0.70144 -2.5676,0.25824 -3.4079,-0.9899 -0.8404,-1.24816 0.5946,-0.94003 1.6363,-1.64148 1.0419,-0.70144 1.2963,-2.14685 2.1366,-0.89869 z"
         id="path2056"
         inkscape:connector-curvature="0"
         sodipodi:nodetypes="sssss" />
      <path
         style="display:inline;opacity:1;fill:#000000;fill-opacity:1;stroke:none;stroke-width:0.7791326;stroke-linecap:round;stroke-linejoin:bevel;stroke-miterlimit:4;stroke-dasharray:none;stroke-dashoffset:0;stroke-opacity:1"
         d="m 340.6016,500.29965 c -0.23025,1.07936 -1.17986,1.85356 -2.28343,1.86168 -1.10361,0.008 -2.06449,-0.752 -2.31061,-1.82786 -0.24612,-1.07583 0.28867,-2.17813 1.28602,-2.65066 0.99735,-0.47255 2.1891,-0.18821 2.86575,0.68363 -0.94784,0.32498 -1.91185,0.62973 -2.22513,1.7479 0.95717,-0.27836 1.87229,-0.34659 2.6674,0.18533 z"
         id="path2064"
         inkscape:connector-curvature="0"
         sodipodi:nodetypes="csssccc" />
    </g>
  </g>
</svg>
